M48
; DRILL file {KiCad 9.0.9} date 2026-08-28T23:15:50+0200
; FORMAT={-:-/ absolute / inch / decimal}
; #@! TF.CreationDate,2026-08-28T23:15:50+02:00
; #@! TF.GenerationSoftware,Kicad,Pcbnew,9.0.9
; #@! TF.FileFunction,Plated,1,4,PTH
FMAT,2
INCH
; #@! TA.AperFunction,Plated,PTH,ViaDrill
T1C0.0118
; #@! TA.AperFunction,Plated,PTH,ComponentDrill
T2C0.0197
; #@! TA.AperFunction,Plated,PTH,ComponentDrill
T3C0.0197
; #@! TA.AperFunction,Plated,PTH,ComponentDrill
T4C0.0295
; #@! TA.AperFunction,Plated,PTH,ComponentDrill
T5C0.0300
; #@! TA.AperFunction,Plated,PTH,ComponentDrill
T6C0.0315
; #@! TA.AperFunction,Plated,PTH,ComponentDrill
T7C0.0360
; #@! TA.AperFunction,Plated,PTH,ComponentDrill
T8C0.0551
%
G90
G05
T1
X0.03Y7.0
X0.03Y6.9
X0.03Y6.8
X0.03Y6.7
X0.03Y6.6
X0.03Y6.4
X0.03Y6.3
X0.03Y6.2
X0.03Y6.1
X0.03Y6.0
X0.03Y5.901
X0.03Y5.8
X0.03Y5.7
X0.03Y5.6
X0.03Y5.5
X0.03Y5.4
X0.03Y5.3
X0.03Y5.2
X0.03Y5.1
X0.03Y5.0
X0.03Y4.9
X0.03Y4.8
X0.03Y4.7
X0.03Y4.6
X0.03Y4.5
X0.03Y4.4
X0.03Y4.3
X0.03Y4.2
X0.03Y4.1
X0.03Y4.0
X0.03Y3.9
X0.03Y3.8
X0.03Y3.7
X0.03Y3.6
X0.03Y3.5
X0.03Y3.4
X0.03Y3.3
X0.03Y3.2
X0.03Y3.1
X0.03Y3.0
X0.03Y2.9
X0.03Y2.8
X0.03Y2.7
X0.03Y2.6
X0.03Y2.5
X0.03Y2.4
X0.03Y2.3
X0.03Y2.2
X0.03Y2.1
X0.03Y2.0
X0.03Y1.9
X0.03Y1.8
X0.03Y1.7
X0.03Y1.6
X0.03Y1.5
X0.03Y1.4
X0.03Y1.3
X0.03Y1.2
X0.03Y1.1
X0.03Y1.0
X0.03Y0.9
X0.03Y0.8
X0.03Y0.7
X0.03Y0.6
X0.03Y0.5
X0.03Y0.4
X0.03Y0.3
X0.03Y0.2
X0.03Y0.1
X0.031Y6.5
X0.07Y6.952
X0.071Y6.662
X0.076Y6.597
X0.076Y6.534
X0.095Y6.489
X0.1Y7.07
X0.1Y0.03
X0.108Y6.805
X0.108Y6.747
X0.153Y6.679
X0.17Y6.1
X0.17Y5.6
X0.17Y5.4
X0.17Y5.2
X0.17Y5.0
X0.17Y4.8
X0.17Y4.6
X0.17Y4.4
X0.17Y4.2
X0.17Y4.0
X0.17Y3.8
X0.17Y3.6
X0.17Y3.4
X0.17Y3.2
X0.17Y3.0
X0.17Y2.8
X0.17Y2.6
X0.17Y2.4
X0.17Y2.2
X0.17Y2.0
X0.17Y1.8
X0.17Y1.6
X0.17Y1.4
X0.17Y1.2
X0.17Y1.0
X0.17Y0.8
X0.17Y0.6
X0.17Y0.4
X0.171Y6.598
X0.174Y6.81
X0.177Y6.488
X0.18Y6.4
X0.18Y6.3
X0.2Y7.07
X0.2Y6.9
X0.2Y5.699
X0.2Y0.2
X0.2Y0.03
X0.216Y6.679
X0.234Y6.31
X0.245Y6.81
X0.245Y6.473
X0.251Y6.553
X0.252Y6.623
X0.294Y6.744
X0.294Y6.699
X0.3Y7.07
X0.3Y5.799
X0.3Y0.03
X0.323Y5.571
X0.325Y6.465
X0.331Y6.026
X0.339Y6.601
X0.339Y6.563
X0.341Y6.269
X0.341Y6.194
X0.342Y6.108
X0.367Y6.744
X0.367Y6.699
X0.378Y6.601
X0.378Y6.563
X0.39Y6.109
X0.39Y5.955
X0.4Y7.07
X0.4Y6.9
X0.4Y5.899
X0.4Y0.17
X0.4Y0.03
X0.408Y6.746
X0.43Y4.12
X0.43Y3.9
X0.43Y3.7
X0.43Y3.5
X0.43Y3.3
X0.43Y2.72
X0.43Y2.4
X0.43Y2.2
X0.43Y2.0
X0.43Y1.8
X0.44Y4.44
X0.456Y6.876
X0.456Y6.804
X0.461Y6.158
X0.461Y5.974
X0.464Y6.091
X0.47Y6.753
X0.49Y5.617
X0.49Y5.542
X0.492Y5.717
X0.5Y7.07
X0.5Y6.384
X0.5Y6.308
X0.5Y5.4
X0.5Y5.2
X0.5Y5.0
X0.5Y4.28
X0.5Y3.23
X0.5Y2.882
X0.5Y2.56
X0.5Y0.03
X0.501Y6.2372
X0.501Y6.467
X0.501Y4.599
X0.517Y6.109
X0.521Y6.697
X0.527Y6.52
X0.528Y5.573
X0.53Y4.754
X0.53Y3.036
X0.54Y6.04
X0.542Y6.764
X0.549Y6.8
X0.553Y6.277
X0.553Y5.717
X0.554Y6.384
X0.555Y4.58
X0.557Y6.467
X0.557Y6.201
X0.57Y2.96
X0.57Y1.3
X0.57Y0.8
X0.584Y6.697
X0.59Y4.91
X0.591Y6.855
X0.591Y6.761
X0.6Y7.07
X0.6Y1.59
X0.6Y0.17
X0.6Y0.03
X0.611Y5.803
X0.625Y6.31
X0.637Y2.709
X0.638Y4.426
X0.662Y6.868
X0.677Y6.021
X0.678Y5.492
X0.682Y6.698
X0.689Y6.448
X0.689Y6.18
X0.6898Y6.3999
X0.692Y6.297
X0.6945Y5.766
X0.699Y7.07
X0.7Y5.899
X0.7Y4.87
X0.7Y4.63
X0.7Y0.03
X0.701Y6.5
X0.719Y6.868
X0.72Y6.651
X0.733Y6.021
X0.754Y5.769
X0.758Y6.246
X0.766Y6.657
X0.766Y6.624
X0.782Y6.18
X0.795Y6.657
X0.795Y6.624
X0.798Y6.394
X0.798Y6.02
X0.799Y7.07
X0.8Y6.92
X0.8Y4.4
X0.8Y4.0
X0.8Y3.6
X0.8Y3.2
X0.8Y2.8
X0.8Y2.4
X0.8Y2.0
X0.8Y1.59
X0.8Y1.3
X0.8Y0.9
X0.8Y0.7
X0.8Y0.45
X0.8Y0.17
X0.8Y0.03
X0.813Y5.648
X0.813Y5.578
X0.82Y5.851
X0.82Y5.7
X0.823Y5.96
X0.84Y6.348
X0.841Y6.724
X0.842Y6.624
X0.842Y6.525
X0.87Y0.53
X0.872Y5.502
X0.874Y6.348
X0.9Y7.07
X0.9Y6.92
X0.9Y5.2
X0.9Y4.87
X0.9Y4.63
X0.9Y0.03
X0.906Y6.348
X0.923Y6.525
X0.924Y6.624
X0.925Y6.724
X0.926Y6.41
X0.936Y6.348
X0.97Y0.63
X1.0Y7.07
X1.0Y6.92
X1.0Y1.59
X1.0Y1.1
X1.0Y0.43
X1.0Y0.17
X1.0Y0.03
X1.005Y6.163
X1.005Y6.126
X1.015Y6.248
X1.019Y6.003
X1.03Y5.5
X1.037Y6.163
X1.037Y6.126
X1.08Y0.74
X1.095Y6.076
X1.1Y7.07
X1.1Y6.92
X1.1Y4.87
X1.1Y4.63
X1.1Y0.03
X1.118Y6.231
X1.127Y6.335
X1.134Y6.84
X1.134Y6.727
X1.134Y6.626
X1.134Y6.528
X1.165Y6.413
X1.2Y7.07
X1.2Y4.4
X1.2Y4.0
X1.2Y3.6
X1.2Y3.2
X1.2Y2.8
X1.2Y2.4
X1.2Y2.0
X1.2Y1.59
X1.2Y1.3
X1.2Y0.43
X1.2Y0.17
X1.2Y0.03
X1.204Y6.304
X1.21Y0.87
X1.25Y6.123
X1.269Y5.696
X1.27Y5.49
X1.291Y5.864
X1.298Y5.928
X1.3Y7.07
X1.3Y5.2
X1.3Y4.87
X1.3Y0.03
X1.331Y6.418
X1.331Y6.833
X1.332Y6.715
X1.332Y6.532
X1.349Y5.9241
X1.351Y6.105
X1.36Y2.56
X1.367Y2.882
X1.368Y4.6
X1.37Y4.27
X1.381Y6.074
X1.396Y4.755
X1.397Y3.036
X1.4Y7.07
X1.4Y6.9
X1.4Y6.43
X1.4Y5.65
X1.4Y1.59
X1.4Y0.87
X1.4Y0.43
X1.4Y0.17
X1.4Y0.03
X1.44Y6.268
X1.47Y5.48
X1.486Y6.094
X1.49Y6.299
X1.5Y7.07
X1.5Y6.7
X1.5Y1.3
X1.5Y1.1
X1.5Y0.03
X1.504Y2.71
X1.505Y4.426
X1.516Y6.094
X1.531Y5.879
X1.569Y5.482
X1.587Y6.085
X1.599Y2.8
X1.6Y7.07
X1.6Y6.43
X1.6Y5.37
X1.6Y5.2
X1.6Y4.87
X1.6Y4.63
X1.6Y4.4
X1.6Y4.0
X1.6Y3.6
X1.6Y3.2
X1.6Y2.4
X1.6Y2.0
X1.6Y1.59
X1.6Y0.87
X1.6Y0.441
X1.6Y0.17
X1.6Y0.03
X1.6364Y6.085
X1.669Y5.482
X1.671Y0.7
X1.671Y0.52
X1.684Y5.981
X1.692Y1.398
X1.7Y7.07
X1.7Y6.9
X1.7Y0.03
X1.74Y0.76
X1.75Y1.65
X1.8Y7.07
X1.8Y6.43
X1.8Y6.1
X1.8Y5.8
X1.8Y4.87
X1.8Y1.2
X1.8Y0.87
X1.8Y0.17
X1.8Y0.03
X1.811Y0.7
X1.832Y1.398
X1.84Y5.37
X1.84Y5.2
X1.84Y5.0
X1.84Y4.6
X1.84Y4.4
X1.84Y4.2
X1.84Y4.0
X1.84Y3.8
X1.84Y3.6
X1.84Y3.4
X1.84Y3.2
X1.84Y2.97
X1.84Y2.8
X1.84Y2.6
X1.84Y2.4
X1.84Y2.2
X1.84Y2.0
X1.84Y1.8
X1.872Y0.7
X1.8824Y1.515
X1.9Y7.07
X1.9Y6.7
X1.9Y0.03
X1.907Y1.515
X1.93Y0.68
X1.93Y0.3
X1.931Y0.5
X1.9316Y1.515
X1.938Y3.17
X1.941Y5.658
X1.95Y1.2
X1.96Y2.9
X1.96Y2.7
X1.96Y2.493
X1.96Y2.3
X1.96Y2.1
X1.96Y1.9
X1.972Y1.398
X1.974Y0.744
X1.9754Y5.6752
X1.98Y4.5
X1.98Y4.3
X1.98Y4.1
X1.98Y3.9
X1.98Y3.7
X1.98Y3.5
X1.98Y3.3
X1.99Y5.3
X1.99Y5.1
X1.99Y4.87
X2.0Y7.07
X2.0Y6.43
X2.0Y4.63
X2.0Y0.03
X2.0Y5.675
X2.028Y5.715
X2.1Y7.07
X2.1Y6.9
X2.1Y6.1
X2.1Y5.8
X2.1Y5.369
X2.1Y4.2
X2.1Y3.9
X2.1Y3.599
X2.1Y3.3
X2.1Y3.0
X2.1Y2.7
X2.1Y2.4
X2.1Y2.1
X2.1Y1.8
X2.1Y1.5
X2.1Y1.2
X2.1Y0.899
X2.1Y0.57
X2.1Y0.03
X2.2Y7.07
X2.2Y6.43
X2.2Y5.1
X2.2Y4.87
X2.2Y0.03
X2.234Y4.599
X2.234Y2.881
X2.263Y4.754
X2.263Y3.036
X2.28Y5.28
X2.3Y7.07
X2.3Y6.7
X2.3Y0.57
X2.3Y0.3
X2.3Y0.03
X2.31Y4.7
X2.37Y5.179
X2.37Y5.0
X2.371Y4.427
X2.371Y2.712
X2.38Y4.7
X2.39Y6.43
X2.4Y7.07
X2.4Y6.1
X2.4Y5.8
X2.4Y5.4
X2.4Y4.2
X2.4Y3.9
X2.4Y3.6
X2.4Y3.3
X2.4Y3.0
X2.4Y2.4
X2.4Y2.1
X2.4Y1.8
X2.4Y1.5
X2.4Y1.2
X2.4Y0.9
X2.4Y0.03
X2.5Y7.07
X2.5Y6.9
X2.5Y6.54
X2.5Y5.1
X2.5Y4.8
X2.5Y0.57
X2.5Y0.03
X2.6Y7.07
X2.6Y6.64
X2.6Y0.03
X2.7Y7.07
X2.7Y6.74
X2.7Y6.4
X2.7Y6.1
X2.7Y5.8
X2.7Y5.4
X2.7Y5.1
X2.7Y4.8
X2.7Y4.5
X2.7Y4.2
X2.7Y3.9
X2.7Y3.6
X2.7Y3.3
X2.7Y3.0
X2.7Y2.7
X2.7Y2.4
X2.7Y2.1
X2.7Y1.8
X2.7Y1.5
X2.7Y1.2
X2.7Y0.9
X2.7Y0.57
X2.7Y0.3
X2.7Y0.03
X2.8Y7.07
X2.8Y6.83
X2.8Y6.6
X2.8Y0.03
X2.9Y7.07
X2.9Y0.57
X2.901Y0.03
X2.99Y3.6
X2.99Y2.39
X2.999Y3.9
X2.999Y3.0
X3.0Y7.07
X3.0Y6.83
X3.0Y6.4
X3.0Y6.1
X3.0Y5.8
X3.0Y5.4
X3.0Y5.1
X3.0Y4.8
X3.0Y4.5
X3.0Y4.2
X3.0Y3.3
X3.0Y2.7
X3.0Y2.1
X3.0Y1.8
X3.0Y1.5
X3.0Y1.2
X3.0Y0.9
X3.0Y0.03
X3.026Y3.634
X3.098Y4.588
X3.1Y7.07
X3.1Y6.6
X3.1Y0.57
X3.1Y0.3
X3.1Y0.03
X3.128Y4.752
X3.164Y3.607
X3.19Y3.493
X3.19Y3.391
X3.2Y7.07
X3.2Y6.83
X3.2Y3.9
X3.2Y2.48
X3.2Y0.03
X3.228Y3.634
X3.236Y4.427
X3.299Y4.2
X3.3Y7.07
X3.3Y6.4
X3.3Y6.1
X3.3Y5.8
X3.3Y5.4
X3.3Y5.1
X3.3Y4.8
X3.3Y4.5
X3.3Y3.34
X3.3Y3.0
X3.3Y2.8
X3.3Y2.1
X3.3Y1.8
X3.3Y1.5
X3.3Y1.2
X3.3Y0.9
X3.3Y0.57
X3.3Y0.03
X3.33Y2.4
X3.344Y5.564
X3.35Y3.503
X3.365Y3.607
X3.4Y7.07
X3.4Y6.83
X3.4Y6.6
X3.4Y3.9
X3.4Y3.379
X3.4Y0.03
X3.426Y3.317
X3.429Y3.634
X3.444Y5.753
X3.45Y3.3834
X3.49Y3.34
X3.5Y7.07
X3.5Y3.503
X3.5Y0.57
X3.5Y0.3
X3.5Y0.03
X3.518Y5.826
X3.535Y5.543
X3.567Y3.607
X3.581Y3.252
X3.6Y7.07
X3.6Y6.83
X3.6Y6.1
X3.6Y5.1
X3.6Y4.8
X3.6Y4.5
X3.6Y4.2
X3.6Y3.0
X3.6Y2.8
X3.6Y2.4
X3.6Y2.1
X3.6Y1.8
X3.6Y1.5
X3.6Y1.2
X3.6Y0.9
X3.6Y0.03
X3.601Y3.9
X3.605Y5.755
X3.631Y3.634
X3.634Y5.371
X3.64Y5.719
X3.7Y7.07
X3.7Y6.6
X3.7Y6.4
X3.7Y5.73
X3.7Y3.4
X3.7Y0.03
X3.701Y0.57
X3.746Y5.613
X3.769Y3.607
X3.8Y7.07
X3.8Y6.83
X3.8Y3.9
X3.8Y0.03
X3.821Y1.186
X3.832Y3.634
X3.9Y7.07
X3.9Y4.8
X3.9Y4.5
X3.9Y4.2
X3.9Y3.3
X3.9Y3.1
X3.9Y2.8
X3.9Y2.4
X3.9Y2.1
X3.9Y1.8
X3.9Y1.5
X3.9Y0.9
X3.9Y0.57
X3.9Y0.3
X3.9Y0.03
X3.916Y5.29
X3.917Y6.241
X3.917Y5.801
X3.917Y4.85
X3.97Y3.607
X3.99Y3.505
X3.99Y3.397
X4.0Y7.07
X4.0Y6.83
X4.0Y6.6
X4.0Y6.3
X4.0Y6.0
X4.0Y5.7
X4.0Y5.42
X4.0Y5.1
X4.0Y3.9
X4.0Y0.03
X4.014Y1.228
X4.033Y3.633
X4.1Y7.07
X4.1Y0.57
X4.1Y0.03
X4.106Y6.433
X4.106Y5.616
X4.106Y4.666
X4.148Y5.025
X4.15Y3.504
X4.1611Y2.9927
X4.1611Y2.9327
X4.163Y3.339
X4.167Y3.153
X4.17Y3.607
X4.2Y7.07
X4.2Y6.83
X4.2Y4.8
X4.2Y4.5
X4.2Y4.2
X4.2Y3.9
X4.2Y3.307
X4.2Y2.8
X4.2Y2.4
X4.2Y2.1
X4.2Y1.8
X4.2Y1.5
X4.2Y1.2
X4.2Y0.9
X4.2Y0.03
X4.223Y6.077
X4.2314Y3.4024
X4.235Y3.634
X4.24Y5.823
X4.259Y3.128
X4.278Y3.361
X4.288Y5.025
X4.2941Y3.0527
X4.2941Y2.9327
X4.2941Y2.8727
X4.3Y7.07
X4.3Y6.6
X4.3Y6.3
X4.3Y5.7
X4.3Y5.4
X4.3Y5.14
X4.3Y3.504
X4.3Y0.57
X4.3Y0.3
X4.3Y0.03
X4.363Y6.077
X4.373Y3.607
X4.383Y3.253
X4.4Y7.07
X4.4Y6.83
X4.4Y3.9
X4.4Y0.03
X4.429Y5.025
X4.436Y3.634
X4.486Y2.855
X4.5Y7.07
X4.5Y4.8
X4.5Y4.5
X4.5Y4.2
X4.5Y2.4
X4.5Y2.1
X4.5Y1.8
X4.5Y1.5
X4.5Y1.2
X4.5Y0.9
X4.5Y0.57
X4.5Y0.03
X4.503Y6.077
X4.534Y2.985
X4.536Y3.495
X4.536Y3.399
X4.54Y3.17
X4.546Y6.434
X4.546Y5.616
X4.546Y4.667
X4.57Y2.6
X4.574Y3.607
X4.6Y7.07
X4.6Y6.83
X4.6Y6.6
X4.6Y6.3
X4.6Y6.0
X4.6Y5.7
X4.6Y5.4
X4.6Y3.9
X4.6Y0.03
X4.635Y4.289
X4.638Y3.634
X4.684Y3.117
X4.696Y3.503
X4.7Y7.07
X4.7Y0.57
X4.7Y0.3
X4.7Y0.03
X4.7054Y4.3499
X4.7231Y4.3322
X4.73Y3.36
X4.73Y2.8
X4.734Y6.241
X4.734Y5.803
X4.734Y4.85
X4.735Y5.29
X4.755Y4.291
X4.7591Y2.9927
X4.7591Y2.9677
X4.7591Y2.9157
X4.7591Y2.9417
X4.762Y4.154
X4.775Y3.607
X4.792Y3.117
X4.7959Y4.2594
X4.8Y7.07
X4.8Y6.83
X4.8Y5.1
X4.8Y4.8
X4.8Y3.9
X4.8Y2.38
X4.8Y2.1
X4.8Y1.8
X4.8Y1.5
X4.8Y1.2
X4.8Y0.9
X4.8Y0.03
X4.812Y3.507
X4.8133Y4.242
X4.83Y0.7
X4.839Y3.634
X4.84Y5.37
X4.846Y3.196
X4.869Y4.624
X4.877Y5.505
X4.881Y4.399
X4.887Y4.234
X4.9Y7.07
X4.9Y6.74
X4.9Y6.5
X4.9Y6.0
X4.9Y5.7
X4.9Y4.03
X4.9Y2.8
X4.9Y0.03
X4.901Y6.3
X4.91Y3.14
X4.912Y3.057
X4.913Y3.0078
X4.9131Y3.0324
X4.936Y5.644
X4.94Y3.39
X4.943Y3.252
X4.97Y2.93
X4.973Y5.68
X4.977Y3.607
X4.98Y3.07
X5.0Y7.07
X5.0Y6.9
X5.0Y6.64
X5.0Y3.92
X5.0Y3.771
X5.0Y0.87
X5.0Y0.03
X5.001Y3.469
X5.0229Y4.6942
X5.038Y3.228
X5.06Y3.14
X5.065Y3.513
X5.0654Y4.6518
X5.078Y5.787
X5.1Y7.07
X5.1Y6.54
X5.1Y5.1
X5.1Y4.8
X5.1Y4.4
X5.1Y4.2
X5.1Y3.0
X5.1Y2.7
X5.1Y2.4
X5.1Y2.1
X5.1Y1.8
X5.1Y1.5
X5.1Y1.2
X5.1Y0.6
X5.1Y0.3
X5.1Y0.03
X5.115Y3.181
X5.118Y5.392
X5.13Y1.0
X5.14Y3.8
X5.141Y3.181
X5.142Y3.286
X5.143Y5.578
X5.1502Y4.5669
X5.1629Y4.7494
X5.167Y3.513
X5.1926Y4.5245
X5.2Y7.07
X5.2Y6.9
X5.2Y6.7
X5.2Y6.44
X5.2Y0.03
X5.2054Y4.707
X5.218Y3.408
X5.22Y3.33
X5.23Y1.1
X5.2404Y3.3978
X5.247Y5.702
X5.2485Y4.6638
X5.287Y3.253
X5.287Y3.151
X5.3Y7.07
X5.3Y0.03
X5.322Y5.629
X5.37Y7.0
X5.37Y6.9
X5.37Y6.8
X5.37Y6.7
X5.37Y6.6
X5.37Y6.5
X5.37Y6.4
X5.37Y6.3
X5.37Y6.2
X5.37Y6.1
X5.37Y6.0
X5.37Y5.9
X5.37Y5.8
X5.37Y5.7
X5.37Y5.6
X5.37Y5.5
X5.37Y5.4
X5.37Y5.3
X5.37Y5.2
X5.37Y5.1
X5.37Y5.0
X5.37Y4.9
X5.37Y4.8
X5.37Y4.7
X5.37Y4.6
X5.37Y4.5
X5.37Y4.4
X5.37Y4.3
X5.37Y4.2
X5.37Y4.1
X5.37Y4.0
X5.37Y3.9
X5.37Y3.8
X5.37Y3.7
X5.37Y3.6
X5.37Y3.5
X5.37Y3.4
X5.37Y3.3
X5.37Y3.2
X5.37Y3.1
X5.37Y3.0
X5.37Y2.9
X5.37Y2.8
X5.37Y2.7
X5.37Y2.6
X5.37Y2.5
X5.37Y2.4
X5.37Y2.3
X5.37Y2.2
X5.37Y2.1
X5.37Y2.0
X5.37Y1.9
X5.37Y1.8
X5.37Y1.7
X5.37Y1.6
X5.37Y1.5
X5.37Y1.4
X5.37Y1.3
X5.37Y1.2
X5.37Y1.1
X5.37Y1.0
X5.37Y0.9
X5.37Y0.8
X5.37Y0.7
X5.37Y0.6
X5.37Y0.5
X5.37Y0.4
X5.37Y0.3
X5.37Y0.2
X5.37Y0.1
T4
X0.3216Y6.8315
X0.4004Y6.8315
T5
X0.089Y5.654
X0.189Y5.754
X0.289Y5.654
X0.444Y1.5163
X0.444Y1.0302
X0.444Y0.544
X0.544Y1.4163
X0.544Y0.9302
X0.544Y0.444
X0.644Y1.5163
X0.644Y1.0302
X0.644Y0.544
X0.9677Y5.6557
X1.0677Y5.7557
X1.1677Y5.6557
T6
X0.887Y6.774
X0.887Y6.674
X0.887Y6.574
X0.887Y6.474
X1.187Y6.774
X1.187Y6.674
X1.187Y6.574
X1.187Y6.474
T7
X3.1508Y2.7125
X3.1508Y2.6337
X3.1508Y2.3975
X3.1508Y2.555
X3.2492Y2.555
X3.2492Y2.7125
X3.2492Y2.6337
X3.2492Y2.3975
X4.7009Y2.54
X4.7293Y2.6107
X4.7293Y2.4693
X4.8Y2.6391
X4.8Y2.4409
X4.8707Y2.6107
X4.8707Y2.4693
X4.8991Y2.54
T8
X0.4111Y2.581
X0.4121Y4.3
X0.6111Y2.581
X0.6121Y4.3
X0.8111Y2.581
X0.8121Y4.3
X1.2778Y2.581
X1.2788Y4.3002
X1.4778Y2.581
X1.4788Y4.3002
X1.6778Y2.581
X1.6788Y4.3002
X2.1445Y2.581
X2.1455Y4.3002
X2.3445Y2.581
X2.3455Y4.3002
X2.5445Y2.581
X2.5455Y4.3002
X3.746Y1.0281
X3.946Y1.0281
X4.146Y1.0281
T2
G00X0.1218Y6.2562
M15
G01X0.0943Y6.2562
M16
G05
G00X0.1218Y5.9161
M15
G01X0.0943Y5.9161
M16
G05
G00X0.2715Y6.2562
M15
G01X0.2439Y6.2562
M16
G05
G00X0.2715Y5.9161
M15
G01X0.2439Y5.9161
M16
G05
T3
G00X3.1843Y2.805
M15
G01X3.2157Y2.805
M16
G05
G00X3.1843Y2.305
M15
G01X3.2157Y2.305
M16
G05
M30
