%TF.GenerationSoftware,KiCad,Pcbnew,9.0.9*%
%TF.CreationDate,2026-09-27T14:47:07+02:00*%
%TF.ProjectId,busy-board,62757379-2d62-46f6-9172-642e6b696361,1.1.0*%
%TF.SameCoordinates,PXe88b40PYba85060*%
%TF.FileFunction,Legend,Bot*%
%TF.FilePolarity,Positive*%
%FSLAX46Y46*%
G04 Gerber Fmt 4.6, Leading zero omitted, Abs format (unit mm)*
G04 Created by KiCad (PCBNEW 9.0.9) date 2026-09-27 14:47:07*
%MOMM*%
%LPD*%
G01*
G04 APERTURE LIST*
G04 Aperture macros list*
%AMRoundRect*
0 Rectangle with rounded corners*
0 $1 Rounding radius*
0 $2 $3 $4 $5 $6 $7 $8 $9 X,Y pos of 4 corners*
0 Add a 4 corners polygon primitive as box body*
4,1,4,$2,$3,$4,$5,$6,$7,$8,$9,$2,$3,0*
0 Add four circle primitives for the rounded corners*
1,1,$1+$1,$2,$3*
1,1,$1+$1,$4,$5*
1,1,$1+$1,$6,$7*
1,1,$1+$1,$8,$9*
0 Add four rect primitives between the rounded corners*
20,1,$1+$1,$2,$3,$4,$5,0*
20,1,$1+$1,$4,$5,$6,$7,0*
20,1,$1+$1,$6,$7,$8,$9,0*
20,1,$1+$1,$8,$9,$2,$3,0*%
G04 Aperture macros list end*
%ADD10C,1.624000*%
%ADD11O,1.800000X1.100000*%
%ADD12C,2.100000*%
%ADD13C,2.800000*%
%ADD14O,1.624000X1.100000*%
%ADD15C,0.850000*%
%ADD16RoundRect,0.265625X0.584375X0.584375X-0.584375X0.584375X-0.584375X-0.584375X0.584375X-0.584375X0*%
%ADD17C,1.700000*%
%ADD18RoundRect,0.270833X0.654167X-0.379167X0.654167X0.379167X-0.654167X0.379167X-0.654167X-0.379167X0*%
%ADD19O,1.850000X1.300000*%
G04 APERTURE END LIST*
%LPC*%
D10*
%TO.C,SW102*%
X119402700Y64516000D03*
X120123949Y66312051D03*
X121920000Y67033300D03*
X123716051Y66312051D03*
X124437300Y64516000D03*
X123716051Y62719949D03*
X121920000Y61998700D03*
X120123949Y62719949D03*
%TD*%
D11*
%TO.C,J202*%
X6544912Y158908400D03*
X2744912Y158908400D03*
X6544912Y150268400D03*
X2744912Y150268400D03*
%TD*%
D12*
%TO.C,SW305*%
X54494569Y109224200D03*
X59574568Y109224200D03*
X64654567Y109224200D03*
%TD*%
D13*
%TO.C,H107*%
X134442200Y50800000D03*
%TD*%
D10*
%TO.C,SW401*%
X80030000Y60896999D03*
X82530000Y60896999D03*
X80030000Y66897000D03*
X82530000Y66897000D03*
X80030001Y64897000D03*
X82529999Y64897000D03*
X80030000Y68897001D03*
X82530000Y68897001D03*
D14*
X81280000Y58547000D03*
X81280000Y71247000D03*
%TD*%
D13*
%TO.C,H104*%
X71120000Y88874600D03*
%TD*%
D12*
%TO.C,SW303*%
X10467902Y109220000D03*
X15547901Y109220000D03*
X20627900Y109220000D03*
%TD*%
D10*
%TO.C,RV101*%
X24579300Y143654500D03*
X27119300Y146194501D03*
X29659300Y143654500D03*
%TD*%
D15*
%TO.C,SW202*%
X1783800Y174357600D03*
X1783800Y171357600D03*
%TD*%
D13*
%TO.C,H101*%
X2590800Y162534600D03*
%TD*%
D10*
%TO.C,RV103*%
X16357600Y38514299D03*
X13817600Y35974298D03*
X11277600Y38514299D03*
%TD*%
D12*
%TO.C,SW306*%
X10442502Y65557400D03*
X15522501Y65557400D03*
X20602500Y65557400D03*
%TD*%
D10*
%TO.C,RV102*%
X2259393Y143611170D03*
X4799393Y146151171D03*
X7339393Y143611170D03*
%TD*%
%TO.C,RV105*%
X16357600Y13817601D03*
X13817600Y11277600D03*
X11277600Y13817601D03*
%TD*%
D16*
%TO.C,SW201*%
X31496000Y163931600D03*
D17*
X31496000Y166471600D03*
X31496000Y169011599D03*
X31496000Y171551600D03*
X23876000Y171551600D03*
X23876000Y169011600D03*
X23876000Y166471600D03*
X23876000Y163931600D03*
%TD*%
D13*
%TO.C,H103*%
X2743200Y88874600D03*
%TD*%
D18*
%TO.C,J201*%
X15787200Y176190400D03*
D19*
X15787200Y178190401D03*
%TD*%
D13*
%TO.C,H109*%
X29159200Y177749200D03*
%TD*%
D12*
%TO.C,SW101*%
X95148400Y26113889D03*
X100228400Y26113889D03*
X105308400Y26113889D03*
%TD*%
D13*
%TO.C,H106*%
X134391400Y2743200D03*
%TD*%
D12*
%TO.C,SW301*%
X54469169Y65557400D03*
X59549168Y65557400D03*
X64629167Y65557400D03*
%TD*%
%TO.C,SW302*%
X32455835Y65557400D03*
X37535834Y65557400D03*
X42615833Y65557400D03*
%TD*%
D13*
%TO.C,H105*%
X2768600Y2768600D03*
%TD*%
%TO.C,H102*%
X134391400Y177571400D03*
%TD*%
%TO.C,H108*%
X71120000Y50774600D03*
%TD*%
D10*
%TO.C,RV104*%
X16357600Y26165950D03*
X13817600Y23625949D03*
X11277600Y26165950D03*
%TD*%
D12*
%TO.C,SW304*%
X32481235Y109224200D03*
X37561234Y109224200D03*
X42641233Y109224200D03*
%TD*%
%LPD*%
M02*
