%TF.GenerationSoftware,KiCad,Pcbnew,9.0.9*%
%TF.CreationDate,2026-08-28T23:15:50+02:00*%
%TF.ProjectId,busy-board,62757379-2d62-46f6-9172-642e6b696361,1.0.0*%
%TF.SameCoordinates,PXe88b40PYba85060*%
%TF.FileFunction,Legend,Top*%
%TF.FilePolarity,Positive*%
%FSLAX46Y46*%
G04 Gerber Fmt 4.6, Leading zero omitted, Abs format (unit mm)*
G04 Created by KiCad (PCBNEW 9.0.9) date 2026-08-28 23:15:50*
%MOMM*%
%LPD*%
G01*
G04 APERTURE LIST*
G04 Aperture macros list*
%AMRoundRect*
0 Rectangle with rounded corners*
0 $1 Rounding radius*
0 $2 $3 $4 $5 $6 $7 $8 $9 X,Y pos of 4 corners*
0 Add a 4 corners polygon primitive as box body*
4,1,4,$2,$3,$4,$5,$6,$7,$8,$9,$2,$3,0*
0 Add four circle primitives for the rounded corners*
1,1,$1+$1,$2,$3*
1,1,$1+$1,$4,$5*
1,1,$1+$1,$6,$7*
1,1,$1+$1,$8,$9*
0 Add four rect primitives between the rounded corners*
20,1,$1+$1,$2,$3,$4,$5,0*
20,1,$1+$1,$4,$5,$6,$7,0*
20,1,$1+$1,$6,$7,$8,$9,0*
20,1,$1+$1,$8,$9,$2,$3,0*%
G04 Aperture macros list end*
%ADD10C,0.153000*%
%ADD11C,0.200000*%
%ADD12C,0.160000*%
%ADD13C,0.300000*%
%ADD14C,0.120000*%
%ADD15C,0.250000*%
%ADD16C,0.060000*%
%ADD17C,0.000000*%
%ADD18C,0.159999*%
%ADD19C,0.127000*%
%ADD20RoundRect,0.160000X0.210000X-0.160000X0.210000X0.160000X-0.210000X0.160000X-0.210000X-0.160000X0*%
%ADD21RoundRect,0.267985X0.489515X0.477015X-0.489515X0.477015X-0.489515X-0.477015X0.489515X-0.477015X0*%
%ADD22RoundRect,0.268750X0.481250X-0.268750X0.481250X0.268750X-0.481250X0.268750X-0.481250X-0.268750X0*%
%ADD23RoundRect,0.165000X-0.195000X0.165000X-0.195000X-0.165000X0.195000X-0.165000X0.195000X0.165000X0*%
%ADD24C,1.624000*%
%ADD25RoundRect,0.225000X0.300000X-0.225000X0.300000X0.225000X-0.300000X0.225000X-0.300000X-0.225000X0*%
%ADD26RoundRect,0.225000X-0.300000X0.225000X-0.300000X-0.225000X0.300000X-0.225000X0.300000X0.225000X0*%
%ADD27RoundRect,0.175000X0.175000X-0.612500X0.175000X0.612500X-0.175000X0.612500X-0.175000X-0.612500X0*%
%ADD28RoundRect,0.268750X-0.481250X0.268750X-0.481250X-0.268750X0.481250X-0.268750X0.481250X0.268750X0*%
%ADD29RoundRect,0.200000X-0.650000X0.200000X-0.650000X-0.200000X0.650000X-0.200000X0.650000X0.200000X0*%
%ADD30RoundRect,0.225000X-0.625000X0.225000X-0.625000X-0.225000X0.625000X-0.225000X0.625000X0.225000X0*%
%ADD31RoundRect,0.250000X-0.600000X0.250000X-0.600000X-0.250000X0.600000X-0.250000X0.600000X0.250000X0*%
%ADD32O,1.800000X1.100000*%
%ADD33RoundRect,0.225000X-0.225000X-0.300000X0.225000X-0.300000X0.225000X0.300000X-0.225000X0.300000X0*%
%ADD34RoundRect,0.100000X-0.200000X0.100000X-0.200000X-0.100000X0.200000X-0.100000X0.200000X0.100000X0*%
%ADD35RoundRect,0.225000X0.371231X0.053033X0.053033X0.371231X-0.371231X-0.053033X-0.053033X-0.371231X0*%
%ADD36RoundRect,0.102000X0.985000X0.300000X-0.985000X0.300000X-0.985000X-0.300000X0.985000X-0.300000X0*%
%ADD37RoundRect,0.102000X1.206500X1.651000X-1.206500X1.651000X-1.206500X-1.651000X1.206500X-1.651000X0*%
%ADD38RoundRect,0.267985X-0.477015X0.489515X-0.477015X-0.489515X0.477015X-0.489515X0.477015X0.489515X0*%
%ADD39C,2.100000*%
%ADD40C,2.800000*%
%ADD41O,1.624000X1.100000*%
%ADD42RoundRect,0.268750X-0.268750X-0.481250X0.268750X-0.481250X0.268750X0.481250X-0.268750X0.481250X0*%
%ADD43RoundRect,0.250000X0.275000X-0.250000X0.275000X0.250000X-0.275000X0.250000X-0.275000X-0.250000X0*%
%ADD44RoundRect,0.225000X0.225000X0.300000X-0.225000X0.300000X-0.225000X-0.300000X0.225000X-0.300000X0*%
%ADD45RoundRect,0.175000X-0.175000X0.612500X-0.175000X-0.612500X0.175000X-0.612500X0.175000X0.612500X0*%
%ADD46RoundRect,0.160000X-0.210000X0.160000X-0.210000X-0.160000X0.210000X-0.160000X0.210000X0.160000X0*%
%ADD47RoundRect,0.268750X0.268750X0.481250X-0.268750X0.481250X-0.268750X-0.481250X0.268750X-0.481250X0*%
%ADD48RoundRect,0.243750X-0.243750X-0.281250X0.243750X-0.281250X0.243750X0.281250X-0.243750X0.281250X0*%
%ADD49RoundRect,0.175000X0.175000X-0.850000X0.175000X0.850000X-0.175000X0.850000X-0.175000X-0.850000X0*%
%ADD50RoundRect,0.225000X-0.053033X0.371231X-0.371231X0.053033X0.053033X-0.371231X0.371231X-0.053033X0*%
%ADD51RoundRect,0.165000X0.165000X0.195000X-0.165000X0.195000X-0.165000X-0.195000X0.165000X-0.195000X0*%
%ADD52C,1.600000*%
%ADD53RoundRect,0.272727X0.327273X0.327273X-0.327273X0.327273X-0.327273X-0.327273X0.327273X-0.327273X0*%
%ADD54RoundRect,0.250000X0.250000X0.275000X-0.250000X0.275000X-0.250000X-0.275000X0.250000X-0.275000X0*%
%ADD55RoundRect,0.100000X0.200000X-0.100000X0.200000X0.100000X-0.200000X0.100000X-0.200000X-0.100000X0*%
%ADD56RoundRect,0.125000X-0.662500X-0.125000X0.662500X-0.125000X0.662500X0.125000X-0.662500X0.125000X0*%
%ADD57RoundRect,0.165000X0.021213X-0.254558X0.254558X-0.021213X-0.021213X0.254558X-0.254558X0.021213X0*%
%ADD58RoundRect,0.165000X-0.021213X0.254558X-0.254558X0.021213X0.021213X-0.254558X0.254558X-0.021213X0*%
%ADD59RoundRect,0.175000X-0.724784X0.477297X0.477297X-0.724784X0.724784X-0.477297X-0.477297X0.724784X0*%
%ADD60C,0.850000*%
%ADD61RoundRect,0.175000X-0.525000X0.175000X-0.525000X-0.175000X0.525000X-0.175000X0.525000X0.175000X0*%
%ADD62RoundRect,0.200000X-0.200000X0.375000X-0.200000X-0.375000X0.200000X-0.375000X0.200000X0.375000X0*%
%ADD63RoundRect,0.400000X0.650000X0.400000X-0.650000X0.400000X-0.650000X-0.400000X0.650000X-0.400000X0*%
%ADD64RoundRect,0.525000X0.525000X1.425000X-0.525000X1.425000X-0.525000X-1.425000X0.525000X-1.425000X0*%
%ADD65RoundRect,0.175000X-0.612500X-0.175000X0.612500X-0.175000X0.612500X0.175000X-0.612500X0.175000X0*%
%ADD66RoundRect,0.269231X-0.430769X-0.480769X0.430769X-0.480769X0.430769X0.480769X-0.430769X0.480769X0*%
%ADD67RoundRect,0.165000X-0.165000X-0.195000X0.165000X-0.195000X0.165000X0.195000X-0.165000X0.195000X0*%
%ADD68RoundRect,0.265625X0.584375X0.584375X-0.584375X0.584375X-0.584375X-0.584375X0.584375X-0.584375X0*%
%ADD69C,1.700000*%
%ADD70RoundRect,0.125000X-0.380070X-0.556847X0.556847X0.380070X0.380070X0.556847X-0.556847X-0.380070X0*%
%ADD71RoundRect,0.175000X-0.477297X-0.724784X0.724784X0.477297X0.477297X0.724784X-0.724784X-0.477297X0*%
%ADD72RoundRect,0.165000X0.195000X-0.165000X0.195000X0.165000X-0.195000X0.165000X-0.195000X-0.165000X0*%
%ADD73RoundRect,0.250000X-0.250000X-0.275000X0.250000X-0.275000X0.250000X0.275000X-0.250000X0.275000X0*%
%ADD74RoundRect,0.270833X0.379167X0.654167X-0.379167X0.654167X-0.379167X-0.654167X0.379167X-0.654167X0*%
%ADD75O,1.300000X1.850000*%
%ADD76RoundRect,0.187500X-0.187500X0.775000X-0.187500X-0.775000X0.187500X-0.775000X0.187500X0.775000X0*%
%ADD77RoundRect,0.125000X-0.125000X0.662500X-0.125000X-0.662500X0.125000X-0.662500X0.125000X0.662500X0*%
%ADD78RoundRect,0.050000X-2.000000X-2.000000X2.000000X-2.000000X2.000000X2.000000X-2.000000X2.000000X0*%
%ADD79RoundRect,0.165000X0.254558X0.021213X0.021213X0.254558X-0.254558X-0.021213X-0.021213X-0.254558X0*%
%ADD80RoundRect,0.175000X0.537500X0.175000X-0.537500X0.175000X-0.537500X-0.175000X0.537500X-0.175000X0*%
%ADD81RoundRect,0.137500X0.212500X0.137500X-0.212500X0.137500X-0.212500X-0.137500X0.212500X-0.137500X0*%
%ADD82RoundRect,0.175000X0.850000X0.175000X-0.850000X0.175000X-0.850000X-0.175000X0.850000X-0.175000X0*%
G04 APERTURE END LIST*
D10*
X102852219Y159325614D02*
X102852219Y146625612D01*
X97772219Y141545612D01*
X92692219Y146625612D01*
X92692219Y159325614D01*
X97772219Y164405614D01*
X102852219Y159325614D01*
X102852219Y135224538D02*
X102852219Y122524536D01*
X97772219Y117444536D01*
X92692219Y122524536D01*
X92692219Y135224538D01*
X97772219Y140304538D01*
X102852219Y135224538D01*
X121283838Y140968390D02*
X116203838Y135888390D01*
X103503838Y135888390D01*
X98423838Y140968390D01*
X103503838Y146048390D01*
X116203838Y146048390D01*
X121283838Y140968390D01*
X121285000Y116841592D02*
X116205000Y111761592D01*
X103505000Y111761592D01*
X98425000Y116841592D01*
X103505000Y121921592D01*
X116205000Y121921592D01*
X121285000Y116841592D01*
X121286592Y165100000D02*
X116206592Y160020000D01*
X103506592Y160020000D01*
X98426592Y165100000D01*
X103506592Y170180000D01*
X116206592Y170180000D01*
X121286592Y165100000D01*
X127017169Y159325614D02*
X127017169Y146625612D01*
X121937169Y141545612D01*
X116857169Y146625612D01*
X116857169Y159325614D01*
X121937169Y164405614D01*
X127017169Y159325614D01*
X127017169Y135219952D02*
X127017169Y122519950D01*
X121937169Y117439950D01*
X116857169Y122519950D01*
X116857169Y135219952D01*
X121937169Y140299952D01*
X127017169Y135219952D01*
X20253010Y78813130D02*
G75*
G02*
X10226990Y78813130I-5013010J0D01*
G01*
X10226990Y78813130D02*
G75*
G02*
X20253010Y78813130I5013010J0D01*
G01*
X20278410Y122437212D02*
G75*
G02*
X10252390Y122437212I-5013010J0D01*
G01*
X10252390Y122437212D02*
G75*
G02*
X20278410Y122437212I5013010J0D01*
G01*
X42266343Y78813130D02*
G75*
G02*
X32240323Y78813130I-5013010J0D01*
G01*
X32240323Y78813130D02*
G75*
G02*
X42266343Y78813130I5013010J0D01*
G01*
X42291743Y122437212D02*
G75*
G02*
X32265723Y122437212I-5013010J0D01*
G01*
X32265723Y122437212D02*
G75*
G02*
X42291743Y122437212I5013010J0D01*
G01*
X63542900Y26060400D02*
G75*
G02*
X31501442Y26060400I-16020729J0D01*
G01*
X31501442Y26060400D02*
G75*
G02*
X63542900Y26060400I16020729J0D01*
G01*
X64279677Y78813130D02*
G75*
G02*
X54253657Y78813130I-5013010J0D01*
G01*
X54253657Y78813130D02*
G75*
G02*
X64279677Y78813130I5013010J0D01*
G01*
X64305077Y122437212D02*
G75*
G02*
X54279057Y122437212I-5013010J0D01*
G01*
X54279057Y122437212D02*
G75*
G02*
X64305077Y122437212I5013010J0D01*
G01*
X76200000Y101600000D02*
X81280000Y101600000D01*
X81280000Y96520000D01*
X76200000Y96520000D01*
X76200000Y101600000D01*
X86251422Y122428000D02*
G75*
G02*
X76225400Y122428000I-5013011J0D01*
G01*
X76225400Y122428000D02*
G75*
G02*
X86251422Y122428000I5013011J0D01*
G01*
X81280000Y101600000D02*
X86360000Y101600000D01*
X86360000Y96520000D01*
X81280000Y96520000D01*
X81280000Y101600000D01*
X86360000Y101600000D02*
X91440000Y101600000D01*
X91440000Y96520000D01*
X86360000Y96520000D01*
X86360000Y101600000D01*
X91440000Y101600000D02*
X96520000Y101600000D01*
X96520000Y96520000D01*
X91440000Y96520000D01*
X91440000Y101600000D01*
X96520000Y101600000D02*
X101600000Y101600000D01*
X101600000Y96520000D01*
X96520000Y96520000D01*
X96520000Y101600000D01*
D11*
X116279915Y26113889D02*
G75*
G02*
X84176885Y26113889I-16051515J0D01*
G01*
X84176885Y26113889D02*
G75*
G02*
X116279915Y26113889I16051515J0D01*
G01*
D10*
X101600000Y101600000D02*
X106680000Y101600000D01*
X106680000Y96520000D01*
X101600000Y96520000D01*
X101600000Y101600000D01*
X106680000Y101600000D02*
X111760000Y101600000D01*
X111760000Y96520000D01*
X106680000Y96520000D01*
X106680000Y101600000D01*
X111760000Y101600000D02*
X116840000Y101600000D01*
X116840000Y96520000D01*
X111760000Y96520000D01*
X111760000Y101600000D01*
X116840000Y101600000D02*
X121920000Y101600000D01*
X121920000Y96520000D01*
X116840000Y96520000D01*
X116840000Y101600000D01*
X121920000Y101600000D02*
X127000000Y101600000D01*
X127000000Y96520000D01*
X121920000Y96520000D01*
X121920000Y101600000D01*
D12*
X114468691Y64662511D02*
X114611548Y64614892D01*
X114611548Y64614892D02*
X114659167Y64567273D01*
X114659167Y64567273D02*
X114706786Y64472035D01*
X114706786Y64472035D02*
X114706786Y64329178D01*
X114706786Y64329178D02*
X114659167Y64233940D01*
X114659167Y64233940D02*
X114611548Y64186320D01*
X114611548Y64186320D02*
X114516310Y64138701D01*
X114516310Y64138701D02*
X114135358Y64138701D01*
X114135358Y64138701D02*
X114135358Y65138701D01*
X114135358Y65138701D02*
X114468691Y65138701D01*
X114468691Y65138701D02*
X114563929Y65091082D01*
X114563929Y65091082D02*
X114611548Y65043463D01*
X114611548Y65043463D02*
X114659167Y64948225D01*
X114659167Y64948225D02*
X114659167Y64852987D01*
X114659167Y64852987D02*
X114611548Y64757749D01*
X114611548Y64757749D02*
X114563929Y64710130D01*
X114563929Y64710130D02*
X114468691Y64662511D01*
X114468691Y64662511D02*
X114135358Y64662511D01*
X114992501Y65138701D02*
X115563929Y65138701D01*
X115278215Y64138701D02*
X115278215Y65138701D01*
X115897263Y64138701D02*
X115897263Y65138701D01*
X115897263Y65138701D02*
X116468691Y64138701D01*
X116468691Y64138701D02*
X116468691Y65138701D01*
X117706787Y64805368D02*
X118468692Y64519654D01*
X118468692Y64519654D02*
X117706787Y64233940D01*
X126225663Y64805368D02*
X125463758Y64519654D01*
X125463758Y64519654D02*
X126225663Y64233940D01*
X127892329Y64805368D02*
X127892329Y64138701D01*
X127654234Y65186320D02*
X127416139Y64472035D01*
X127416139Y64472035D02*
X128035186Y64472035D01*
X124728514Y67791764D02*
X124391797Y67050985D01*
X124391797Y67050985D02*
X125132575Y67387702D01*
X125401949Y68801916D02*
X125401949Y68869260D01*
X125401949Y68869260D02*
X125435621Y68970275D01*
X125435621Y68970275D02*
X125603980Y69138634D01*
X125603980Y69138634D02*
X125704995Y69172305D01*
X125704995Y69172305D02*
X125772339Y69172305D01*
X125772339Y69172305D02*
X125873354Y69138634D01*
X125873354Y69138634D02*
X125940697Y69071290D01*
X125940697Y69071290D02*
X126008041Y68936603D01*
X126008041Y68936603D02*
X126008041Y68128481D01*
X126008041Y68128481D02*
X126445774Y68566214D01*
X121542700Y69973433D02*
X121542700Y70544861D01*
X121542700Y70259147D02*
X122542700Y70259147D01*
X122542700Y70259147D02*
X122399843Y70354385D01*
X122399843Y70354385D02*
X122304605Y70449623D01*
X122304605Y70449623D02*
X122256986Y70544861D01*
X122209367Y68782956D02*
X121923653Y68021051D01*
X121923653Y68021051D02*
X121637939Y68782956D01*
X117280404Y70018049D02*
X117347747Y69950705D01*
X117347747Y69950705D02*
X117381419Y69849690D01*
X117381419Y69849690D02*
X117381419Y69782347D01*
X117381419Y69782347D02*
X117347747Y69681331D01*
X117347747Y69681331D02*
X117246732Y69512973D01*
X117246732Y69512973D02*
X117078373Y69344614D01*
X117078373Y69344614D02*
X116910014Y69243599D01*
X116910014Y69243599D02*
X116808999Y69209927D01*
X116808999Y69209927D02*
X116741656Y69209927D01*
X116741656Y69209927D02*
X116640640Y69243599D01*
X116640640Y69243599D02*
X116573297Y69310942D01*
X116573297Y69310942D02*
X116539625Y69411957D01*
X116539625Y69411957D02*
X116539625Y69479301D01*
X116539625Y69479301D02*
X116573297Y69580316D01*
X116573297Y69580316D02*
X116674312Y69748675D01*
X116674312Y69748675D02*
X116842671Y69917034D01*
X116842671Y69917034D02*
X117011030Y70018049D01*
X117011030Y70018049D02*
X117112045Y70051721D01*
X117112045Y70051721D02*
X117179389Y70051721D01*
X117179389Y70051721D02*
X117280404Y70018049D01*
X117179389Y68839538D02*
X117179389Y68772194D01*
X117179389Y68772194D02*
X117112045Y68772194D01*
X117112045Y68772194D02*
X117112045Y68839538D01*
X117112045Y68839538D02*
X117179389Y68839538D01*
X117179389Y68839538D02*
X117112045Y68772194D01*
X118492587Y68805866D02*
X118155869Y69142584D01*
X118155869Y69142584D02*
X117785480Y68839538D01*
X117785480Y68839538D02*
X117852823Y68839538D01*
X117852823Y68839538D02*
X117953838Y68805866D01*
X117953838Y68805866D02*
X118122197Y68637507D01*
X118122197Y68637507D02*
X118155869Y68536492D01*
X118155869Y68536492D02*
X118155869Y68469149D01*
X118155869Y68469149D02*
X118122197Y68368133D01*
X118122197Y68368133D02*
X117953838Y68199775D01*
X117953838Y68199775D02*
X117852823Y68166103D01*
X117852823Y68166103D02*
X117785480Y68166103D01*
X117785480Y68166103D02*
X117684464Y68199775D01*
X117684464Y68199775D02*
X117516106Y68368133D01*
X117516106Y68368133D02*
X117482434Y68469149D01*
X117482434Y68469149D02*
X117482434Y68536492D01*
X119132350Y67694698D02*
X119469068Y66953920D01*
X119469068Y66953920D02*
X118728289Y67290637D01*
D11*
X3262428Y139437743D02*
X3548142Y139437743D01*
X3548142Y139437743D02*
X3690999Y139366314D01*
X3690999Y139366314D02*
X3833856Y139223457D01*
X3833856Y139223457D02*
X3905285Y138937743D01*
X3905285Y138937743D02*
X3905285Y138437743D01*
X3905285Y138437743D02*
X3833856Y138152029D01*
X3833856Y138152029D02*
X3690999Y138009171D01*
X3690999Y138009171D02*
X3548142Y137937743D01*
X3548142Y137937743D02*
X3262428Y137937743D01*
X3262428Y137937743D02*
X3119571Y138009171D01*
X3119571Y138009171D02*
X2976713Y138152029D01*
X2976713Y138152029D02*
X2905285Y138437743D01*
X2905285Y138437743D02*
X2905285Y138937743D01*
X2905285Y138937743D02*
X2976713Y139223457D01*
X2976713Y139223457D02*
X3119571Y139366314D01*
X3119571Y139366314D02*
X3262428Y139437743D01*
X4476714Y138009171D02*
X4691000Y137937743D01*
X4691000Y137937743D02*
X5048142Y137937743D01*
X5048142Y137937743D02*
X5191000Y138009171D01*
X5191000Y138009171D02*
X5262428Y138080600D01*
X5262428Y138080600D02*
X5333857Y138223457D01*
X5333857Y138223457D02*
X5333857Y138366314D01*
X5333857Y138366314D02*
X5262428Y138509171D01*
X5262428Y138509171D02*
X5191000Y138580600D01*
X5191000Y138580600D02*
X5048142Y138652029D01*
X5048142Y138652029D02*
X4762428Y138723457D01*
X4762428Y138723457D02*
X4619571Y138794886D01*
X4619571Y138794886D02*
X4548142Y138866314D01*
X4548142Y138866314D02*
X4476714Y139009171D01*
X4476714Y139009171D02*
X4476714Y139152029D01*
X4476714Y139152029D02*
X4548142Y139294886D01*
X4548142Y139294886D02*
X4619571Y139366314D01*
X4619571Y139366314D02*
X4762428Y139437743D01*
X4762428Y139437743D02*
X5119571Y139437743D01*
X5119571Y139437743D02*
X5333857Y139366314D01*
X6833856Y138080600D02*
X6762428Y138009171D01*
X6762428Y138009171D02*
X6548142Y137937743D01*
X6548142Y137937743D02*
X6405285Y137937743D01*
X6405285Y137937743D02*
X6190999Y138009171D01*
X6190999Y138009171D02*
X6048142Y138152029D01*
X6048142Y138152029D02*
X5976713Y138294886D01*
X5976713Y138294886D02*
X5905285Y138580600D01*
X5905285Y138580600D02*
X5905285Y138794886D01*
X5905285Y138794886D02*
X5976713Y139080600D01*
X5976713Y139080600D02*
X6048142Y139223457D01*
X6048142Y139223457D02*
X6190999Y139366314D01*
X6190999Y139366314D02*
X6405285Y139437743D01*
X6405285Y139437743D02*
X6548142Y139437743D01*
X6548142Y139437743D02*
X6762428Y139366314D01*
X6762428Y139366314D02*
X6833856Y139294886D01*
X25101320Y137912772D02*
X25101320Y139412772D01*
X25101320Y139412772D02*
X25672749Y139412772D01*
X25672749Y139412772D02*
X25815606Y139341343D01*
X25815606Y139341343D02*
X25887035Y139269915D01*
X25887035Y139269915D02*
X25958463Y139127058D01*
X25958463Y139127058D02*
X25958463Y138912772D01*
X25958463Y138912772D02*
X25887035Y138769915D01*
X25887035Y138769915D02*
X25815606Y138698486D01*
X25815606Y138698486D02*
X25672749Y138627058D01*
X25672749Y138627058D02*
X25101320Y138627058D01*
X26458463Y139412772D02*
X26815606Y137912772D01*
X26815606Y137912772D02*
X27101320Y138984200D01*
X27101320Y138984200D02*
X27387035Y137912772D01*
X27387035Y137912772D02*
X27744178Y139412772D01*
X28315606Y137912772D02*
X28315606Y139412772D01*
X28315606Y139412772D02*
X28815606Y138341343D01*
X28815606Y138341343D02*
X29315606Y139412772D01*
X29315606Y139412772D02*
X29315606Y137912772D01*
X35438979Y172167121D02*
X34296121Y171738549D01*
X34296121Y171738549D02*
X35438979Y171309978D01*
X37367550Y171167121D02*
X37653264Y171167121D01*
X37653264Y171167121D02*
X37796121Y171238549D01*
X37796121Y171238549D02*
X37867550Y171309978D01*
X37867550Y171309978D02*
X38010407Y171524264D01*
X38010407Y171524264D02*
X38081836Y171809978D01*
X38081836Y171809978D02*
X38081836Y172381407D01*
X38081836Y172381407D02*
X38010407Y172524264D01*
X38010407Y172524264D02*
X37938979Y172595692D01*
X37938979Y172595692D02*
X37796121Y172667121D01*
X37796121Y172667121D02*
X37510407Y172667121D01*
X37510407Y172667121D02*
X37367550Y172595692D01*
X37367550Y172595692D02*
X37296121Y172524264D01*
X37296121Y172524264D02*
X37224693Y172381407D01*
X37224693Y172381407D02*
X37224693Y172024264D01*
X37224693Y172024264D02*
X37296121Y171881407D01*
X37296121Y171881407D02*
X37367550Y171809978D01*
X37367550Y171809978D02*
X37510407Y171738549D01*
X37510407Y171738549D02*
X37796121Y171738549D01*
X37796121Y171738549D02*
X37938979Y171809978D01*
X37938979Y171809978D02*
X38010407Y171881407D01*
X38010407Y171881407D02*
X38081836Y172024264D01*
X39010407Y172667121D02*
X39153264Y172667121D01*
X39153264Y172667121D02*
X39296121Y172595692D01*
X39296121Y172595692D02*
X39367550Y172524264D01*
X39367550Y172524264D02*
X39438978Y172381407D01*
X39438978Y172381407D02*
X39510407Y172095692D01*
X39510407Y172095692D02*
X39510407Y171738549D01*
X39510407Y171738549D02*
X39438978Y171452835D01*
X39438978Y171452835D02*
X39367550Y171309978D01*
X39367550Y171309978D02*
X39296121Y171238549D01*
X39296121Y171238549D02*
X39153264Y171167121D01*
X39153264Y171167121D02*
X39010407Y171167121D01*
X39010407Y171167121D02*
X38867550Y171238549D01*
X38867550Y171238549D02*
X38796121Y171309978D01*
X38796121Y171309978D02*
X38724692Y171452835D01*
X38724692Y171452835D02*
X38653264Y171738549D01*
X38653264Y171738549D02*
X38653264Y172095692D01*
X38653264Y172095692D02*
X38724692Y172381407D01*
X38724692Y172381407D02*
X38796121Y172524264D01*
X38796121Y172524264D02*
X38867550Y172595692D01*
X38867550Y172595692D02*
X39010407Y172667121D01*
X40438978Y172667121D02*
X40581835Y172667121D01*
X40581835Y172667121D02*
X40724692Y172595692D01*
X40724692Y172595692D02*
X40796121Y172524264D01*
X40796121Y172524264D02*
X40867549Y172381407D01*
X40867549Y172381407D02*
X40938978Y172095692D01*
X40938978Y172095692D02*
X40938978Y171738549D01*
X40938978Y171738549D02*
X40867549Y171452835D01*
X40867549Y171452835D02*
X40796121Y171309978D01*
X40796121Y171309978D02*
X40724692Y171238549D01*
X40724692Y171238549D02*
X40581835Y171167121D01*
X40581835Y171167121D02*
X40438978Y171167121D01*
X40438978Y171167121D02*
X40296121Y171238549D01*
X40296121Y171238549D02*
X40224692Y171309978D01*
X40224692Y171309978D02*
X40153263Y171452835D01*
X40153263Y171452835D02*
X40081835Y171738549D01*
X40081835Y171738549D02*
X40081835Y172095692D01*
X40081835Y172095692D02*
X40153263Y172381407D01*
X40153263Y172381407D02*
X40224692Y172524264D01*
X40224692Y172524264D02*
X40296121Y172595692D01*
X40296121Y172595692D02*
X40438978Y172667121D01*
X42724691Y171167121D02*
X42724691Y172167121D01*
X42724691Y172024264D02*
X42796120Y172095692D01*
X42796120Y172095692D02*
X42938977Y172167121D01*
X42938977Y172167121D02*
X43153263Y172167121D01*
X43153263Y172167121D02*
X43296120Y172095692D01*
X43296120Y172095692D02*
X43367549Y171952835D01*
X43367549Y171952835D02*
X43367549Y171167121D01*
X43367549Y171952835D02*
X43438977Y172095692D01*
X43438977Y172095692D02*
X43581834Y172167121D01*
X43581834Y172167121D02*
X43796120Y172167121D01*
X43796120Y172167121D02*
X43938977Y172095692D01*
X43938977Y172095692D02*
X44010406Y171952835D01*
X44010406Y171952835D02*
X44010406Y171167121D01*
X44653263Y171595692D02*
X45367549Y171595692D01*
X44510406Y171167121D02*
X45010406Y172667121D01*
X45010406Y172667121D02*
X45510406Y171167121D01*
X35438979Y169752205D02*
X34296121Y169323633D01*
X34296121Y169323633D02*
X35438979Y168895062D01*
X38010407Y170252205D02*
X37296121Y170252205D01*
X37296121Y170252205D02*
X37224693Y169537919D01*
X37224693Y169537919D02*
X37296121Y169609348D01*
X37296121Y169609348D02*
X37438979Y169680776D01*
X37438979Y169680776D02*
X37796121Y169680776D01*
X37796121Y169680776D02*
X37938979Y169609348D01*
X37938979Y169609348D02*
X38010407Y169537919D01*
X38010407Y169537919D02*
X38081836Y169395062D01*
X38081836Y169395062D02*
X38081836Y169037919D01*
X38081836Y169037919D02*
X38010407Y168895062D01*
X38010407Y168895062D02*
X37938979Y168823633D01*
X37938979Y168823633D02*
X37796121Y168752205D01*
X37796121Y168752205D02*
X37438979Y168752205D01*
X37438979Y168752205D02*
X37296121Y168823633D01*
X37296121Y168823633D02*
X37224693Y168895062D01*
X38938978Y169609348D02*
X38796121Y169680776D01*
X38796121Y169680776D02*
X38724692Y169752205D01*
X38724692Y169752205D02*
X38653264Y169895062D01*
X38653264Y169895062D02*
X38653264Y169966491D01*
X38653264Y169966491D02*
X38724692Y170109348D01*
X38724692Y170109348D02*
X38796121Y170180776D01*
X38796121Y170180776D02*
X38938978Y170252205D01*
X38938978Y170252205D02*
X39224692Y170252205D01*
X39224692Y170252205D02*
X39367550Y170180776D01*
X39367550Y170180776D02*
X39438978Y170109348D01*
X39438978Y170109348D02*
X39510407Y169966491D01*
X39510407Y169966491D02*
X39510407Y169895062D01*
X39510407Y169895062D02*
X39438978Y169752205D01*
X39438978Y169752205D02*
X39367550Y169680776D01*
X39367550Y169680776D02*
X39224692Y169609348D01*
X39224692Y169609348D02*
X38938978Y169609348D01*
X38938978Y169609348D02*
X38796121Y169537919D01*
X38796121Y169537919D02*
X38724692Y169466491D01*
X38724692Y169466491D02*
X38653264Y169323633D01*
X38653264Y169323633D02*
X38653264Y169037919D01*
X38653264Y169037919D02*
X38724692Y168895062D01*
X38724692Y168895062D02*
X38796121Y168823633D01*
X38796121Y168823633D02*
X38938978Y168752205D01*
X38938978Y168752205D02*
X39224692Y168752205D01*
X39224692Y168752205D02*
X39367550Y168823633D01*
X39367550Y168823633D02*
X39438978Y168895062D01*
X39438978Y168895062D02*
X39510407Y169037919D01*
X39510407Y169037919D02*
X39510407Y169323633D01*
X39510407Y169323633D02*
X39438978Y169466491D01*
X39438978Y169466491D02*
X39367550Y169537919D01*
X39367550Y169537919D02*
X39224692Y169609348D01*
X40438978Y170252205D02*
X40581835Y170252205D01*
X40581835Y170252205D02*
X40724692Y170180776D01*
X40724692Y170180776D02*
X40796121Y170109348D01*
X40796121Y170109348D02*
X40867549Y169966491D01*
X40867549Y169966491D02*
X40938978Y169680776D01*
X40938978Y169680776D02*
X40938978Y169323633D01*
X40938978Y169323633D02*
X40867549Y169037919D01*
X40867549Y169037919D02*
X40796121Y168895062D01*
X40796121Y168895062D02*
X40724692Y168823633D01*
X40724692Y168823633D02*
X40581835Y168752205D01*
X40581835Y168752205D02*
X40438978Y168752205D01*
X40438978Y168752205D02*
X40296121Y168823633D01*
X40296121Y168823633D02*
X40224692Y168895062D01*
X40224692Y168895062D02*
X40153263Y169037919D01*
X40153263Y169037919D02*
X40081835Y169323633D01*
X40081835Y169323633D02*
X40081835Y169680776D01*
X40081835Y169680776D02*
X40153263Y169966491D01*
X40153263Y169966491D02*
X40224692Y170109348D01*
X40224692Y170109348D02*
X40296121Y170180776D01*
X40296121Y170180776D02*
X40438978Y170252205D01*
X42724691Y168752205D02*
X42724691Y169752205D01*
X42724691Y169609348D02*
X42796120Y169680776D01*
X42796120Y169680776D02*
X42938977Y169752205D01*
X42938977Y169752205D02*
X43153263Y169752205D01*
X43153263Y169752205D02*
X43296120Y169680776D01*
X43296120Y169680776D02*
X43367549Y169537919D01*
X43367549Y169537919D02*
X43367549Y168752205D01*
X43367549Y169537919D02*
X43438977Y169680776D01*
X43438977Y169680776D02*
X43581834Y169752205D01*
X43581834Y169752205D02*
X43796120Y169752205D01*
X43796120Y169752205D02*
X43938977Y169680776D01*
X43938977Y169680776D02*
X44010406Y169537919D01*
X44010406Y169537919D02*
X44010406Y168752205D01*
X44653263Y169180776D02*
X45367549Y169180776D01*
X44510406Y168752205D02*
X45010406Y170252205D01*
X45010406Y170252205D02*
X45510406Y168752205D01*
X35438979Y167337289D02*
X34296121Y166908717D01*
X34296121Y166908717D02*
X35438979Y166480146D01*
X37153264Y167837289D02*
X38081836Y167837289D01*
X38081836Y167837289D02*
X37581836Y167265860D01*
X37581836Y167265860D02*
X37796121Y167265860D01*
X37796121Y167265860D02*
X37938979Y167194432D01*
X37938979Y167194432D02*
X38010407Y167123003D01*
X38010407Y167123003D02*
X38081836Y166980146D01*
X38081836Y166980146D02*
X38081836Y166623003D01*
X38081836Y166623003D02*
X38010407Y166480146D01*
X38010407Y166480146D02*
X37938979Y166408717D01*
X37938979Y166408717D02*
X37796121Y166337289D01*
X37796121Y166337289D02*
X37367550Y166337289D01*
X37367550Y166337289D02*
X37224693Y166408717D01*
X37224693Y166408717D02*
X37153264Y166480146D01*
X39010407Y167837289D02*
X39153264Y167837289D01*
X39153264Y167837289D02*
X39296121Y167765860D01*
X39296121Y167765860D02*
X39367550Y167694432D01*
X39367550Y167694432D02*
X39438978Y167551575D01*
X39438978Y167551575D02*
X39510407Y167265860D01*
X39510407Y167265860D02*
X39510407Y166908717D01*
X39510407Y166908717D02*
X39438978Y166623003D01*
X39438978Y166623003D02*
X39367550Y166480146D01*
X39367550Y166480146D02*
X39296121Y166408717D01*
X39296121Y166408717D02*
X39153264Y166337289D01*
X39153264Y166337289D02*
X39010407Y166337289D01*
X39010407Y166337289D02*
X38867550Y166408717D01*
X38867550Y166408717D02*
X38796121Y166480146D01*
X38796121Y166480146D02*
X38724692Y166623003D01*
X38724692Y166623003D02*
X38653264Y166908717D01*
X38653264Y166908717D02*
X38653264Y167265860D01*
X38653264Y167265860D02*
X38724692Y167551575D01*
X38724692Y167551575D02*
X38796121Y167694432D01*
X38796121Y167694432D02*
X38867550Y167765860D01*
X38867550Y167765860D02*
X39010407Y167837289D01*
X40438978Y167837289D02*
X40581835Y167837289D01*
X40581835Y167837289D02*
X40724692Y167765860D01*
X40724692Y167765860D02*
X40796121Y167694432D01*
X40796121Y167694432D02*
X40867549Y167551575D01*
X40867549Y167551575D02*
X40938978Y167265860D01*
X40938978Y167265860D02*
X40938978Y166908717D01*
X40938978Y166908717D02*
X40867549Y166623003D01*
X40867549Y166623003D02*
X40796121Y166480146D01*
X40796121Y166480146D02*
X40724692Y166408717D01*
X40724692Y166408717D02*
X40581835Y166337289D01*
X40581835Y166337289D02*
X40438978Y166337289D01*
X40438978Y166337289D02*
X40296121Y166408717D01*
X40296121Y166408717D02*
X40224692Y166480146D01*
X40224692Y166480146D02*
X40153263Y166623003D01*
X40153263Y166623003D02*
X40081835Y166908717D01*
X40081835Y166908717D02*
X40081835Y167265860D01*
X40081835Y167265860D02*
X40153263Y167551575D01*
X40153263Y167551575D02*
X40224692Y167694432D01*
X40224692Y167694432D02*
X40296121Y167765860D01*
X40296121Y167765860D02*
X40438978Y167837289D01*
X42724691Y166337289D02*
X42724691Y167337289D01*
X42724691Y167194432D02*
X42796120Y167265860D01*
X42796120Y167265860D02*
X42938977Y167337289D01*
X42938977Y167337289D02*
X43153263Y167337289D01*
X43153263Y167337289D02*
X43296120Y167265860D01*
X43296120Y167265860D02*
X43367549Y167123003D01*
X43367549Y167123003D02*
X43367549Y166337289D01*
X43367549Y167123003D02*
X43438977Y167265860D01*
X43438977Y167265860D02*
X43581834Y167337289D01*
X43581834Y167337289D02*
X43796120Y167337289D01*
X43796120Y167337289D02*
X43938977Y167265860D01*
X43938977Y167265860D02*
X44010406Y167123003D01*
X44010406Y167123003D02*
X44010406Y166337289D01*
X44653263Y166765860D02*
X45367549Y166765860D01*
X44510406Y166337289D02*
X45010406Y167837289D01*
X45010406Y167837289D02*
X45510406Y166337289D01*
X35438979Y164922373D02*
X34296121Y164493801D01*
X34296121Y164493801D02*
X35438979Y164065230D01*
X38081836Y163922373D02*
X37224693Y163922373D01*
X37653264Y163922373D02*
X37653264Y165422373D01*
X37653264Y165422373D02*
X37510407Y165208087D01*
X37510407Y165208087D02*
X37367550Y165065230D01*
X37367550Y165065230D02*
X37224693Y164993801D01*
X38581835Y165422373D02*
X39510407Y165422373D01*
X39510407Y165422373D02*
X39010407Y164850944D01*
X39010407Y164850944D02*
X39224692Y164850944D01*
X39224692Y164850944D02*
X39367550Y164779516D01*
X39367550Y164779516D02*
X39438978Y164708087D01*
X39438978Y164708087D02*
X39510407Y164565230D01*
X39510407Y164565230D02*
X39510407Y164208087D01*
X39510407Y164208087D02*
X39438978Y164065230D01*
X39438978Y164065230D02*
X39367550Y163993801D01*
X39367550Y163993801D02*
X39224692Y163922373D01*
X39224692Y163922373D02*
X38796121Y163922373D01*
X38796121Y163922373D02*
X38653264Y163993801D01*
X38653264Y163993801D02*
X38581835Y164065230D01*
X40438978Y165422373D02*
X40581835Y165422373D01*
X40581835Y165422373D02*
X40724692Y165350944D01*
X40724692Y165350944D02*
X40796121Y165279516D01*
X40796121Y165279516D02*
X40867549Y165136659D01*
X40867549Y165136659D02*
X40938978Y164850944D01*
X40938978Y164850944D02*
X40938978Y164493801D01*
X40938978Y164493801D02*
X40867549Y164208087D01*
X40867549Y164208087D02*
X40796121Y164065230D01*
X40796121Y164065230D02*
X40724692Y163993801D01*
X40724692Y163993801D02*
X40581835Y163922373D01*
X40581835Y163922373D02*
X40438978Y163922373D01*
X40438978Y163922373D02*
X40296121Y163993801D01*
X40296121Y163993801D02*
X40224692Y164065230D01*
X40224692Y164065230D02*
X40153263Y164208087D01*
X40153263Y164208087D02*
X40081835Y164493801D01*
X40081835Y164493801D02*
X40081835Y164850944D01*
X40081835Y164850944D02*
X40153263Y165136659D01*
X40153263Y165136659D02*
X40224692Y165279516D01*
X40224692Y165279516D02*
X40296121Y165350944D01*
X40296121Y165350944D02*
X40438978Y165422373D01*
X42724691Y163922373D02*
X42724691Y164922373D01*
X42724691Y164779516D02*
X42796120Y164850944D01*
X42796120Y164850944D02*
X42938977Y164922373D01*
X42938977Y164922373D02*
X43153263Y164922373D01*
X43153263Y164922373D02*
X43296120Y164850944D01*
X43296120Y164850944D02*
X43367549Y164708087D01*
X43367549Y164708087D02*
X43367549Y163922373D01*
X43367549Y164708087D02*
X43438977Y164850944D01*
X43438977Y164850944D02*
X43581834Y164922373D01*
X43581834Y164922373D02*
X43796120Y164922373D01*
X43796120Y164922373D02*
X43938977Y164850944D01*
X43938977Y164850944D02*
X44010406Y164708087D01*
X44010406Y164708087D02*
X44010406Y163922373D01*
X44653263Y164350944D02*
X45367549Y164350944D01*
X44510406Y163922373D02*
X45010406Y165422373D01*
X45010406Y165422373D02*
X45510406Y163922373D01*
X84515006Y114239972D02*
X83800720Y114239972D01*
X83800720Y114239972D02*
X83800720Y115739972D01*
X85015006Y115025686D02*
X85515006Y115025686D01*
X85729292Y114239972D02*
X85015006Y114239972D01*
X85015006Y114239972D02*
X85015006Y115739972D01*
X85015006Y115739972D02*
X85729292Y115739972D01*
X86372149Y114239972D02*
X86372149Y115739972D01*
X86372149Y115739972D02*
X86729292Y115739972D01*
X86729292Y115739972D02*
X86943578Y115668543D01*
X86943578Y115668543D02*
X87086435Y115525686D01*
X87086435Y115525686D02*
X87157864Y115382829D01*
X87157864Y115382829D02*
X87229292Y115097115D01*
X87229292Y115097115D02*
X87229292Y114882829D01*
X87229292Y114882829D02*
X87157864Y114597115D01*
X87157864Y114597115D02*
X87086435Y114454258D01*
X87086435Y114454258D02*
X86943578Y114311400D01*
X86943578Y114311400D02*
X86729292Y114239972D01*
X86729292Y114239972D02*
X86372149Y114239972D01*
X86721578Y69547288D02*
X85578720Y69118716D01*
X85578720Y69118716D02*
X86721578Y68690145D01*
X88578720Y68547288D02*
X88578720Y70047288D01*
X88578720Y70047288D02*
X88935863Y70047288D01*
X88935863Y70047288D02*
X89150149Y69975859D01*
X89150149Y69975859D02*
X89293006Y69833002D01*
X89293006Y69833002D02*
X89364435Y69690145D01*
X89364435Y69690145D02*
X89435863Y69404431D01*
X89435863Y69404431D02*
X89435863Y69190145D01*
X89435863Y69190145D02*
X89364435Y68904431D01*
X89364435Y68904431D02*
X89293006Y68761574D01*
X89293006Y68761574D02*
X89150149Y68618716D01*
X89150149Y68618716D02*
X88935863Y68547288D01*
X88935863Y68547288D02*
X88578720Y68547288D01*
X90078720Y68547288D02*
X90078720Y69547288D01*
X90078720Y70047288D02*
X90007292Y69975859D01*
X90007292Y69975859D02*
X90078720Y69904431D01*
X90078720Y69904431D02*
X90150149Y69975859D01*
X90150149Y69975859D02*
X90078720Y70047288D01*
X90078720Y70047288D02*
X90078720Y69904431D01*
X91435864Y69547288D02*
X91435864Y68333002D01*
X91435864Y68333002D02*
X91364435Y68190145D01*
X91364435Y68190145D02*
X91293006Y68118716D01*
X91293006Y68118716D02*
X91150149Y68047288D01*
X91150149Y68047288D02*
X90935864Y68047288D01*
X90935864Y68047288D02*
X90793006Y68118716D01*
X91435864Y68618716D02*
X91293006Y68547288D01*
X91293006Y68547288D02*
X91007292Y68547288D01*
X91007292Y68547288D02*
X90864435Y68618716D01*
X90864435Y68618716D02*
X90793006Y68690145D01*
X90793006Y68690145D02*
X90721578Y68833002D01*
X90721578Y68833002D02*
X90721578Y69261574D01*
X90721578Y69261574D02*
X90793006Y69404431D01*
X90793006Y69404431D02*
X90864435Y69475859D01*
X90864435Y69475859D02*
X91007292Y69547288D01*
X91007292Y69547288D02*
X91293006Y69547288D01*
X91293006Y69547288D02*
X91435864Y69475859D01*
X92150149Y68547288D02*
X92150149Y69547288D01*
X92150149Y70047288D02*
X92078721Y69975859D01*
X92078721Y69975859D02*
X92150149Y69904431D01*
X92150149Y69904431D02*
X92221578Y69975859D01*
X92221578Y69975859D02*
X92150149Y70047288D01*
X92150149Y70047288D02*
X92150149Y69904431D01*
X92650150Y69547288D02*
X93221578Y69547288D01*
X92864435Y70047288D02*
X92864435Y68761574D01*
X92864435Y68761574D02*
X92935864Y68618716D01*
X92935864Y68618716D02*
X93078721Y68547288D01*
X93078721Y68547288D02*
X93221578Y68547288D01*
X93650150Y68618716D02*
X93793007Y68547288D01*
X93793007Y68547288D02*
X94078721Y68547288D01*
X94078721Y68547288D02*
X94221578Y68618716D01*
X94221578Y68618716D02*
X94293007Y68761574D01*
X94293007Y68761574D02*
X94293007Y68833002D01*
X94293007Y68833002D02*
X94221578Y68975859D01*
X94221578Y68975859D02*
X94078721Y69047288D01*
X94078721Y69047288D02*
X93864436Y69047288D01*
X93864436Y69047288D02*
X93721578Y69118716D01*
X93721578Y69118716D02*
X93650150Y69261574D01*
X93650150Y69261574D02*
X93650150Y69333002D01*
X93650150Y69333002D02*
X93721578Y69475859D01*
X93721578Y69475859D02*
X93864436Y69547288D01*
X93864436Y69547288D02*
X94078721Y69547288D01*
X94078721Y69547288D02*
X94221578Y69475859D01*
X86721578Y67132372D02*
X85578720Y66703800D01*
X85578720Y66703800D02*
X86721578Y66275229D01*
X89078720Y66918086D02*
X89293006Y66846658D01*
X89293006Y66846658D02*
X89364435Y66775229D01*
X89364435Y66775229D02*
X89435863Y66632372D01*
X89435863Y66632372D02*
X89435863Y66418086D01*
X89435863Y66418086D02*
X89364435Y66275229D01*
X89364435Y66275229D02*
X89293006Y66203800D01*
X89293006Y66203800D02*
X89150149Y66132372D01*
X89150149Y66132372D02*
X88578720Y66132372D01*
X88578720Y66132372D02*
X88578720Y67632372D01*
X88578720Y67632372D02*
X89078720Y67632372D01*
X89078720Y67632372D02*
X89221578Y67560943D01*
X89221578Y67560943D02*
X89293006Y67489515D01*
X89293006Y67489515D02*
X89364435Y67346658D01*
X89364435Y67346658D02*
X89364435Y67203800D01*
X89364435Y67203800D02*
X89293006Y67060943D01*
X89293006Y67060943D02*
X89221578Y66989515D01*
X89221578Y66989515D02*
X89078720Y66918086D01*
X89078720Y66918086D02*
X88578720Y66918086D01*
X90721578Y66132372D02*
X90721578Y66918086D01*
X90721578Y66918086D02*
X90650149Y67060943D01*
X90650149Y67060943D02*
X90507292Y67132372D01*
X90507292Y67132372D02*
X90221578Y67132372D01*
X90221578Y67132372D02*
X90078720Y67060943D01*
X90721578Y66203800D02*
X90578720Y66132372D01*
X90578720Y66132372D02*
X90221578Y66132372D01*
X90221578Y66132372D02*
X90078720Y66203800D01*
X90078720Y66203800D02*
X90007292Y66346658D01*
X90007292Y66346658D02*
X90007292Y66489515D01*
X90007292Y66489515D02*
X90078720Y66632372D01*
X90078720Y66632372D02*
X90221578Y66703800D01*
X90221578Y66703800D02*
X90578720Y66703800D01*
X90578720Y66703800D02*
X90721578Y66775229D01*
X91435863Y66132372D02*
X91435863Y67132372D01*
X91435863Y66846658D02*
X91507292Y66989515D01*
X91507292Y66989515D02*
X91578721Y67060943D01*
X91578721Y67060943D02*
X91721578Y67132372D01*
X91721578Y67132372D02*
X91864435Y67132372D01*
X86721578Y61417372D02*
X85578720Y60988800D01*
X85578720Y60988800D02*
X86721578Y60560229D01*
X89293006Y60417372D02*
X88578720Y60417372D01*
X88578720Y60417372D02*
X88578720Y61917372D01*
X89793006Y61203086D02*
X90293006Y61203086D01*
X90507292Y60417372D02*
X89793006Y60417372D01*
X89793006Y60417372D02*
X89793006Y61917372D01*
X89793006Y61917372D02*
X90507292Y61917372D01*
X91150149Y60417372D02*
X91150149Y61917372D01*
X91150149Y61917372D02*
X91507292Y61917372D01*
X91507292Y61917372D02*
X91721578Y61845943D01*
X91721578Y61845943D02*
X91864435Y61703086D01*
X91864435Y61703086D02*
X91935864Y61560229D01*
X91935864Y61560229D02*
X92007292Y61274515D01*
X92007292Y61274515D02*
X92007292Y61060229D01*
X92007292Y61060229D02*
X91935864Y60774515D01*
X91935864Y60774515D02*
X91864435Y60631658D01*
X91864435Y60631658D02*
X91721578Y60488800D01*
X91721578Y60488800D02*
X91507292Y60417372D01*
X91507292Y60417372D02*
X91150149Y60417372D01*
X20755757Y26907043D02*
X20612900Y26978472D01*
X20612900Y26978472D02*
X20398614Y26978472D01*
X20398614Y26978472D02*
X20184328Y26907043D01*
X20184328Y26907043D02*
X20041471Y26764186D01*
X20041471Y26764186D02*
X19970042Y26621329D01*
X19970042Y26621329D02*
X19898614Y26335615D01*
X19898614Y26335615D02*
X19898614Y26121329D01*
X19898614Y26121329D02*
X19970042Y25835615D01*
X19970042Y25835615D02*
X20041471Y25692758D01*
X20041471Y25692758D02*
X20184328Y25549900D01*
X20184328Y25549900D02*
X20398614Y25478472D01*
X20398614Y25478472D02*
X20541471Y25478472D01*
X20541471Y25478472D02*
X20755757Y25549900D01*
X20755757Y25549900D02*
X20827185Y25621329D01*
X20827185Y25621329D02*
X20827185Y26121329D01*
X20827185Y26121329D02*
X20541471Y26121329D01*
X20470042Y13843586D02*
X20684328Y13772158D01*
X20684328Y13772158D02*
X20755757Y13700729D01*
X20755757Y13700729D02*
X20827185Y13557872D01*
X20827185Y13557872D02*
X20827185Y13343586D01*
X20827185Y13343586D02*
X20755757Y13200729D01*
X20755757Y13200729D02*
X20684328Y13129300D01*
X20684328Y13129300D02*
X20541471Y13057872D01*
X20541471Y13057872D02*
X19970042Y13057872D01*
X19970042Y13057872D02*
X19970042Y14557872D01*
X19970042Y14557872D02*
X20470042Y14557872D01*
X20470042Y14557872D02*
X20612900Y14486443D01*
X20612900Y14486443D02*
X20684328Y14415015D01*
X20684328Y14415015D02*
X20755757Y14272158D01*
X20755757Y14272158D02*
X20755757Y14129300D01*
X20755757Y14129300D02*
X20684328Y13986443D01*
X20684328Y13986443D02*
X20612900Y13915015D01*
X20612900Y13915015D02*
X20470042Y13843586D01*
X20470042Y13843586D02*
X19970042Y13843586D01*
X20852585Y37822872D02*
X20352585Y38537158D01*
X19995442Y37822872D02*
X19995442Y39322872D01*
X19995442Y39322872D02*
X20566871Y39322872D01*
X20566871Y39322872D02*
X20709728Y39251443D01*
X20709728Y39251443D02*
X20781157Y39180015D01*
X20781157Y39180015D02*
X20852585Y39037158D01*
X20852585Y39037158D02*
X20852585Y38822872D01*
X20852585Y38822872D02*
X20781157Y38680015D01*
X20781157Y38680015D02*
X20709728Y38608586D01*
X20709728Y38608586D02*
X20566871Y38537158D01*
X20566871Y38537158D02*
X19995442Y38537158D01*
X51821685Y24665672D02*
X51321685Y25379958D01*
X50964542Y24665672D02*
X50964542Y26165672D01*
X50964542Y26165672D02*
X51535971Y26165672D01*
X51535971Y26165672D02*
X51678828Y26094243D01*
X51678828Y26094243D02*
X51750257Y26022815D01*
X51750257Y26022815D02*
X51821685Y25879958D01*
X51821685Y25879958D02*
X51821685Y25665672D01*
X51821685Y25665672D02*
X51750257Y25522815D01*
X51750257Y25522815D02*
X51678828Y25451386D01*
X51678828Y25451386D02*
X51535971Y25379958D01*
X51535971Y25379958D02*
X50964542Y25379958D01*
X53250257Y26094243D02*
X53107400Y26165672D01*
X53107400Y26165672D02*
X52893114Y26165672D01*
X52893114Y26165672D02*
X52678828Y26094243D01*
X52678828Y26094243D02*
X52535971Y25951386D01*
X52535971Y25951386D02*
X52464542Y25808529D01*
X52464542Y25808529D02*
X52393114Y25522815D01*
X52393114Y25522815D02*
X52393114Y25308529D01*
X52393114Y25308529D02*
X52464542Y25022815D01*
X52464542Y25022815D02*
X52535971Y24879958D01*
X52535971Y24879958D02*
X52678828Y24737100D01*
X52678828Y24737100D02*
X52893114Y24665672D01*
X52893114Y24665672D02*
X53035971Y24665672D01*
X53035971Y24665672D02*
X53250257Y24737100D01*
X53250257Y24737100D02*
X53321685Y24808529D01*
X53321685Y24808529D02*
X53321685Y25308529D01*
X53321685Y25308529D02*
X53035971Y25308529D01*
X54464542Y25451386D02*
X54678828Y25379958D01*
X54678828Y25379958D02*
X54750257Y25308529D01*
X54750257Y25308529D02*
X54821685Y25165672D01*
X54821685Y25165672D02*
X54821685Y24951386D01*
X54821685Y24951386D02*
X54750257Y24808529D01*
X54750257Y24808529D02*
X54678828Y24737100D01*
X54678828Y24737100D02*
X54535971Y24665672D01*
X54535971Y24665672D02*
X53964542Y24665672D01*
X53964542Y24665672D02*
X53964542Y26165672D01*
X53964542Y26165672D02*
X54464542Y26165672D01*
X54464542Y26165672D02*
X54607400Y26094243D01*
X54607400Y26094243D02*
X54678828Y26022815D01*
X54678828Y26022815D02*
X54750257Y25879958D01*
X54750257Y25879958D02*
X54750257Y25737100D01*
X54750257Y25737100D02*
X54678828Y25594243D01*
X54678828Y25594243D02*
X54607400Y25522815D01*
X54607400Y25522815D02*
X54464542Y25451386D01*
X54464542Y25451386D02*
X53964542Y25451386D01*
X99232399Y21666786D02*
X99446685Y21595358D01*
X99446685Y21595358D02*
X99518114Y21523929D01*
X99518114Y21523929D02*
X99589542Y21381072D01*
X99589542Y21381072D02*
X99589542Y21166786D01*
X99589542Y21166786D02*
X99518114Y21023929D01*
X99518114Y21023929D02*
X99446685Y20952500D01*
X99446685Y20952500D02*
X99303828Y20881072D01*
X99303828Y20881072D02*
X98732399Y20881072D01*
X98732399Y20881072D02*
X98732399Y22381072D01*
X98732399Y22381072D02*
X99232399Y22381072D01*
X99232399Y22381072D02*
X99375257Y22309643D01*
X99375257Y22309643D02*
X99446685Y22238215D01*
X99446685Y22238215D02*
X99518114Y22095358D01*
X99518114Y22095358D02*
X99518114Y21952500D01*
X99518114Y21952500D02*
X99446685Y21809643D01*
X99446685Y21809643D02*
X99375257Y21738215D01*
X99375257Y21738215D02*
X99232399Y21666786D01*
X99232399Y21666786D02*
X98732399Y21666786D01*
X100018114Y22381072D02*
X100875257Y22381072D01*
X100446685Y20881072D02*
X100446685Y22381072D01*
X101375256Y20881072D02*
X101375256Y22381072D01*
X101375256Y22381072D02*
X102232399Y20881072D01*
X102232399Y20881072D02*
X102232399Y22381072D01*
D13*
X18496453Y71980972D02*
X18853596Y70480972D01*
X18853596Y70480972D02*
X19139310Y71552400D01*
X19139310Y71552400D02*
X19425025Y70480972D01*
X19425025Y70480972D02*
X19782168Y71980972D01*
X20353596Y70480972D02*
X20353596Y71480972D01*
X20353596Y71980972D02*
X20282168Y71909543D01*
X20282168Y71909543D02*
X20353596Y71838115D01*
X20353596Y71838115D02*
X20425025Y71909543D01*
X20425025Y71909543D02*
X20353596Y71980972D01*
X20353596Y71980972D02*
X20353596Y71838115D01*
X21067882Y70480972D02*
X21067882Y71480972D01*
X21067882Y71195258D02*
X21139311Y71338115D01*
X21139311Y71338115D02*
X21210740Y71409543D01*
X21210740Y71409543D02*
X21353597Y71480972D01*
X21353597Y71480972D02*
X21496454Y71480972D01*
X22567882Y70552400D02*
X22425025Y70480972D01*
X22425025Y70480972D02*
X22139311Y70480972D01*
X22139311Y70480972D02*
X21996453Y70552400D01*
X21996453Y70552400D02*
X21925025Y70695258D01*
X21925025Y70695258D02*
X21925025Y71266686D01*
X21925025Y71266686D02*
X21996453Y71409543D01*
X21996453Y71409543D02*
X22139311Y71480972D01*
X22139311Y71480972D02*
X22425025Y71480972D01*
X22425025Y71480972D02*
X22567882Y71409543D01*
X22567882Y71409543D02*
X22639311Y71266686D01*
X22639311Y71266686D02*
X22639311Y71123829D01*
X22639311Y71123829D02*
X21925025Y70980972D01*
X18740910Y113914972D02*
X18740910Y115414972D01*
X19598053Y113914972D02*
X18955196Y114772115D01*
X19598053Y115414972D02*
X18740910Y114557829D01*
X20812339Y113986400D02*
X20669482Y113914972D01*
X20669482Y113914972D02*
X20383768Y113914972D01*
X20383768Y113914972D02*
X20240910Y113986400D01*
X20240910Y113986400D02*
X20169482Y114129258D01*
X20169482Y114129258D02*
X20169482Y114700686D01*
X20169482Y114700686D02*
X20240910Y114843543D01*
X20240910Y114843543D02*
X20383768Y114914972D01*
X20383768Y114914972D02*
X20669482Y114914972D01*
X20669482Y114914972D02*
X20812339Y114843543D01*
X20812339Y114843543D02*
X20883768Y114700686D01*
X20883768Y114700686D02*
X20883768Y114557829D01*
X20883768Y114557829D02*
X20169482Y114414972D01*
X21383767Y114914972D02*
X21740910Y113914972D01*
X22098053Y114914972D02*
X21740910Y113914972D01*
X21740910Y113914972D02*
X21598053Y113557829D01*
X21598053Y113557829D02*
X21526624Y113486400D01*
X21526624Y113486400D02*
X21383767Y113414972D01*
X41442053Y113914972D02*
X40942053Y114629258D01*
X40584910Y113914972D02*
X40584910Y115414972D01*
X40584910Y115414972D02*
X41156339Y115414972D01*
X41156339Y115414972D02*
X41299196Y115343543D01*
X41299196Y115343543D02*
X41370625Y115272115D01*
X41370625Y115272115D02*
X41442053Y115129258D01*
X41442053Y115129258D02*
X41442053Y114914972D01*
X41442053Y114914972D02*
X41370625Y114772115D01*
X41370625Y114772115D02*
X41299196Y114700686D01*
X41299196Y114700686D02*
X41156339Y114629258D01*
X41156339Y114629258D02*
X40584910Y114629258D01*
X42299196Y113914972D02*
X42156339Y113986400D01*
X42156339Y113986400D02*
X42084910Y114057829D01*
X42084910Y114057829D02*
X42013482Y114200686D01*
X42013482Y114200686D02*
X42013482Y114629258D01*
X42013482Y114629258D02*
X42084910Y114772115D01*
X42084910Y114772115D02*
X42156339Y114843543D01*
X42156339Y114843543D02*
X42299196Y114914972D01*
X42299196Y114914972D02*
X42513482Y114914972D01*
X42513482Y114914972D02*
X42656339Y114843543D01*
X42656339Y114843543D02*
X42727768Y114772115D01*
X42727768Y114772115D02*
X42799196Y114629258D01*
X42799196Y114629258D02*
X42799196Y114200686D01*
X42799196Y114200686D02*
X42727768Y114057829D01*
X42727768Y114057829D02*
X42656339Y113986400D01*
X42656339Y113986400D02*
X42513482Y113914972D01*
X42513482Y113914972D02*
X42299196Y113914972D01*
X44084911Y113986400D02*
X43942053Y113914972D01*
X43942053Y113914972D02*
X43656339Y113914972D01*
X43656339Y113914972D02*
X43513482Y113986400D01*
X43513482Y113986400D02*
X43442053Y114057829D01*
X43442053Y114057829D02*
X43370625Y114200686D01*
X43370625Y114200686D02*
X43370625Y114629258D01*
X43370625Y114629258D02*
X43442053Y114772115D01*
X43442053Y114772115D02*
X43513482Y114843543D01*
X43513482Y114843543D02*
X43656339Y114914972D01*
X43656339Y114914972D02*
X43942053Y114914972D01*
X43942053Y114914972D02*
X44084911Y114843543D01*
X44727767Y113914972D02*
X44727767Y115414972D01*
X44870625Y114486400D02*
X45299196Y113914972D01*
X45299196Y114914972D02*
X44727767Y114343543D01*
X46513482Y113986400D02*
X46370625Y113914972D01*
X46370625Y113914972D02*
X46084911Y113914972D01*
X46084911Y113914972D02*
X45942053Y113986400D01*
X45942053Y113986400D02*
X45870625Y114129258D01*
X45870625Y114129258D02*
X45870625Y114700686D01*
X45870625Y114700686D02*
X45942053Y114843543D01*
X45942053Y114843543D02*
X46084911Y114914972D01*
X46084911Y114914972D02*
X46370625Y114914972D01*
X46370625Y114914972D02*
X46513482Y114843543D01*
X46513482Y114843543D02*
X46584911Y114700686D01*
X46584911Y114700686D02*
X46584911Y114557829D01*
X46584911Y114557829D02*
X45870625Y114414972D01*
X47227767Y113914972D02*
X47227767Y114914972D01*
X47227767Y114629258D02*
X47299196Y114772115D01*
X47299196Y114772115D02*
X47370625Y114843543D01*
X47370625Y114843543D02*
X47513482Y114914972D01*
X47513482Y114914972D02*
X47656339Y114914972D01*
X40584910Y70480972D02*
X40584910Y71980972D01*
X40584910Y71980972D02*
X41156339Y71980972D01*
X41156339Y71980972D02*
X41299196Y71909543D01*
X41299196Y71909543D02*
X41370625Y71838115D01*
X41370625Y71838115D02*
X41442053Y71695258D01*
X41442053Y71695258D02*
X41442053Y71480972D01*
X41442053Y71480972D02*
X41370625Y71338115D01*
X41370625Y71338115D02*
X41299196Y71266686D01*
X41299196Y71266686D02*
X41156339Y71195258D01*
X41156339Y71195258D02*
X40584910Y71195258D01*
X42727768Y71480972D02*
X42727768Y70480972D01*
X42084910Y71480972D02*
X42084910Y70695258D01*
X42084910Y70695258D02*
X42156339Y70552400D01*
X42156339Y70552400D02*
X42299196Y70480972D01*
X42299196Y70480972D02*
X42513482Y70480972D01*
X42513482Y70480972D02*
X42656339Y70552400D01*
X42656339Y70552400D02*
X42727768Y70623829D01*
X43370625Y70552400D02*
X43513482Y70480972D01*
X43513482Y70480972D02*
X43799196Y70480972D01*
X43799196Y70480972D02*
X43942053Y70552400D01*
X43942053Y70552400D02*
X44013482Y70695258D01*
X44013482Y70695258D02*
X44013482Y70766686D01*
X44013482Y70766686D02*
X43942053Y70909543D01*
X43942053Y70909543D02*
X43799196Y70980972D01*
X43799196Y70980972D02*
X43584911Y70980972D01*
X43584911Y70980972D02*
X43442053Y71052400D01*
X43442053Y71052400D02*
X43370625Y71195258D01*
X43370625Y71195258D02*
X43370625Y71266686D01*
X43370625Y71266686D02*
X43442053Y71409543D01*
X43442053Y71409543D02*
X43584911Y71480972D01*
X43584911Y71480972D02*
X43799196Y71480972D01*
X43799196Y71480972D02*
X43942053Y71409543D01*
X44656339Y70480972D02*
X44656339Y71980972D01*
X45299197Y70480972D02*
X45299197Y71266686D01*
X45299197Y71266686D02*
X45227768Y71409543D01*
X45227768Y71409543D02*
X45084911Y71480972D01*
X45084911Y71480972D02*
X44870625Y71480972D01*
X44870625Y71480972D02*
X44727768Y71409543D01*
X44727768Y71409543D02*
X44656339Y71338115D01*
X63540053Y70480972D02*
X63040053Y71195258D01*
X62682910Y70480972D02*
X62682910Y71980972D01*
X62682910Y71980972D02*
X63254339Y71980972D01*
X63254339Y71980972D02*
X63397196Y71909543D01*
X63397196Y71909543D02*
X63468625Y71838115D01*
X63468625Y71838115D02*
X63540053Y71695258D01*
X63540053Y71695258D02*
X63540053Y71480972D01*
X63540053Y71480972D02*
X63468625Y71338115D01*
X63468625Y71338115D02*
X63397196Y71266686D01*
X63397196Y71266686D02*
X63254339Y71195258D01*
X63254339Y71195258D02*
X62682910Y71195258D01*
X64397196Y70480972D02*
X64254339Y70552400D01*
X64254339Y70552400D02*
X64182910Y70623829D01*
X64182910Y70623829D02*
X64111482Y70766686D01*
X64111482Y70766686D02*
X64111482Y71195258D01*
X64111482Y71195258D02*
X64182910Y71338115D01*
X64182910Y71338115D02*
X64254339Y71409543D01*
X64254339Y71409543D02*
X64397196Y71480972D01*
X64397196Y71480972D02*
X64611482Y71480972D01*
X64611482Y71480972D02*
X64754339Y71409543D01*
X64754339Y71409543D02*
X64825768Y71338115D01*
X64825768Y71338115D02*
X64897196Y71195258D01*
X64897196Y71195258D02*
X64897196Y70766686D01*
X64897196Y70766686D02*
X64825768Y70623829D01*
X64825768Y70623829D02*
X64754339Y70552400D01*
X64754339Y70552400D02*
X64611482Y70480972D01*
X64611482Y70480972D02*
X64397196Y70480972D01*
X65325768Y71480972D02*
X65897196Y71480972D01*
X65540053Y71980972D02*
X65540053Y70695258D01*
X65540053Y70695258D02*
X65611482Y70552400D01*
X65611482Y70552400D02*
X65754339Y70480972D01*
X65754339Y70480972D02*
X65897196Y70480972D01*
X67040054Y70480972D02*
X67040054Y71266686D01*
X67040054Y71266686D02*
X66968625Y71409543D01*
X66968625Y71409543D02*
X66825768Y71480972D01*
X66825768Y71480972D02*
X66540054Y71480972D01*
X66540054Y71480972D02*
X66397196Y71409543D01*
X67040054Y70552400D02*
X66897196Y70480972D01*
X66897196Y70480972D02*
X66540054Y70480972D01*
X66540054Y70480972D02*
X66397196Y70552400D01*
X66397196Y70552400D02*
X66325768Y70695258D01*
X66325768Y70695258D02*
X66325768Y70838115D01*
X66325768Y70838115D02*
X66397196Y70980972D01*
X66397196Y70980972D02*
X66540054Y71052400D01*
X66540054Y71052400D02*
X66897196Y71052400D01*
X66897196Y71052400D02*
X67040054Y71123829D01*
X67754339Y70480972D02*
X67754339Y71480972D01*
X67754339Y71195258D02*
X67825768Y71338115D01*
X67825768Y71338115D02*
X67897197Y71409543D01*
X67897197Y71409543D02*
X68040054Y71480972D01*
X68040054Y71480972D02*
X68182911Y71480972D01*
X68540053Y71480972D02*
X68897196Y70480972D01*
X69254339Y71480972D02*
X68897196Y70480972D01*
X68897196Y70480972D02*
X68754339Y70123829D01*
X68754339Y70123829D02*
X68682910Y70052400D01*
X68682910Y70052400D02*
X68540053Y69980972D01*
X62519425Y115414972D02*
X63376568Y115414972D01*
X62947996Y113914972D02*
X62947996Y115414972D01*
X64090853Y113914972D02*
X63947996Y113986400D01*
X63947996Y113986400D02*
X63876567Y114057829D01*
X63876567Y114057829D02*
X63805139Y114200686D01*
X63805139Y114200686D02*
X63805139Y114629258D01*
X63805139Y114629258D02*
X63876567Y114772115D01*
X63876567Y114772115D02*
X63947996Y114843543D01*
X63947996Y114843543D02*
X64090853Y114914972D01*
X64090853Y114914972D02*
X64305139Y114914972D01*
X64305139Y114914972D02*
X64447996Y114843543D01*
X64447996Y114843543D02*
X64519425Y114772115D01*
X64519425Y114772115D02*
X64590853Y114629258D01*
X64590853Y114629258D02*
X64590853Y114200686D01*
X64590853Y114200686D02*
X64519425Y114057829D01*
X64519425Y114057829D02*
X64447996Y113986400D01*
X64447996Y113986400D02*
X64305139Y113914972D01*
X64305139Y113914972D02*
X64090853Y113914972D01*
X65876568Y114914972D02*
X65876568Y113700686D01*
X65876568Y113700686D02*
X65805139Y113557829D01*
X65805139Y113557829D02*
X65733710Y113486400D01*
X65733710Y113486400D02*
X65590853Y113414972D01*
X65590853Y113414972D02*
X65376568Y113414972D01*
X65376568Y113414972D02*
X65233710Y113486400D01*
X65876568Y113986400D02*
X65733710Y113914972D01*
X65733710Y113914972D02*
X65447996Y113914972D01*
X65447996Y113914972D02*
X65305139Y113986400D01*
X65305139Y113986400D02*
X65233710Y114057829D01*
X65233710Y114057829D02*
X65162282Y114200686D01*
X65162282Y114200686D02*
X65162282Y114629258D01*
X65162282Y114629258D02*
X65233710Y114772115D01*
X65233710Y114772115D02*
X65305139Y114843543D01*
X65305139Y114843543D02*
X65447996Y114914972D01*
X65447996Y114914972D02*
X65733710Y114914972D01*
X65733710Y114914972D02*
X65876568Y114843543D01*
X67233711Y114914972D02*
X67233711Y113700686D01*
X67233711Y113700686D02*
X67162282Y113557829D01*
X67162282Y113557829D02*
X67090853Y113486400D01*
X67090853Y113486400D02*
X66947996Y113414972D01*
X66947996Y113414972D02*
X66733711Y113414972D01*
X66733711Y113414972D02*
X66590853Y113486400D01*
X67233711Y113986400D02*
X67090853Y113914972D01*
X67090853Y113914972D02*
X66805139Y113914972D01*
X66805139Y113914972D02*
X66662282Y113986400D01*
X66662282Y113986400D02*
X66590853Y114057829D01*
X66590853Y114057829D02*
X66519425Y114200686D01*
X66519425Y114200686D02*
X66519425Y114629258D01*
X66519425Y114629258D02*
X66590853Y114772115D01*
X66590853Y114772115D02*
X66662282Y114843543D01*
X66662282Y114843543D02*
X66805139Y114914972D01*
X66805139Y114914972D02*
X67090853Y114914972D01*
X67090853Y114914972D02*
X67233711Y114843543D01*
X68162282Y113914972D02*
X68019425Y113986400D01*
X68019425Y113986400D02*
X67947996Y114129258D01*
X67947996Y114129258D02*
X67947996Y115414972D01*
X69305139Y113986400D02*
X69162282Y113914972D01*
X69162282Y113914972D02*
X68876568Y113914972D01*
X68876568Y113914972D02*
X68733710Y113986400D01*
X68733710Y113986400D02*
X68662282Y114129258D01*
X68662282Y114129258D02*
X68662282Y114700686D01*
X68662282Y114700686D02*
X68733710Y114843543D01*
X68733710Y114843543D02*
X68876568Y114914972D01*
X68876568Y114914972D02*
X69162282Y114914972D01*
X69162282Y114914972D02*
X69305139Y114843543D01*
X69305139Y114843543D02*
X69376568Y114700686D01*
X69376568Y114700686D02*
X69376568Y114557829D01*
X69376568Y114557829D02*
X68662282Y114414972D01*
X47822225Y177253781D02*
X48107939Y177158543D01*
X48107939Y177158543D02*
X48203177Y177063305D01*
X48203177Y177063305D02*
X48298415Y176872829D01*
X48298415Y176872829D02*
X48298415Y176587115D01*
X48298415Y176587115D02*
X48203177Y176396639D01*
X48203177Y176396639D02*
X48107939Y176301400D01*
X48107939Y176301400D02*
X47917463Y176206162D01*
X47917463Y176206162D02*
X47155558Y176206162D01*
X47155558Y176206162D02*
X47155558Y178206162D01*
X47155558Y178206162D02*
X47822225Y178206162D01*
X47822225Y178206162D02*
X48012701Y178110924D01*
X48012701Y178110924D02*
X48107939Y178015686D01*
X48107939Y178015686D02*
X48203177Y177825210D01*
X48203177Y177825210D02*
X48203177Y177634734D01*
X48203177Y177634734D02*
X48107939Y177444258D01*
X48107939Y177444258D02*
X48012701Y177349020D01*
X48012701Y177349020D02*
X47822225Y177253781D01*
X47822225Y177253781D02*
X47155558Y177253781D01*
X50012701Y177539496D02*
X50012701Y176206162D01*
X49155558Y177539496D02*
X49155558Y176491877D01*
X49155558Y176491877D02*
X49250796Y176301400D01*
X49250796Y176301400D02*
X49441272Y176206162D01*
X49441272Y176206162D02*
X49726987Y176206162D01*
X49726987Y176206162D02*
X49917463Y176301400D01*
X49917463Y176301400D02*
X50012701Y176396639D01*
X50869844Y176301400D02*
X51060320Y176206162D01*
X51060320Y176206162D02*
X51441272Y176206162D01*
X51441272Y176206162D02*
X51631749Y176301400D01*
X51631749Y176301400D02*
X51726987Y176491877D01*
X51726987Y176491877D02*
X51726987Y176587115D01*
X51726987Y176587115D02*
X51631749Y176777591D01*
X51631749Y176777591D02*
X51441272Y176872829D01*
X51441272Y176872829D02*
X51155558Y176872829D01*
X51155558Y176872829D02*
X50965082Y176968067D01*
X50965082Y176968067D02*
X50869844Y177158543D01*
X50869844Y177158543D02*
X50869844Y177253781D01*
X50869844Y177253781D02*
X50965082Y177444258D01*
X50965082Y177444258D02*
X51155558Y177539496D01*
X51155558Y177539496D02*
X51441272Y177539496D01*
X51441272Y177539496D02*
X51631749Y177444258D01*
X52393654Y177539496D02*
X52869844Y176206162D01*
X53346035Y177539496D02*
X52869844Y176206162D01*
X52869844Y176206162D02*
X52679368Y175729972D01*
X52679368Y175729972D02*
X52584130Y175634734D01*
X52584130Y175634734D02*
X52393654Y175539496D01*
X56298417Y177253781D02*
X56584131Y177158543D01*
X56584131Y177158543D02*
X56679369Y177063305D01*
X56679369Y177063305D02*
X56774607Y176872829D01*
X56774607Y176872829D02*
X56774607Y176587115D01*
X56774607Y176587115D02*
X56679369Y176396639D01*
X56679369Y176396639D02*
X56584131Y176301400D01*
X56584131Y176301400D02*
X56393655Y176206162D01*
X56393655Y176206162D02*
X55631750Y176206162D01*
X55631750Y176206162D02*
X55631750Y178206162D01*
X55631750Y178206162D02*
X56298417Y178206162D01*
X56298417Y178206162D02*
X56488893Y178110924D01*
X56488893Y178110924D02*
X56584131Y178015686D01*
X56584131Y178015686D02*
X56679369Y177825210D01*
X56679369Y177825210D02*
X56679369Y177634734D01*
X56679369Y177634734D02*
X56584131Y177444258D01*
X56584131Y177444258D02*
X56488893Y177349020D01*
X56488893Y177349020D02*
X56298417Y177253781D01*
X56298417Y177253781D02*
X55631750Y177253781D01*
X57917464Y176206162D02*
X57726988Y176301400D01*
X57726988Y176301400D02*
X57631750Y176396639D01*
X57631750Y176396639D02*
X57536512Y176587115D01*
X57536512Y176587115D02*
X57536512Y177158543D01*
X57536512Y177158543D02*
X57631750Y177349020D01*
X57631750Y177349020D02*
X57726988Y177444258D01*
X57726988Y177444258D02*
X57917464Y177539496D01*
X57917464Y177539496D02*
X58203179Y177539496D01*
X58203179Y177539496D02*
X58393655Y177444258D01*
X58393655Y177444258D02*
X58488893Y177349020D01*
X58488893Y177349020D02*
X58584131Y177158543D01*
X58584131Y177158543D02*
X58584131Y176587115D01*
X58584131Y176587115D02*
X58488893Y176396639D01*
X58488893Y176396639D02*
X58393655Y176301400D01*
X58393655Y176301400D02*
X58203179Y176206162D01*
X58203179Y176206162D02*
X57917464Y176206162D01*
X60298417Y176206162D02*
X60298417Y177253781D01*
X60298417Y177253781D02*
X60203179Y177444258D01*
X60203179Y177444258D02*
X60012703Y177539496D01*
X60012703Y177539496D02*
X59631750Y177539496D01*
X59631750Y177539496D02*
X59441274Y177444258D01*
X60298417Y176301400D02*
X60107941Y176206162D01*
X60107941Y176206162D02*
X59631750Y176206162D01*
X59631750Y176206162D02*
X59441274Y176301400D01*
X59441274Y176301400D02*
X59346036Y176491877D01*
X59346036Y176491877D02*
X59346036Y176682353D01*
X59346036Y176682353D02*
X59441274Y176872829D01*
X59441274Y176872829D02*
X59631750Y176968067D01*
X59631750Y176968067D02*
X60107941Y176968067D01*
X60107941Y176968067D02*
X60298417Y177063305D01*
X61250798Y176206162D02*
X61250798Y177539496D01*
X61250798Y177158543D02*
X61346036Y177349020D01*
X61346036Y177349020D02*
X61441274Y177444258D01*
X61441274Y177444258D02*
X61631750Y177539496D01*
X61631750Y177539496D02*
X61822227Y177539496D01*
X63346036Y176206162D02*
X63346036Y178206162D01*
X63346036Y176301400D02*
X63155560Y176206162D01*
X63155560Y176206162D02*
X62774607Y176206162D01*
X62774607Y176206162D02*
X62584131Y176301400D01*
X62584131Y176301400D02*
X62488893Y176396639D01*
X62488893Y176396639D02*
X62393655Y176587115D01*
X62393655Y176587115D02*
X62393655Y177158543D01*
X62393655Y177158543D02*
X62488893Y177349020D01*
X62488893Y177349020D02*
X62584131Y177444258D01*
X62584131Y177444258D02*
X62774607Y177539496D01*
X62774607Y177539496D02*
X63155560Y177539496D01*
X63155560Y177539496D02*
X63346036Y177444258D01*
X65631751Y177539496D02*
X66107941Y176206162D01*
X66107941Y176206162D02*
X66584132Y177539496D01*
X68393656Y176206162D02*
X67250799Y176206162D01*
X67822227Y176206162D02*
X67822227Y178206162D01*
X67822227Y178206162D02*
X67631751Y177920448D01*
X67631751Y177920448D02*
X67441275Y177729972D01*
X67441275Y177729972D02*
X67250799Y177634734D01*
X69250799Y176396639D02*
X69346037Y176301400D01*
X69346037Y176301400D02*
X69250799Y176206162D01*
X69250799Y176206162D02*
X69155561Y176301400D01*
X69155561Y176301400D02*
X69250799Y176396639D01*
X69250799Y176396639D02*
X69250799Y176206162D01*
X70584132Y178206162D02*
X70774609Y178206162D01*
X70774609Y178206162D02*
X70965085Y178110924D01*
X70965085Y178110924D02*
X71060323Y178015686D01*
X71060323Y178015686D02*
X71155561Y177825210D01*
X71155561Y177825210D02*
X71250799Y177444258D01*
X71250799Y177444258D02*
X71250799Y176968067D01*
X71250799Y176968067D02*
X71155561Y176587115D01*
X71155561Y176587115D02*
X71060323Y176396639D01*
X71060323Y176396639D02*
X70965085Y176301400D01*
X70965085Y176301400D02*
X70774609Y176206162D01*
X70774609Y176206162D02*
X70584132Y176206162D01*
X70584132Y176206162D02*
X70393656Y176301400D01*
X70393656Y176301400D02*
X70298418Y176396639D01*
X70298418Y176396639D02*
X70203180Y176587115D01*
X70203180Y176587115D02*
X70107942Y176968067D01*
X70107942Y176968067D02*
X70107942Y177444258D01*
X70107942Y177444258D02*
X70203180Y177825210D01*
X70203180Y177825210D02*
X70298418Y178015686D01*
X70298418Y178015686D02*
X70393656Y178110924D01*
X70393656Y178110924D02*
X70584132Y178206162D01*
X72107942Y176396639D02*
X72203180Y176301400D01*
X72203180Y176301400D02*
X72107942Y176206162D01*
X72107942Y176206162D02*
X72012704Y176301400D01*
X72012704Y176301400D02*
X72107942Y176396639D01*
X72107942Y176396639D02*
X72107942Y176206162D01*
X73441275Y178206162D02*
X73631752Y178206162D01*
X73631752Y178206162D02*
X73822228Y178110924D01*
X73822228Y178110924D02*
X73917466Y178015686D01*
X73917466Y178015686D02*
X74012704Y177825210D01*
X74012704Y177825210D02*
X74107942Y177444258D01*
X74107942Y177444258D02*
X74107942Y176968067D01*
X74107942Y176968067D02*
X74012704Y176587115D01*
X74012704Y176587115D02*
X73917466Y176396639D01*
X73917466Y176396639D02*
X73822228Y176301400D01*
X73822228Y176301400D02*
X73631752Y176206162D01*
X73631752Y176206162D02*
X73441275Y176206162D01*
X73441275Y176206162D02*
X73250799Y176301400D01*
X73250799Y176301400D02*
X73155561Y176396639D01*
X73155561Y176396639D02*
X73060323Y176587115D01*
X73060323Y176587115D02*
X72965085Y176968067D01*
X72965085Y176968067D02*
X72965085Y177444258D01*
X72965085Y177444258D02*
X73060323Y177825210D01*
X73060323Y177825210D02*
X73155561Y178015686D01*
X73155561Y178015686D02*
X73250799Y178110924D01*
X73250799Y178110924D02*
X73441275Y178206162D01*
D12*
X23107633Y148706702D02*
X22631443Y148706702D01*
X22631443Y148706702D02*
X22631443Y149706702D01*
X23440967Y149230512D02*
X23774300Y149230512D01*
X23917157Y148706702D02*
X23440967Y148706702D01*
X23440967Y148706702D02*
X23440967Y149706702D01*
X23440967Y149706702D02*
X23917157Y149706702D01*
X24345729Y148706702D02*
X24345729Y149706702D01*
X24345729Y149706702D02*
X24583824Y149706702D01*
X24583824Y149706702D02*
X24726681Y149659083D01*
X24726681Y149659083D02*
X24821919Y149563845D01*
X24821919Y149563845D02*
X24869538Y149468607D01*
X24869538Y149468607D02*
X24917157Y149278131D01*
X24917157Y149278131D02*
X24917157Y149135274D01*
X24917157Y149135274D02*
X24869538Y148944798D01*
X24869538Y148944798D02*
X24821919Y148849560D01*
X24821919Y148849560D02*
X24726681Y148754321D01*
X24726681Y148754321D02*
X24583824Y148706702D01*
X24583824Y148706702D02*
X24345729Y148706702D01*
X25107634Y148611464D02*
X25869538Y148611464D01*
X26107634Y148706702D02*
X26107634Y149706702D01*
X26107634Y149706702D02*
X26488586Y149706702D01*
X26488586Y149706702D02*
X26583824Y149659083D01*
X26583824Y149659083D02*
X26631443Y149611464D01*
X26631443Y149611464D02*
X26679062Y149516226D01*
X26679062Y149516226D02*
X26679062Y149373369D01*
X26679062Y149373369D02*
X26631443Y149278131D01*
X26631443Y149278131D02*
X26583824Y149230512D01*
X26583824Y149230512D02*
X26488586Y149182893D01*
X26488586Y149182893D02*
X26107634Y149182893D01*
X27012396Y149706702D02*
X27250491Y148706702D01*
X27250491Y148706702D02*
X27440967Y149420988D01*
X27440967Y149420988D02*
X27631443Y148706702D01*
X27631443Y148706702D02*
X27869539Y149706702D01*
X28250491Y148706702D02*
X28250491Y149706702D01*
X28250491Y149706702D02*
X28583824Y148992417D01*
X28583824Y148992417D02*
X28917157Y149706702D01*
X28917157Y149706702D02*
X28917157Y148706702D01*
X17134249Y139890101D02*
X17324725Y139890101D01*
X17324725Y139890101D02*
X17419963Y139842482D01*
X17419963Y139842482D02*
X17515201Y139747244D01*
X17515201Y139747244D02*
X17562820Y139556768D01*
X17562820Y139556768D02*
X17562820Y139223435D01*
X17562820Y139223435D02*
X17515201Y139032959D01*
X17515201Y139032959D02*
X17419963Y138937720D01*
X17419963Y138937720D02*
X17324725Y138890101D01*
X17324725Y138890101D02*
X17134249Y138890101D01*
X17134249Y138890101D02*
X17039011Y138937720D01*
X17039011Y138937720D02*
X16943773Y139032959D01*
X16943773Y139032959D02*
X16896154Y139223435D01*
X16896154Y139223435D02*
X16896154Y139556768D01*
X16896154Y139556768D02*
X16943773Y139747244D01*
X16943773Y139747244D02*
X17039011Y139842482D01*
X17039011Y139842482D02*
X17134249Y139890101D01*
X17943773Y138937720D02*
X18086630Y138890101D01*
X18086630Y138890101D02*
X18324725Y138890101D01*
X18324725Y138890101D02*
X18419963Y138937720D01*
X18419963Y138937720D02*
X18467582Y138985340D01*
X18467582Y138985340D02*
X18515201Y139080578D01*
X18515201Y139080578D02*
X18515201Y139175816D01*
X18515201Y139175816D02*
X18467582Y139271054D01*
X18467582Y139271054D02*
X18419963Y139318673D01*
X18419963Y139318673D02*
X18324725Y139366292D01*
X18324725Y139366292D02*
X18134249Y139413911D01*
X18134249Y139413911D02*
X18039011Y139461530D01*
X18039011Y139461530D02*
X17991392Y139509149D01*
X17991392Y139509149D02*
X17943773Y139604387D01*
X17943773Y139604387D02*
X17943773Y139699625D01*
X17943773Y139699625D02*
X17991392Y139794863D01*
X17991392Y139794863D02*
X18039011Y139842482D01*
X18039011Y139842482D02*
X18134249Y139890101D01*
X18134249Y139890101D02*
X18372344Y139890101D01*
X18372344Y139890101D02*
X18515201Y139842482D01*
X19515201Y138985340D02*
X19467582Y138937720D01*
X19467582Y138937720D02*
X19324725Y138890101D01*
X19324725Y138890101D02*
X19229487Y138890101D01*
X19229487Y138890101D02*
X19086630Y138937720D01*
X19086630Y138937720D02*
X18991392Y139032959D01*
X18991392Y139032959D02*
X18943773Y139128197D01*
X18943773Y139128197D02*
X18896154Y139318673D01*
X18896154Y139318673D02*
X18896154Y139461530D01*
X18896154Y139461530D02*
X18943773Y139652006D01*
X18943773Y139652006D02*
X18991392Y139747244D01*
X18991392Y139747244D02*
X19086630Y139842482D01*
X19086630Y139842482D02*
X19229487Y139890101D01*
X19229487Y139890101D02*
X19324725Y139890101D01*
X19324725Y139890101D02*
X19467582Y139842482D01*
X19467582Y139842482D02*
X19515201Y139794863D01*
X19705678Y138794863D02*
X20467582Y138794863D01*
X21181868Y139890101D02*
X20705678Y139890101D01*
X20705678Y139890101D02*
X20658059Y139413911D01*
X20658059Y139413911D02*
X20705678Y139461530D01*
X20705678Y139461530D02*
X20800916Y139509149D01*
X20800916Y139509149D02*
X21039011Y139509149D01*
X21039011Y139509149D02*
X21134249Y139461530D01*
X21134249Y139461530D02*
X21181868Y139413911D01*
X21181868Y139413911D02*
X21229487Y139318673D01*
X21229487Y139318673D02*
X21229487Y139080578D01*
X21229487Y139080578D02*
X21181868Y138985340D01*
X21181868Y138985340D02*
X21134249Y138937720D01*
X21134249Y138937720D02*
X21039011Y138890101D01*
X21039011Y138890101D02*
X20800916Y138890101D01*
X20800916Y138890101D02*
X20705678Y138937720D01*
X20705678Y138937720D02*
X20658059Y138985340D01*
X22181868Y138890101D02*
X21610440Y138890101D01*
X21896154Y138890101D02*
X21896154Y139890101D01*
X21896154Y139890101D02*
X21800916Y139747244D01*
X21800916Y139747244D02*
X21705678Y139652006D01*
X21705678Y139652006D02*
X21610440Y139604387D01*
X22562821Y139794863D02*
X22610440Y139842482D01*
X22610440Y139842482D02*
X22705678Y139890101D01*
X22705678Y139890101D02*
X22943773Y139890101D01*
X22943773Y139890101D02*
X23039011Y139842482D01*
X23039011Y139842482D02*
X23086630Y139794863D01*
X23086630Y139794863D02*
X23134249Y139699625D01*
X23134249Y139699625D02*
X23134249Y139604387D01*
X23134249Y139604387D02*
X23086630Y139461530D01*
X23086630Y139461530D02*
X22515202Y138890101D01*
X22515202Y138890101D02*
X23134249Y138890101D01*
D14*
%TO.C,R208*%
X8656849Y162912559D02*
X8656849Y163219841D01*
X9416849Y162912559D02*
X9416849Y163219841D01*
%TO.C,C201*%
X18897800Y159014200D02*
X22817800Y159014200D01*
X22817800Y160924200D02*
X18897800Y160924200D01*
X22817800Y159014200D02*
X22817800Y160924200D01*
%TO.C,D307*%
X36318733Y123457211D02*
X36318733Y120772212D01*
X36318733Y120772212D02*
X38238733Y120772212D01*
X38238733Y120772212D02*
X38238733Y123457211D01*
%TO.C,C502*%
X100986000Y87749036D02*
X100986000Y87533364D01*
X101706000Y87749036D02*
X101706000Y87533364D01*
%TO.C,D502*%
X82860000Y100079999D02*
X82860000Y97395000D01*
X82860000Y97395000D02*
X84780000Y97395000D01*
X84780000Y97395000D02*
X84780000Y100079999D01*
D15*
%TO.C,SW102*%
X117797567Y61100674D02*
X118334969Y61638075D01*
X118334969Y61638075D02*
X119042075Y60930969D01*
X118504674Y60393567D02*
X117797567Y61100674D01*
X119042075Y60930969D02*
X118504674Y60393567D01*
D16*
X114744582Y63999812D02*
G75*
G02*
X114684582Y63999812I-30000J0D01*
G01*
X114684582Y63999812D02*
G75*
G02*
X114744582Y63999812I30000J0D01*
G01*
D15*
X126520000Y64516000D02*
G75*
G02*
X117320000Y64516000I-4600000J0D01*
G01*
X117320000Y64516000D02*
G75*
G02*
X126520000Y64516000I4600000J0D01*
G01*
X123440000Y64516000D02*
G75*
G02*
X120400000Y64516000I-1520000J0D01*
G01*
X120400000Y64516000D02*
G75*
G02*
X123440000Y64516000I1520000J0D01*
G01*
D17*
G36*
X122997631Y63438369D02*
G01*
X120842369Y63438369D01*
X120842369Y65593631D01*
X122997631Y63438369D01*
G37*
D14*
%TO.C,R203*%
X9849137Y169333141D02*
X9849137Y169807657D01*
X10894137Y169333141D02*
X10894137Y169807657D01*
%TO.C,R311*%
X54680167Y71450387D02*
X54680167Y70975871D01*
X55725167Y71450387D02*
X55725167Y70975871D01*
%TO.C,Q401*%
X79678411Y115587999D02*
X80678411Y115587999D01*
X79678411Y114067999D02*
X79678411Y115587999D01*
X79728411Y114067999D02*
X79678411Y114067999D01*
X81628411Y114067999D02*
X80848411Y114067999D01*
X81798411Y115587999D02*
X82798411Y115587999D01*
X82798411Y115587999D02*
X82798411Y114067999D01*
X82798411Y114067999D02*
X82748411Y114067999D01*
X81188411Y113287999D02*
X80858411Y113527999D01*
X81188411Y113767999D01*
X81188411Y113287999D01*
G36*
X81188411Y113287999D02*
G01*
X80858411Y113527999D01*
X81188411Y113767999D01*
X81188411Y113287999D01*
G37*
%TO.C,Q305*%
X35693333Y71973129D02*
X36693333Y71973129D01*
X35693333Y70453129D02*
X35693333Y71973129D01*
X35743333Y70453129D02*
X35693333Y70453129D01*
X37643333Y70453129D02*
X36863333Y70453129D01*
X37813333Y71973129D02*
X38813333Y71973129D01*
X38813333Y71973129D02*
X38813333Y70453129D01*
X38813333Y70453129D02*
X38763333Y70453129D01*
X37203333Y69673129D02*
X36873333Y69913129D01*
X37203333Y70153129D01*
X37203333Y69673129D01*
G36*
X37203333Y69673129D02*
G01*
X36873333Y69913129D01*
X37203333Y70153129D01*
X37203333Y69673129D01*
G37*
%TO.C,Q201*%
X4978000Y169972500D02*
X5978000Y169972500D01*
X4978000Y168452500D02*
X4978000Y169972500D01*
X5028000Y168452500D02*
X4978000Y168452500D01*
X6928000Y168452500D02*
X6148000Y168452500D01*
X7098000Y169972500D02*
X8098000Y169972500D01*
X8098000Y169972500D02*
X8098000Y168452500D01*
X8098000Y168452500D02*
X8048000Y168452500D01*
X6488000Y167672500D02*
X6158000Y167912500D01*
X6488000Y168152500D01*
X6488000Y167672500D01*
G36*
X6488000Y167672500D02*
G01*
X6158000Y167912500D01*
X6488000Y168152500D01*
X6488000Y167672500D01*
G37*
%TO.C,D607*%
X112718923Y118527175D02*
X112718923Y115842176D01*
X114638923Y118527175D02*
X112718923Y118527175D01*
X114638923Y115842176D02*
X114638923Y118527175D01*
%TO.C,J202*%
X34912Y159168400D02*
X34912Y150008400D01*
X1544911Y159168400D02*
X34912Y159168400D01*
X1544911Y150008400D02*
X34912Y150008400D01*
X5444912Y159168400D02*
X3444912Y159168400D01*
X5444912Y150008400D02*
X3444912Y150008400D01*
%TO.C,R406*%
X110406842Y75013701D02*
X110881358Y75013701D01*
X110406842Y73968701D02*
X110881358Y73968701D01*
%TO.C,U203*%
D18*
X9985510Y153108000D02*
G75*
G02*
X9825512Y153108000I-79999J0D01*
G01*
X9825512Y153108000D02*
G75*
G02*
X9985510Y153108000I79999J0D01*
G01*
D14*
%TO.C,R324*%
X12177500Y71450387D02*
X12177500Y70975871D01*
X13222500Y71450387D02*
X13222500Y70975871D01*
%TO.C,R418*%
X120914819Y106339329D02*
X120579286Y106674862D01*
X121653746Y107078256D02*
X121318213Y107413789D01*
%TO.C,R304*%
X51462471Y36889457D02*
X51462471Y36414941D01*
X52507471Y36889457D02*
X52507471Y36414941D01*
%TO.C,R422*%
X78175911Y115065257D02*
X78175911Y114590741D01*
X79220911Y115065257D02*
X79220911Y114590741D01*
%TO.C,D613*%
X105073523Y142657175D02*
X105073523Y139972176D01*
X106993523Y142657175D02*
X105073523Y142657175D01*
X106993523Y139972176D02*
X106993523Y142657175D01*
D19*
%TO.C,U205*%
X12221050Y165645000D02*
X14571050Y165645000D01*
X14571050Y160745000D02*
X12221050Y160745000D01*
D11*
X17496052Y161290000D02*
G75*
G02*
X17296050Y161290000I-100001J0D01*
G01*
X17296050Y161290000D02*
G75*
G02*
X17496052Y161290000I100001J0D01*
G01*
D14*
%TO.C,R603*%
X121696665Y159046076D02*
X122171181Y159046076D01*
X121696665Y158001076D02*
X122171181Y158001076D01*
%TO.C,R503*%
X86570616Y93742742D02*
X86570616Y94217258D01*
X87615616Y93742742D02*
X87615616Y94217258D01*
%TO.C,R212*%
X32040300Y172495942D02*
X32040300Y172970458D01*
X33085300Y172495942D02*
X33085300Y172970458D01*
%TO.C,D303*%
X45454180Y26981100D02*
X45454180Y24296101D01*
X47374180Y26981100D02*
X45454180Y26981100D01*
X47374180Y24296101D02*
X47374180Y26981100D01*
%TO.C,C208*%
X18181450Y166073800D02*
X18181450Y162153800D01*
X20091450Y166073800D02*
X18181450Y166073800D01*
X20091450Y162153800D02*
X20091450Y166073800D01*
%TO.C,D501*%
X77780000Y100079999D02*
X77780000Y97395000D01*
X77780000Y97395000D02*
X79700000Y97395000D01*
X79700000Y97395000D02*
X79700000Y100079999D01*
%TO.C,R318*%
X34216233Y115074469D02*
X34216233Y114599953D01*
X35261233Y115074469D02*
X35261233Y114599953D01*
%TO.C,Q309*%
X13680000Y71973129D02*
X14680000Y71973129D01*
X13680000Y70453129D02*
X13680000Y71973129D01*
X13730000Y70453129D02*
X13680000Y70453129D01*
X15630000Y70453129D02*
X14850000Y70453129D01*
X15800000Y71973129D02*
X16800000Y71973129D01*
X16800000Y71973129D02*
X16800000Y70453129D01*
X16800000Y70453129D02*
X16750000Y70453129D01*
X15190000Y69673129D02*
X14860000Y69913129D01*
X15190000Y70153129D01*
X15190000Y69673129D01*
G36*
X15190000Y69673129D02*
G01*
X14860000Y69913129D01*
X15190000Y70153129D01*
X15190000Y69673129D01*
G37*
D15*
%TO.C,SW305*%
X53174568Y112124200D02*
X65974568Y112124200D01*
X53174568Y106324200D02*
X53174568Y112124200D01*
X54114568Y111384200D02*
X54874568Y111384200D01*
X54114568Y110394200D02*
X54114568Y111384200D01*
X54114568Y107064200D02*
X54114568Y108054200D01*
X54874568Y111384200D02*
X54874568Y110394200D01*
X54874568Y108054200D02*
X54874568Y107064200D01*
X54874568Y107704200D02*
X66574568Y107704200D01*
X54874568Y107064200D02*
X54114568Y107064200D01*
X54874569Y110624200D02*
X66574568Y110624200D01*
X65974568Y112124200D02*
X65974568Y106324200D01*
X65974568Y106324200D02*
X53174568Y106324200D01*
X66574568Y110624200D02*
X66574568Y107704200D01*
D16*
X53074567Y106194200D02*
G75*
G02*
X53014569Y106194200I-29999J0D01*
G01*
X53014569Y106194200D02*
G75*
G02*
X53074567Y106194200I29999J0D01*
G01*
D14*
%TO.C,R308*%
X34952833Y78595871D02*
X34952833Y79070387D01*
X35997833Y78595871D02*
X35997833Y79070387D01*
D15*
%TO.C,SW401*%
X77720000Y71247000D02*
X80290000Y71247000D01*
X77720000Y58547000D02*
X77720000Y71247000D01*
X80290000Y58547000D02*
X77720000Y58547000D01*
X82270000Y71247000D02*
X84840000Y71247000D01*
X84840000Y71247000D02*
X84840000Y58547000D01*
X84840000Y58547000D02*
X82270000Y58547000D01*
D16*
X84989999Y58047001D02*
G75*
G02*
X84930001Y58047001I-29999J0D01*
G01*
X84930001Y58047001D02*
G75*
G02*
X84989999Y58047001I29999J0D01*
G01*
D14*
%TO.C,R314*%
X32692233Y115074469D02*
X32692233Y114599953D01*
X33737233Y115074469D02*
X33737233Y114599953D01*
%TO.C,C501*%
X80666000Y87723636D02*
X80666000Y87507964D01*
X81386000Y87723636D02*
X81386000Y87507964D01*
%TO.C,D603*%
X120248924Y157705576D02*
X120248924Y155785576D01*
X120248924Y155785576D02*
X122933923Y155785576D01*
X122933923Y157705576D02*
X120248924Y157705576D01*
%TO.C,C204*%
X23924800Y157593419D02*
X23924800Y157874581D01*
X24944800Y157593419D02*
X24944800Y157874581D01*
%TO.C,D304*%
X58306667Y79833129D02*
X58306667Y77148130D01*
X58306667Y77148130D02*
X60226667Y77148130D01*
X60226667Y77148130D02*
X60226667Y79833129D01*
%TO.C,D308*%
X58332067Y123457211D02*
X58332067Y120772212D01*
X58332067Y120772212D02*
X60252067Y120772212D01*
X60252067Y120772212D02*
X60252067Y123457211D01*
%TO.C,R110*%
X35162258Y149849100D02*
X34687742Y149849100D01*
X35162258Y148804100D02*
X34687742Y148804100D01*
%TO.C,Q604*%
X108308923Y125981877D02*
X108358923Y125981877D01*
X108308923Y124461877D02*
X108308923Y125981877D01*
X109308923Y124461877D02*
X108308923Y124461877D01*
X109478923Y125981877D02*
X110258923Y125981877D01*
X111378923Y125981877D02*
X111428923Y125981877D01*
X111428923Y125981877D02*
X111428923Y124461877D01*
X111428923Y124461877D02*
X110428923Y124461877D01*
X110248923Y126521877D02*
X109918923Y126281877D01*
X109918923Y126761877D01*
X110248923Y126521877D01*
G36*
X110248923Y126521877D02*
G01*
X109918923Y126281877D01*
X109918923Y126761877D01*
X110248923Y126521877D01*
G37*
%TO.C,R204*%
X10490711Y154351140D02*
X10490711Y154043858D01*
X11250711Y154351140D02*
X11250711Y154043858D01*
%TO.C,Q501*%
X77858579Y94740000D02*
X78858579Y94740000D01*
X77858579Y93220000D02*
X77858579Y94740000D01*
X77908579Y93220000D02*
X77858579Y93220000D01*
X79808579Y93220000D02*
X79028579Y93220000D01*
X79978579Y94740000D02*
X80978579Y94740000D01*
X80978579Y94740000D02*
X80978579Y93220000D01*
X80978579Y93220000D02*
X80928579Y93220000D01*
X79368579Y92440000D02*
X79038579Y92680000D01*
X79368579Y92920000D01*
X79368579Y92440000D01*
G36*
X79368579Y92440000D02*
G01*
X79038579Y92680000D01*
X79368579Y92920000D01*
X79368579Y92440000D01*
G37*
%TO.C,R520*%
X123935258Y91708500D02*
X123460742Y91708500D01*
X123935258Y90663500D02*
X123460742Y90663500D01*
%TO.C,Q606*%
X104752923Y157482475D02*
X105752923Y157482475D01*
X104752923Y155962475D02*
X104752923Y157482475D01*
X104802923Y155962475D02*
X104752923Y155962475D01*
X106702923Y155962475D02*
X105922923Y155962475D01*
X106872923Y157482475D02*
X107872923Y157482475D01*
X107872923Y157482475D02*
X107872923Y155962475D01*
X107872923Y155962475D02*
X107822923Y155962475D01*
X106262923Y155182475D02*
X105932923Y155422475D01*
X106262923Y155662475D01*
X106262923Y155182475D01*
G36*
X106262923Y155182475D02*
G01*
X105932923Y155422475D01*
X106262923Y155662475D01*
X106262923Y155182475D01*
G37*
%TO.C,R207*%
X7001306Y161709099D02*
X6526790Y161709099D01*
X7001306Y160664099D02*
X6526790Y160664099D01*
%TO.C,R322*%
X10653500Y71450387D02*
X10653500Y70975871D01*
X11698500Y71450387D02*
X11698500Y70975871D01*
%TO.C,R507*%
X107036047Y93742742D02*
X107036047Y94217258D01*
X108081047Y93742742D02*
X108081047Y94217258D01*
%TO.C,R319*%
X56975377Y122225354D02*
X56975377Y122699870D01*
X58020377Y122225354D02*
X58020377Y122699870D01*
%TO.C,D204*%
X5789448Y161979199D02*
X8474447Y161979199D01*
X8474447Y163899199D02*
X5789448Y163899199D01*
X8474447Y161979199D02*
X8474447Y163899199D01*
%TO.C,R313*%
X10678900Y115068361D02*
X10678900Y114593845D01*
X11723900Y115068361D02*
X11723900Y114593845D01*
%TO.C,L202*%
X14907854Y167540400D02*
X15233414Y167540400D01*
X14907854Y166520400D02*
X15233414Y166520400D01*
%TO.C,D601*%
X105098923Y166102176D02*
X105098923Y163417177D01*
X105098923Y163417177D02*
X107018923Y163417177D01*
X107018923Y163417177D02*
X107018923Y166102176D01*
%TO.C,R404*%
X123288758Y78188700D02*
X122814242Y78188700D01*
X123288758Y77143700D02*
X122814242Y77143700D01*
%TO.C,U502*%
X102244999Y87161200D02*
X102309999Y87161200D01*
X102244999Y83041200D02*
X102244999Y87161200D01*
X102309999Y83041200D02*
X102244999Y83041200D01*
X111050001Y87161200D02*
X111115001Y87161200D01*
X111115001Y87161200D02*
X111115001Y83041200D01*
X111115001Y83041200D02*
X111050001Y83041200D01*
X102310000Y82501200D02*
X101980000Y82261200D01*
X101980000Y82741200D01*
X102310000Y82501200D01*
G36*
X102310000Y82501200D02*
G01*
X101980000Y82261200D01*
X101980000Y82741200D01*
X102310000Y82501200D01*
G37*
%TO.C,R419*%
X129436727Y115360965D02*
X129101194Y115025432D01*
X130175654Y114622038D02*
X129840121Y114286505D01*
%TO.C,R602*%
X114934423Y164864918D02*
X114934423Y165339434D01*
X115979423Y164864918D02*
X115979423Y165339434D01*
%TO.C,C102*%
X41306636Y139616900D02*
X41090964Y139616900D01*
X41306636Y138896900D02*
X41090964Y138896900D01*
%TO.C,R101*%
X18601459Y142991100D02*
X18126943Y142991100D01*
X18601459Y141946100D02*
X18126943Y141946100D01*
%TO.C,R508*%
X112152405Y93742742D02*
X112152405Y94217258D01*
X113197405Y93742742D02*
X113197405Y94217258D01*
%TO.C,R423*%
X127281467Y117516225D02*
X126945934Y117180692D01*
X128020394Y116777298D02*
X127684861Y116441765D01*
%TO.C,R312*%
X32666833Y71450387D02*
X32666833Y70975871D01*
X33711833Y71450387D02*
X33711833Y70975871D01*
%TO.C,Q605*%
X104752923Y125981877D02*
X104802923Y125981877D01*
X104752923Y124461877D02*
X104752923Y125981877D01*
X105752923Y124461877D02*
X104752923Y124461877D01*
X105922923Y125981877D02*
X106702923Y125981877D01*
X107822923Y125981877D02*
X107872923Y125981877D01*
X107872923Y125981877D02*
X107872923Y124461877D01*
X107872923Y124461877D02*
X106872923Y124461877D01*
X106692923Y126521877D02*
X106362923Y126281877D01*
X106362923Y126761877D01*
X106692923Y126521877D01*
G36*
X106692923Y126521877D02*
G01*
X106362923Y126281877D01*
X106362923Y126761877D01*
X106692923Y126521877D01*
G37*
%TO.C,R309*%
X12964900Y122216144D02*
X12964900Y122690660D01*
X14009900Y122216144D02*
X14009900Y122690660D01*
%TO.C,R403*%
X110406841Y78061699D02*
X110881357Y78061699D01*
X110406841Y77016699D02*
X110881357Y77016699D01*
%TO.C,TP101*%
X31423301Y149107199D02*
G75*
G02*
X29523303Y149107199I-949999J0D01*
G01*
X29523303Y149107199D02*
G75*
G02*
X31423301Y149107199I949999J0D01*
G01*
%TO.C,D201*%
X8306000Y166912800D02*
X4446000Y166912800D01*
X8306000Y164912800D02*
X4446000Y164912800D01*
X8306000Y164912800D02*
X8306000Y166912800D01*
%TO.C,Q503*%
X88091295Y94740000D02*
X89091295Y94740000D01*
X88091295Y93220000D02*
X88091295Y94740000D01*
X88141295Y93220000D02*
X88091295Y93220000D01*
X90041295Y93220000D02*
X89261295Y93220000D01*
X90211295Y94740000D02*
X91211295Y94740000D01*
X91211295Y94740000D02*
X91211295Y93220000D01*
X91211295Y93220000D02*
X91161295Y93220000D01*
X89601295Y92440000D02*
X89271295Y92680000D01*
X89601295Y92920000D01*
X89601295Y92440000D01*
G36*
X89601295Y92440000D02*
G01*
X89271295Y92680000D01*
X89601295Y92920000D01*
X89601295Y92440000D01*
G37*
%TO.C,R109*%
X38440243Y159535701D02*
X38914759Y159535701D01*
X38440243Y158490701D02*
X38914759Y158490701D01*
%TO.C,C206*%
X19021218Y170740800D02*
X18740056Y170740800D01*
X19021218Y169720800D02*
X18740056Y169720800D01*
%TO.C,R609*%
X98041181Y123714676D02*
X97566665Y123714676D01*
X98041181Y122669676D02*
X97566665Y122669676D01*
%TO.C,Q504*%
X93207653Y94740000D02*
X94207653Y94740000D01*
X93207653Y93220000D02*
X93207653Y94740000D01*
X93257653Y93220000D02*
X93207653Y93220000D01*
X95157653Y93220000D02*
X94377653Y93220000D01*
X95327653Y94740000D02*
X96327653Y94740000D01*
X96327653Y94740000D02*
X96327653Y93220000D01*
X96327653Y93220000D02*
X96277653Y93220000D01*
X94717653Y92440000D02*
X94387653Y92680000D01*
X94717653Y92920000D01*
X94717653Y92440000D01*
G36*
X94717653Y92440000D02*
G01*
X94387653Y92680000D01*
X94717653Y92920000D01*
X94717653Y92440000D01*
G37*
%TO.C,R504*%
X91686974Y93742742D02*
X91686974Y94217258D01*
X92731974Y93742742D02*
X92731974Y94217258D01*
%TO.C,R408*%
X126502900Y86161342D02*
X126502900Y86635858D01*
X127547900Y86161342D02*
X127547900Y86635858D01*
D15*
%TO.C,SW303*%
X9147901Y112120000D02*
X21947901Y112120000D01*
X9147901Y106320000D02*
X9147901Y112120000D01*
X10087901Y111380000D02*
X10847901Y111380000D01*
X10087901Y110390000D02*
X10087901Y111380000D01*
X10087901Y107060000D02*
X10087901Y108050000D01*
X10847901Y111380000D02*
X10847901Y110390000D01*
X10847901Y108050000D02*
X10847901Y107060000D01*
X10847901Y107700000D02*
X22547901Y107700000D01*
X10847901Y107060000D02*
X10087901Y107060000D01*
X10847902Y110620000D02*
X22547901Y110620000D01*
X21947901Y112120000D02*
X21947901Y106320000D01*
X21947901Y106320000D02*
X9147901Y106320000D01*
X22547901Y110620000D02*
X22547901Y107700000D01*
D16*
X9047900Y106190000D02*
G75*
G02*
X8987902Y106190000I-29999J0D01*
G01*
X8987902Y106190000D02*
G75*
G02*
X9047900Y106190000I29999J0D01*
G01*
D14*
%TO.C,C207*%
X11411036Y169429818D02*
X11411036Y169710980D01*
X12431036Y169429818D02*
X12431036Y169710980D01*
D15*
%TO.C,RV101*%
X23559299Y147214500D02*
X30679301Y147214500D01*
X23559300Y144164500D02*
X23559299Y147214500D01*
X23559300Y140604500D02*
X23559300Y144164500D01*
X23559300Y140094500D02*
X23559300Y140604500D01*
X24069300Y140604500D02*
X24069300Y140094500D01*
X24069300Y140094500D02*
X23559300Y140094500D01*
X25089300Y140604500D02*
X24069300Y140604500D01*
X25089300Y140094500D02*
X25089300Y140604500D01*
X26609300Y140604500D02*
X26609300Y140094500D01*
X26609300Y140094500D02*
X25089300Y140094500D01*
X27119300Y142634499D02*
X27119300Y144674500D01*
X27629300Y140604500D02*
X26609300Y140604500D01*
X27629300Y140094500D02*
X27629300Y140604500D01*
X28139300Y143654499D02*
X26099300Y143654499D01*
X29149300Y140604500D02*
X29149300Y140094500D01*
X29149300Y140094500D02*
X27629300Y140094500D01*
X30169300Y140604500D02*
X29149300Y140604500D01*
X30169300Y140094500D02*
X30169300Y140604500D01*
X30679300Y144674500D02*
X30679300Y140604500D01*
X30679300Y140604500D02*
X30679300Y140094500D01*
X30679300Y140094500D02*
X30169300Y140094500D01*
X30679301Y147214500D02*
X30679300Y144164500D01*
X24579300Y146574500D02*
G75*
G02*
X24576635Y146574456I-12J-80000D01*
G01*
X27139300Y144794500D02*
G75*
G02*
X27119004Y144794497I-10000J-1140000D01*
G01*
D16*
X23469300Y139974499D02*
G75*
G02*
X23409300Y139974499I-30000J0D01*
G01*
X23409300Y139974499D02*
G75*
G02*
X23469300Y139974499I30000J0D01*
G01*
D14*
%TO.C,R411*%
X123288758Y75140701D02*
X122814242Y75140701D01*
X123288758Y74095701D02*
X122814242Y74095701D01*
%TO.C,R317*%
X12202900Y115068361D02*
X12202900Y114593845D01*
X13247900Y115068361D02*
X13247900Y114593845D01*
%TO.C,R511*%
X77961258Y91708500D02*
X77486742Y91708500D01*
X77961258Y90663500D02*
X77486742Y90663500D01*
%TO.C,R601*%
X103758423Y164864918D02*
X103758423Y165339434D01*
X104803423Y164864918D02*
X104803423Y165339434D01*
%TO.C,R205*%
X10490711Y152103560D02*
X10490711Y152410842D01*
X11250711Y152103560D02*
X11250711Y152410842D01*
%TO.C,Q509*%
X118789442Y94740000D02*
X119789442Y94740000D01*
X118789442Y93220000D02*
X118789442Y94740000D01*
X118839442Y93220000D02*
X118789442Y93220000D01*
X120739442Y93220000D02*
X119959442Y93220000D01*
X120909442Y94740000D02*
X121909442Y94740000D01*
X121909442Y94740000D02*
X121909442Y93220000D01*
X121909442Y93220000D02*
X121859442Y93220000D01*
X120299442Y92440000D02*
X119969442Y92680000D01*
X120299442Y92920000D01*
X120299442Y92440000D01*
G36*
X120299442Y92440000D02*
G01*
X119969442Y92680000D01*
X120299442Y92920000D01*
X120299442Y92440000D01*
G37*
%TO.C,U202*%
D18*
X9985510Y153346700D02*
G75*
G02*
X9825512Y153346700I-79999J0D01*
G01*
X9825512Y153346700D02*
G75*
G02*
X9985510Y153346700I79999J0D01*
G01*
D14*
%TO.C,R108*%
X35513402Y153687859D02*
X35513402Y153213343D01*
X36558402Y153687859D02*
X36558402Y153213343D01*
%TO.C,R615*%
X108330423Y153401434D02*
X108330423Y152926918D01*
X109375423Y153401434D02*
X109375423Y152926918D01*
%TO.C,R612*%
X98041181Y159046076D02*
X97566665Y159046076D01*
X98041181Y158001076D02*
X97566665Y158001076D01*
%TO.C,D305*%
X36293333Y79833129D02*
X36293333Y77148130D01*
X36293333Y77148130D02*
X38213333Y77148130D01*
X38213333Y77148130D02*
X38213333Y79833129D01*
%TO.C,R515*%
X98281258Y91708500D02*
X97806742Y91708500D01*
X98281258Y90663500D02*
X97806742Y90663500D01*
%TO.C,U401*%
X114514300Y78427000D02*
X119134300Y78427000D01*
X119134300Y72957000D02*
X114514300Y72957000D01*
X112964300Y77972000D02*
X112634300Y77732000D01*
X112634300Y78212001D01*
X112964300Y77972000D01*
G36*
X112964300Y77972000D02*
G01*
X112634300Y77732000D01*
X112634300Y78212001D01*
X112964300Y77972000D01*
G37*
%TO.C,D612*%
X96803923Y155785576D02*
X99488922Y155785576D01*
X99488922Y157705576D02*
X96803923Y157705576D01*
X99488922Y155785576D02*
X99488922Y157705576D01*
%TO.C,C403*%
X123623464Y116681701D02*
X123775967Y116834204D01*
X124132581Y116172584D02*
X124285084Y116325087D01*
%TO.C,R412*%
X107028642Y75013699D02*
X107503158Y75013699D01*
X107028642Y73968699D02*
X107503158Y73968699D01*
%TO.C,R506*%
X101919689Y93742742D02*
X101919689Y94217258D01*
X102964689Y93742742D02*
X102964689Y94217258D01*
%TO.C,R514*%
X93201258Y91708500D02*
X92726742Y91708500D01*
X93201258Y90663500D02*
X92726742Y90663500D01*
%TO.C,R519*%
X118855258Y91708500D02*
X118380742Y91708500D01*
X118855258Y90663500D02*
X118380742Y90663500D01*
%TO.C,R409*%
X107028642Y76537698D02*
X107503158Y76537698D01*
X107028642Y75492698D02*
X107503158Y75492698D01*
%TO.C,D309*%
X14280000Y79833129D02*
X14280000Y77148130D01*
X14280000Y77148130D02*
X16200000Y77148130D01*
X16200000Y77148130D02*
X16200000Y79833129D01*
%TO.C,R616*%
X111886423Y153401434D02*
X111886423Y152926918D01*
X112931423Y153401434D02*
X112931423Y152926918D01*
%TO.C,C602*%
X88392327Y147527998D02*
X88239824Y147375495D01*
X88901444Y147018881D02*
X88748941Y146866378D01*
%TO.C,D507*%
X108260000Y100079999D02*
X108260000Y97395000D01*
X108260000Y97395000D02*
X110180000Y97395000D01*
X110180000Y97395000D02*
X110180000Y100079999D01*
%TO.C,Q304*%
X57706667Y71973129D02*
X58706667Y71973129D01*
X57706667Y70453129D02*
X57706667Y71973129D01*
X57756667Y70453129D02*
X57706667Y70453129D01*
X59656667Y70453129D02*
X58876667Y70453129D01*
X59826667Y71973129D02*
X60826667Y71973129D01*
X60826667Y71973129D02*
X60826667Y70453129D01*
X60826667Y70453129D02*
X60776667Y70453129D01*
X59216667Y69673129D02*
X58886667Y69913129D01*
X59216667Y70153129D01*
X59216667Y69673129D01*
G36*
X59216667Y69673129D02*
G01*
X58886667Y69913129D01*
X59216667Y70153129D01*
X59216667Y69673129D01*
G37*
%TO.C,D602*%
X112718923Y166102176D02*
X112718923Y163417177D01*
X112718923Y163417177D02*
X114638923Y163417177D01*
X114638923Y163417177D02*
X114638923Y166102176D01*
%TO.C,U601*%
X124443529Y139823187D02*
X124489491Y139869149D01*
X127356809Y136909907D02*
X124443529Y139823187D01*
X127402771Y136955869D02*
X127356809Y136909907D01*
X130669605Y146049263D02*
X130715567Y146095225D01*
X130715567Y146095225D02*
X133628847Y143181945D01*
X133628847Y143181945D02*
X133582885Y143135983D01*
X130690818Y146494740D02*
X130287767Y146431100D01*
X130351407Y146834151D01*
X130690818Y146494740D01*
G36*
X130690818Y146494740D02*
G01*
X130287767Y146431100D01*
X130351407Y146834151D01*
X130690818Y146494740D01*
G37*
%TO.C,R202*%
X19067894Y172277299D02*
X18593378Y172277299D01*
X19067894Y171232299D02*
X18593378Y171232299D01*
%TO.C,R303*%
X45485281Y19486343D02*
X45485281Y19960859D01*
X46530281Y19486343D02*
X46530281Y19960859D01*
%TO.C,R201*%
X2576300Y166513742D02*
X2576300Y166988258D01*
X3621300Y166513742D02*
X3621300Y166988258D01*
%TO.C,R302*%
X47034680Y19486342D02*
X47034680Y19960858D01*
X48079680Y19486342D02*
X48079680Y19960858D01*
%TO.C,SW202*%
X2183800Y176307600D02*
X1383800Y176307600D01*
X2183800Y169407600D02*
X1383800Y169407600D01*
X3283800Y174457600D02*
X3283800Y172757600D01*
X3283800Y171457600D02*
X3283800Y171257600D01*
%TO.C,U201*%
X16784400Y158629400D02*
X16784400Y157369401D01*
X16784400Y151809400D02*
X16784400Y153069399D01*
X20544400Y158629401D02*
X16784400Y158629400D01*
X20544400Y151809399D02*
X16784400Y151809400D01*
X22064400Y151579400D02*
X21584400Y151579400D01*
X21824400Y151909400D01*
X22064400Y151579400D01*
G36*
X22064400Y151579400D02*
G01*
X21584400Y151579400D01*
X21824400Y151909400D01*
X22064400Y151579400D01*
G37*
%TO.C,R417*%
X131922066Y117830885D02*
X131586533Y117495352D01*
X132660993Y117091958D02*
X132325460Y116756425D01*
%TO.C,R605*%
X121696665Y134890676D02*
X122171181Y134890676D01*
X121696665Y133845676D02*
X122171181Y133845676D01*
%TO.C,Q607*%
X109365222Y150406176D02*
X110885222Y150406176D01*
X109365222Y150356176D02*
X109365222Y150406176D01*
X109365222Y148456176D02*
X109365222Y149236176D01*
X109365222Y147286176D02*
X109365222Y147336176D01*
X110885222Y150406176D02*
X110885222Y149406176D01*
X110885222Y148286176D02*
X110885222Y147286176D01*
X110885222Y147286176D02*
X109365222Y147286176D01*
X109065222Y148896176D02*
X108585222Y148896176D01*
X108825222Y149226176D01*
X109065222Y148896176D01*
G36*
X109065222Y148896176D02*
G01*
X108585222Y148896176D01*
X108825222Y149226176D01*
X109065222Y148896176D01*
G37*
%TO.C,D508*%
X113340000Y100079999D02*
X113340000Y97395000D01*
X113340000Y97395000D02*
X115260000Y97395000D01*
X115260000Y97395000D02*
X115260000Y100079999D01*
%TO.C,Q307*%
X35718733Y115599510D02*
X36718733Y115599510D01*
X35718733Y114079510D02*
X35718733Y115599510D01*
X35768733Y114079510D02*
X35718733Y114079510D01*
X37668733Y114079510D02*
X36888733Y114079510D01*
X37838733Y115599510D02*
X38838733Y115599510D01*
X38838733Y115599510D02*
X38838733Y114079510D01*
X38838733Y114079510D02*
X38788733Y114079510D01*
X37228733Y113299510D02*
X36898733Y113539510D01*
X37228733Y113779510D01*
X37228733Y113299510D01*
G36*
X37228733Y113299510D02*
G01*
X36898733Y113539510D01*
X37228733Y113779510D01*
X37228733Y113299510D01*
G37*
%TO.C,R510*%
X122385121Y93742742D02*
X122385121Y94217258D01*
X123430121Y93742742D02*
X123430121Y94217258D01*
%TO.C,R209*%
X32040301Y163978859D02*
X32040301Y163504343D01*
X33085301Y163978859D02*
X33085301Y163504343D01*
%TO.C,R617*%
X113918423Y128542918D02*
X113918423Y129017434D01*
X114963423Y128542918D02*
X114963423Y129017434D01*
%TO.C,D504*%
X93020000Y100079999D02*
X93020000Y97395000D01*
X93020000Y97395000D02*
X94940000Y97395000D01*
X94940000Y97395000D02*
X94940000Y100079999D01*
%TO.C,Q507*%
X108556726Y94740000D02*
X109556726Y94740000D01*
X108556726Y93220000D02*
X108556726Y94740000D01*
X108606726Y93220000D02*
X108556726Y93220000D01*
X110506726Y93220000D02*
X109726726Y93220000D01*
X110676726Y94740000D02*
X111676726Y94740000D01*
X111676726Y94740000D02*
X111676726Y93220000D01*
X111676726Y93220000D02*
X111626726Y93220000D01*
X110066726Y92440000D02*
X109736726Y92680000D01*
X110066726Y92920000D01*
X110066726Y92440000D01*
G36*
X110066726Y92440000D02*
G01*
X109736726Y92680000D01*
X110066726Y92920000D01*
X110066726Y92440000D01*
G37*
D15*
%TO.C,RV103*%
X10257599Y34954299D02*
X10257600Y38004299D01*
X10257600Y42074299D02*
X10767600Y42074299D01*
X10257600Y41564299D02*
X10257600Y42074299D01*
X10257600Y37494299D02*
X10257600Y41564299D01*
X10767600Y42074299D02*
X10767600Y41564299D01*
X10767600Y41564299D02*
X11787600Y41564299D01*
X11787600Y42074299D02*
X13307600Y42074299D01*
X11787600Y41564299D02*
X11787600Y42074299D01*
X12797600Y38514300D02*
X14837600Y38514300D01*
X13307600Y42074299D02*
X13307600Y41564299D01*
X13307600Y41564299D02*
X14327600Y41564299D01*
X13817600Y39534300D02*
X13817600Y37494299D01*
X14327600Y42074299D02*
X15847600Y42074299D01*
X14327600Y41564299D02*
X14327600Y42074299D01*
X15847600Y42074299D02*
X15847600Y41564299D01*
X15847600Y41564299D02*
X16867600Y41564299D01*
X16867600Y42074299D02*
X17377600Y42074299D01*
X16867600Y41564299D02*
X16867600Y42074299D01*
X17377600Y42074299D02*
X17377600Y41564299D01*
X17377600Y41564299D02*
X17377600Y38004299D01*
X17377600Y38004299D02*
X17377601Y34954299D01*
X17377601Y34954299D02*
X10257599Y34954299D01*
X13797600Y37374299D02*
G75*
G02*
X13817896Y37374302I10000J1140000D01*
G01*
X16357600Y35594299D02*
G75*
G02*
X16360265Y35594343I12J80000D01*
G01*
D16*
X17527600Y42194300D02*
G75*
G02*
X17467600Y42194300I-30000J0D01*
G01*
X17467600Y42194300D02*
G75*
G02*
X17527600Y42194300I30000J0D01*
G01*
D14*
%TO.C,D202*%
X9348911Y157427200D02*
X9348911Y155407200D01*
X9348911Y157427200D02*
X13108911Y157427200D01*
X9348911Y155407200D02*
X13108911Y155407200D01*
D15*
%TO.C,SW306*%
X9122501Y68457400D02*
X21922501Y68457400D01*
X9122501Y62657400D02*
X9122501Y68457400D01*
X10062501Y67717400D02*
X10822501Y67717400D01*
X10062501Y66727400D02*
X10062501Y67717400D01*
X10062501Y63397400D02*
X10062501Y64387400D01*
X10822501Y67717400D02*
X10822501Y66727400D01*
X10822501Y64387400D02*
X10822501Y63397400D01*
X10822501Y64037400D02*
X22522501Y64037400D01*
X10822501Y63397400D02*
X10062501Y63397400D01*
X10822502Y66957400D02*
X22522501Y66957400D01*
X21922501Y68457400D02*
X21922501Y62657400D01*
X21922501Y62657400D02*
X9122501Y62657400D01*
X22522501Y66957400D02*
X22522501Y64037400D01*
D16*
X9022500Y62527400D02*
G75*
G02*
X8962502Y62527400I-29999J0D01*
G01*
X8962502Y62527400D02*
G75*
G02*
X9022500Y62527400I29999J0D01*
G01*
D14*
%TO.C,L201*%
X10733331Y158933800D02*
X11058891Y158933800D01*
X10733331Y157913800D02*
X11058891Y157913800D01*
D15*
%TO.C,RV102*%
X1239392Y147171170D02*
X8359394Y147171170D01*
X1239393Y144121170D02*
X1239392Y147171170D01*
X1239393Y140561170D02*
X1239393Y144121170D01*
X1239393Y140051170D02*
X1239393Y140561170D01*
X1749393Y140561170D02*
X1749393Y140051170D01*
X1749393Y140051170D02*
X1239393Y140051170D01*
X2769393Y140561170D02*
X1749393Y140561170D01*
X2769393Y140051170D02*
X2769393Y140561170D01*
X4289393Y140561170D02*
X4289393Y140051170D01*
X4289393Y140051170D02*
X2769393Y140051170D01*
X4799393Y142591169D02*
X4799393Y144631170D01*
X5309393Y140561170D02*
X4289393Y140561170D01*
X5309393Y140051170D02*
X5309393Y140561170D01*
X5819393Y143611169D02*
X3779393Y143611169D01*
X6829393Y140561170D02*
X6829393Y140051170D01*
X6829393Y140051170D02*
X5309393Y140051170D01*
X7849393Y140561170D02*
X6829393Y140561170D01*
X7849393Y140051170D02*
X7849393Y140561170D01*
X8359393Y144631170D02*
X8359393Y140561170D01*
X8359393Y140561170D02*
X8359393Y140051170D01*
X8359393Y140051170D02*
X7849393Y140051170D01*
X8359394Y147171170D02*
X8359393Y144121170D01*
X2259393Y146531170D02*
G75*
G02*
X2256728Y146531126I-12J-80000D01*
G01*
X4819393Y144751170D02*
G75*
G02*
X4799097Y144751167I-10000J-1140000D01*
G01*
D16*
X1149393Y139931169D02*
G75*
G02*
X1089393Y139931169I-30000J0D01*
G01*
X1089393Y139931169D02*
G75*
G02*
X1149393Y139931169I30000J0D01*
G01*
D14*
%TO.C,R321*%
X54689377Y115079870D02*
X54689377Y114605354D01*
X55734377Y115079870D02*
X55734377Y114605354D01*
%TO.C,C402*%
X120061265Y79524800D02*
X120276937Y79524800D01*
X120061265Y78804800D02*
X120276937Y78804800D01*
%TO.C,D606*%
X120248924Y125930176D02*
X120248924Y124010176D01*
X120248924Y124010176D02*
X122933923Y124010176D01*
X122933923Y125930176D02*
X120248924Y125930176D01*
%TO.C,D302*%
X46480981Y27284800D02*
X49165980Y27284800D01*
X49165980Y29204800D02*
X46480981Y29204800D01*
X49165980Y27284800D02*
X49165980Y29204800D01*
%TO.C,U501*%
X81924999Y87150000D02*
X81989999Y87150000D01*
X81924999Y83030000D02*
X81924999Y87150000D01*
X81989999Y83030000D02*
X81924999Y83030000D01*
X90730001Y87150000D02*
X90795001Y87150000D01*
X90795001Y87150000D02*
X90795001Y83030000D01*
X90795001Y83030000D02*
X90730001Y83030000D01*
X81990000Y82490000D02*
X81660000Y82250000D01*
X81660000Y82730000D01*
X81990000Y82490000D01*
G36*
X81990000Y82490000D02*
G01*
X81660000Y82250000D01*
X81660000Y82730000D01*
X81990000Y82490000D01*
G37*
%TO.C,C503*%
X114854400Y87735236D02*
X114854400Y87519564D01*
X115574400Y87735236D02*
X115574400Y87519564D01*
%TO.C,R413*%
X78937911Y122210741D02*
X78937911Y122685257D01*
X79982911Y122210741D02*
X79982911Y122685257D01*
%TO.C,Q510*%
X123905800Y94740000D02*
X124905800Y94740000D01*
X123905800Y93220000D02*
X123905800Y94740000D01*
X123955800Y93220000D02*
X123905800Y93220000D01*
X125855800Y93220000D02*
X125075800Y93220000D01*
X126025800Y94740000D02*
X127025800Y94740000D01*
X127025800Y94740000D02*
X127025800Y93220000D01*
X127025800Y93220000D02*
X126975800Y93220000D01*
X125415800Y92440000D02*
X125085800Y92680000D01*
X125415800Y92920000D01*
X125415800Y92440000D01*
G36*
X125415800Y92440000D02*
G01*
X125085800Y92680000D01*
X125415800Y92920000D01*
X125415800Y92440000D01*
G37*
%TO.C,R619*%
X106781023Y128542918D02*
X106781023Y129017434D01*
X107826023Y128542918D02*
X107826023Y129017434D01*
%TO.C,D609*%
X96803923Y124010176D02*
X99488922Y124010176D01*
X99488922Y125930176D02*
X96803923Y125930176D01*
X99488922Y124010176D02*
X99488922Y125930176D01*
%TO.C,R621*%
X106804181Y150384676D02*
X106329665Y150384676D01*
X106804181Y149339676D02*
X106329665Y149339676D01*
%TO.C,R401*%
X107028642Y78061701D02*
X107503158Y78061701D01*
X107028642Y77016701D02*
X107503158Y77016701D01*
%TO.C,R316*%
X34190833Y71450387D02*
X34190833Y70975871D01*
X35235833Y71450387D02*
X35235833Y70975871D01*
%TO.C,R509*%
X117268763Y93742742D02*
X117268763Y94217258D01*
X118313763Y93742742D02*
X118313763Y94217258D01*
D15*
%TO.C,RV105*%
X10257599Y10257601D02*
X10257600Y13307601D01*
X10257600Y17377601D02*
X10767600Y17377601D01*
X10257600Y16867601D02*
X10257600Y17377601D01*
X10257600Y12797601D02*
X10257600Y16867601D01*
X10767600Y17377601D02*
X10767600Y16867601D01*
X10767600Y16867601D02*
X11787600Y16867601D01*
X11787600Y17377601D02*
X13307600Y17377601D01*
X11787600Y16867601D02*
X11787600Y17377601D01*
X12797600Y13817602D02*
X14837600Y13817602D01*
X13307600Y17377601D02*
X13307600Y16867601D01*
X13307600Y16867601D02*
X14327600Y16867601D01*
X13817600Y14837602D02*
X13817600Y12797601D01*
X14327600Y17377601D02*
X15847600Y17377601D01*
X14327600Y16867601D02*
X14327600Y17377601D01*
X15847600Y17377601D02*
X15847600Y16867601D01*
X15847600Y16867601D02*
X16867600Y16867601D01*
X16867600Y17377601D02*
X17377600Y17377601D01*
X16867600Y16867601D02*
X16867600Y17377601D01*
X17377600Y17377601D02*
X17377600Y16867601D01*
X17377600Y16867601D02*
X17377600Y13307601D01*
X17377600Y13307601D02*
X17377601Y10257601D01*
X17377601Y10257601D02*
X10257599Y10257601D01*
X13797600Y12677601D02*
G75*
G02*
X13817896Y12677604I10000J1140000D01*
G01*
X16357600Y10897601D02*
G75*
G02*
X16360265Y10897645I12J80000D01*
G01*
D16*
X17527600Y17497602D02*
G75*
G02*
X17467600Y17497602I-30000J0D01*
G01*
X17467600Y17497602D02*
G75*
G02*
X17527600Y17497602I30000J0D01*
G01*
D14*
%TO.C,SW201*%
X21389801Y162019601D02*
X21389802Y174479601D01*
X27016468Y171424601D02*
X27016468Y172694600D01*
X27016468Y168884602D02*
X27016468Y170154601D01*
X27016468Y166344600D02*
X27016468Y167614601D01*
X27016468Y163804601D02*
X27016468Y165074601D01*
X31289801Y174479601D02*
X21389802Y174479601D01*
X31289801Y162019601D02*
X21389801Y162019601D01*
X31289801Y162019601D02*
X31289801Y174479601D01*
X31529800Y161779601D02*
X30146801Y161779601D01*
X31529800Y161779601D02*
X31529801Y163162601D01*
X28369801Y171424601D02*
X24309801Y171424600D01*
X24309801Y172694601D01*
X28369800Y172694601D01*
X28369801Y171424601D01*
X28369801Y171424601D02*
X27016468Y171424601D01*
X27016468Y172694600D01*
X28369800Y172694601D01*
X28369801Y171424601D01*
G36*
X28369801Y171424601D02*
G01*
X27016468Y171424601D01*
X27016468Y172694600D01*
X28369800Y172694601D01*
X28369801Y171424601D01*
G37*
X28369801Y168884602D02*
X24309801Y168884601D01*
X24309801Y170154601D01*
X28369801Y170154601D01*
X28369801Y168884602D01*
X28369801Y168884602D02*
X27016468Y168884602D01*
X27016468Y170154601D01*
X28369801Y170154601D01*
X28369801Y168884602D01*
G36*
X28369801Y168884602D02*
G01*
X27016468Y168884602D01*
X27016468Y170154601D01*
X28369801Y170154601D01*
X28369801Y168884602D01*
G37*
X28369801Y166344600D02*
X24309801Y166344601D01*
X24309800Y167614601D01*
X28369801Y167614601D01*
X28369801Y166344600D01*
X28369801Y166344600D02*
X27016468Y166344600D01*
X27016468Y167614601D01*
X28369801Y167614601D01*
X28369801Y166344600D01*
G36*
X28369801Y166344600D02*
G01*
X27016468Y166344600D01*
X27016468Y167614601D01*
X28369801Y167614601D01*
X28369801Y166344600D01*
G37*
X28369801Y163804601D02*
X24309801Y163804601D01*
X24309801Y165074601D01*
X28369801Y165074601D01*
X28369801Y163804601D01*
X28369801Y163804601D02*
X27016468Y163804601D01*
X27016468Y165074601D01*
X28369801Y165074601D01*
X28369801Y163804601D01*
G36*
X28369801Y163804601D02*
G01*
X27016468Y163804601D01*
X27016468Y165074601D01*
X28369801Y165074601D01*
X28369801Y163804601D01*
G37*
%TO.C,U403*%
X120410046Y112035120D02*
X123676880Y115301954D01*
X127544754Y111434080D02*
X124277920Y108167246D01*
X119572125Y110214320D02*
X119232713Y110553732D01*
X119635764Y110617371D01*
X119572125Y110214320D01*
G36*
X119572125Y110214320D02*
G01*
X119232713Y110553732D01*
X119635764Y110617371D01*
X119572125Y110214320D01*
G37*
%TO.C,R315*%
X56204167Y71450387D02*
X56204167Y70975871D01*
X57249167Y71450387D02*
X57249167Y70975871D01*
%TO.C,Q301*%
X49469971Y33856198D02*
X49519971Y33856198D01*
X49469971Y32336198D02*
X49469971Y33856198D01*
X50469971Y32336198D02*
X49469971Y32336198D01*
X50639971Y33856198D02*
X51419971Y33856198D01*
X52539971Y33856198D02*
X52589971Y33856198D01*
X52589971Y33856198D02*
X52589971Y32336198D01*
X52589971Y32336198D02*
X51589971Y32336198D01*
X51409971Y34396198D02*
X51079971Y34156198D01*
X51079971Y34636198D01*
X51409971Y34396198D01*
G36*
X51409971Y34396198D02*
G01*
X51079971Y34156198D01*
X51079971Y34636198D01*
X51409971Y34396198D01*
G37*
%TO.C,R618*%
X110362423Y128542918D02*
X110362423Y129017434D01*
X111407423Y128542918D02*
X111407423Y129017434D01*
%TO.C,R501*%
X76337900Y93742742D02*
X76337900Y94217258D01*
X77382900Y93742742D02*
X77382900Y94217258D01*
%TO.C,U602*%
X86009975Y143288567D02*
X88923255Y146201847D01*
X86055937Y143242605D02*
X86009975Y143288567D01*
X88923255Y146201847D02*
X88969217Y146155885D01*
X92282013Y137016529D02*
X92236051Y137062491D01*
X95149331Y139975771D02*
X95195293Y139929809D01*
X95195293Y139929809D02*
X92282013Y137016529D01*
X85674100Y142860767D02*
X85271049Y142924407D01*
X85610460Y143263818D01*
X85674100Y142860767D01*
G36*
X85674100Y142860767D02*
G01*
X85271049Y142924407D01*
X85610460Y143263818D01*
X85674100Y142860767D01*
G37*
%TO.C,Q306*%
X13705400Y115593402D02*
X14705400Y115593402D01*
X13705400Y114073402D02*
X13705400Y115593402D01*
X13755400Y114073402D02*
X13705400Y114073402D01*
X15655400Y114073402D02*
X14875400Y114073402D01*
X15825400Y115593402D02*
X16825400Y115593402D01*
X16825400Y115593402D02*
X16825400Y114073402D01*
X16825400Y114073402D02*
X16775400Y114073402D01*
X15215400Y113293402D02*
X14885400Y113533402D01*
X15215400Y113773402D01*
X15215400Y113293402D01*
G36*
X15215400Y113293402D02*
G01*
X14885400Y113533402D01*
X15215400Y113773402D01*
X15215400Y113293402D01*
G37*
%TO.C,C401*%
X133929801Y81616436D02*
X133929801Y81400764D01*
X134649801Y81616436D02*
X134649801Y81400764D01*
%TO.C,C104*%
X28926200Y157664565D02*
X28926200Y157880237D01*
X29646200Y157664565D02*
X29646200Y157880237D01*
%TO.C,C202*%
X24294219Y160682400D02*
X24575381Y160682400D01*
X24294219Y159662400D02*
X24575381Y159662400D01*
%TO.C,Q601*%
X108308923Y157482475D02*
X109308923Y157482475D01*
X108308923Y155962475D02*
X108308923Y157482475D01*
X108358923Y155962475D02*
X108308923Y155962475D01*
X110258923Y155962475D02*
X109478923Y155962475D01*
X110428923Y157482475D02*
X111428923Y157482475D01*
X111428923Y157482475D02*
X111428923Y155962475D01*
X111428923Y155962475D02*
X111378923Y155962475D01*
X109818923Y155182475D02*
X109488923Y155422475D01*
X109818923Y155662475D01*
X109818923Y155182475D01*
G36*
X109818923Y155182475D02*
G01*
X109488923Y155422475D01*
X109818923Y155662475D01*
X109818923Y155182475D01*
G37*
%TO.C,R414*%
X118777518Y108476630D02*
X118441985Y108812163D01*
X119516445Y109215557D02*
X119180912Y109551090D01*
%TO.C,Q308*%
X57715877Y115602612D02*
X58715877Y115602612D01*
X57715877Y114082612D02*
X57715877Y115602612D01*
X57765877Y114082612D02*
X57715877Y114082612D01*
X59665877Y114082612D02*
X58885877Y114082612D01*
X59835877Y115602612D02*
X60835877Y115602612D01*
X60835877Y115602612D02*
X60835877Y114082612D01*
X60835877Y114082612D02*
X60785877Y114082612D01*
X59225877Y113302612D02*
X58895877Y113542612D01*
X59225877Y113782612D01*
X59225877Y113302612D01*
G36*
X59225877Y113302612D02*
G01*
X58895877Y113542612D01*
X59225877Y113782612D01*
X59225877Y113302612D01*
G37*
%TO.C,R516*%
X103615258Y91708500D02*
X103140742Y91708500D01*
X103615258Y90663500D02*
X103140742Y90663500D01*
%TO.C,J201*%
X6109400Y179881201D02*
X6109400Y172061201D01*
X6109400Y173661199D02*
X7029400Y173661200D01*
X6109400Y172061201D02*
X7029400Y172061200D01*
X7029400Y173661200D02*
X7309401Y173661200D01*
X7029400Y172061200D02*
X7029400Y173661200D01*
X8669400Y175521200D02*
X8669400Y179881200D01*
X9669400Y179881201D02*
X9669400Y175521200D01*
X9669400Y175521200D02*
X8669400Y175521200D01*
X10469400Y177621200D02*
X10469400Y179881200D01*
X10969400Y177621200D02*
X10969400Y179881201D01*
X11029400Y173661200D02*
X11029400Y172446200D01*
X11029400Y173661200D02*
X11309400Y173661200D01*
X11309400Y173661200D02*
X11309400Y172061200D01*
X11309400Y172061200D02*
X12229400Y172061200D01*
X12229400Y179881200D02*
X6109400Y179881201D01*
X12229400Y173661200D02*
X11309400Y173661200D01*
X12229400Y172061200D02*
X12229400Y179881200D01*
X7869399Y176021200D02*
X6869401Y176021200D01*
X6869400Y177621200D01*
X7869400Y177621200D01*
X7869399Y176021200D01*
X11469400Y176021200D02*
X10469400Y176021200D01*
X10469400Y177621200D01*
X11469400Y177621200D01*
X11469400Y176021200D01*
%TO.C,R106*%
X17105101Y144517341D02*
X17105101Y144991857D01*
X18150101Y144517341D02*
X18150101Y144991857D01*
%TO.C,R323*%
X56213377Y115079870D02*
X56213377Y114605354D01*
X57258377Y115079870D02*
X57258377Y114605354D01*
%TO.C,C101*%
X18641600Y144614019D02*
X18641600Y144895181D01*
X19661600Y144614019D02*
X19661600Y144895181D01*
%TO.C,C105*%
X36200600Y157598763D02*
X36200600Y157814435D01*
X36920600Y157598763D02*
X36920600Y157814435D01*
%TO.C,R613*%
X103758423Y141209434D02*
X103758423Y140734918D01*
X104803423Y141209434D02*
X104803423Y140734918D01*
%TO.C,R320*%
X12939500Y78595871D02*
X12939500Y79070387D01*
X13984500Y78595871D02*
X13984500Y79070387D01*
%TO.C,C103*%
X9810640Y141863399D02*
X9594968Y141863399D01*
X9810640Y141143399D02*
X9594968Y141143399D01*
%TO.C,D505*%
X98100000Y100079999D02*
X98100000Y97395000D01*
X98100000Y97395000D02*
X100020000Y97395000D01*
X100020000Y97395000D02*
X100020000Y100079999D01*
%TO.C,D614*%
X112718923Y142657175D02*
X112718923Y139972176D01*
X114638923Y142657175D02*
X112718923Y142657175D01*
X114638923Y139972176D02*
X114638923Y142657175D01*
%TO.C,D506*%
X103180000Y100079999D02*
X103180000Y97395000D01*
X103180000Y97395000D02*
X105100000Y97395000D01*
X105100000Y97395000D02*
X105100000Y100079999D01*
%TO.C,C203*%
X23479800Y156162403D02*
X23479800Y152242403D01*
X25389800Y156162403D02*
X23479800Y156162403D01*
X25389800Y152242403D02*
X25389800Y156162403D01*
%TO.C,Q602*%
X111864923Y157480176D02*
X112864923Y157480176D01*
X111864923Y155960176D02*
X111864923Y157480176D01*
X111914923Y155960176D02*
X111864923Y155960176D01*
X113814923Y155960176D02*
X113034923Y155960176D01*
X113984923Y157480176D02*
X114984923Y157480176D01*
X114984923Y157480176D02*
X114984923Y155960176D01*
X114984923Y155960176D02*
X114934923Y155960176D01*
X113374923Y155180176D02*
X113044923Y155420176D01*
X113374923Y155660176D01*
X113374923Y155180176D01*
G36*
X113374923Y155180176D02*
G01*
X113044923Y155420176D01*
X113374923Y155660176D01*
X113374923Y155180176D01*
G37*
%TO.C,Q502*%
X82974937Y94740000D02*
X83974937Y94740000D01*
X82974937Y93220000D02*
X82974937Y94740000D01*
X83024937Y93220000D02*
X82974937Y93220000D01*
X84924937Y93220000D02*
X84144937Y93220000D01*
X85094937Y94740000D02*
X86094937Y94740000D01*
X86094937Y94740000D02*
X86094937Y93220000D01*
X86094937Y93220000D02*
X86044937Y93220000D01*
X84484937Y92440000D02*
X84154937Y92680000D01*
X84484937Y92920000D01*
X84484937Y92440000D01*
G36*
X84484937Y92440000D02*
G01*
X84154937Y92680000D01*
X84484937Y92920000D01*
X84484937Y92440000D01*
G37*
%TO.C,R608*%
X103758423Y117079434D02*
X103758423Y116604918D01*
X104803423Y117079434D02*
X104803423Y116604918D01*
%TO.C,U104*%
X37099401Y156450399D02*
X37194400Y156450399D01*
X37099401Y152330399D02*
X37099401Y156450399D01*
X37194400Y152330399D02*
X37099401Y152330399D01*
X42124400Y156450399D02*
X42219399Y156450399D01*
X42219399Y156450399D02*
X42219399Y152330399D01*
X42219399Y152330399D02*
X42124400Y152330399D01*
X37189400Y151790399D02*
X36859400Y151550399D01*
X36859400Y152030399D01*
X37189400Y151790399D01*
G36*
X37189400Y151790399D02*
G01*
X36859400Y151550399D01*
X36859400Y152030399D01*
X37189400Y151790399D01*
G37*
%TO.C,Q302*%
X45920980Y33853901D02*
X45970980Y33853901D01*
X45920980Y32333901D02*
X45920980Y33853901D01*
X46920980Y32333901D02*
X45920980Y32333901D01*
X47090980Y33853901D02*
X47870980Y33853901D01*
X48990980Y33853901D02*
X49040980Y33853901D01*
X49040980Y33853901D02*
X49040980Y32333901D01*
X49040980Y32333901D02*
X48040980Y32333901D01*
X47860980Y34393901D02*
X47530980Y34153901D01*
X47530980Y34633901D01*
X47860980Y34393901D01*
G36*
X47860980Y34393901D02*
G01*
X47530980Y34153901D01*
X47530980Y34633901D01*
X47860980Y34393901D01*
G37*
%TO.C,R306*%
X44341689Y36884861D02*
X44341689Y36410345D01*
X45386689Y36884861D02*
X45386689Y36410345D01*
%TO.C,Q303*%
X42356789Y33851602D02*
X42406789Y33851602D01*
X42356789Y32331602D02*
X42356789Y33851602D01*
X43356789Y32331602D02*
X42356789Y32331602D01*
X43526789Y33851602D02*
X44306789Y33851602D01*
X45426789Y33851602D02*
X45476789Y33851602D01*
X45476789Y33851602D02*
X45476789Y32331602D01*
X45476789Y32331602D02*
X44476789Y32331602D01*
X44296789Y34391602D02*
X43966789Y34151602D01*
X43966789Y34631602D01*
X44296789Y34391602D01*
G36*
X44296789Y34391602D02*
G01*
X43966789Y34151602D01*
X43966789Y34631602D01*
X44296789Y34391602D01*
G37*
%TO.C,C205*%
X19021217Y173788800D02*
X18740055Y173788800D01*
X19021217Y172768800D02*
X18740055Y172768800D01*
%TO.C,D605*%
X120248924Y133550176D02*
X120248924Y131630176D01*
X120248924Y131630176D02*
X122933923Y131630176D01*
X122933923Y133550176D02*
X120248924Y133550176D01*
%TO.C,R301*%
X48587172Y19486341D02*
X48587172Y19960857D01*
X49632172Y19486341D02*
X49632172Y19960857D01*
%TO.C,R305*%
X47898280Y36887158D02*
X47898280Y36412642D01*
X48943280Y36887158D02*
X48943280Y36412642D01*
%TO.C,R420*%
X130514360Y114283338D02*
X130178827Y113947805D01*
X131253287Y113544411D02*
X130917754Y113208878D01*
%TO.C,D503*%
X87940000Y100079999D02*
X87940000Y97395000D01*
X87940000Y97395000D02*
X89860000Y97395000D01*
X89860000Y97395000D02*
X89860000Y100079999D01*
%TO.C,R610*%
X98041181Y134890676D02*
X97566665Y134890676D01*
X98041181Y133845676D02*
X97566665Y133845676D01*
D15*
%TO.C,SW101*%
X93828400Y29013889D02*
X106628400Y29013889D01*
X93828400Y23213889D02*
X93828400Y29013889D01*
X94768400Y28273889D02*
X95528400Y28273889D01*
X94768400Y27283889D02*
X94768400Y28273889D01*
X94768400Y23953889D02*
X94768400Y24943889D01*
X95528400Y28273889D02*
X95528400Y27283889D01*
X95528400Y27513889D02*
X107228400Y27513889D01*
X95528400Y24943889D02*
X95528400Y23953889D01*
X95528400Y24593889D02*
X107228400Y24593889D01*
X95528400Y23953889D02*
X94768400Y23953889D01*
X106628400Y29013889D02*
X106628400Y23213889D01*
X106628400Y23213889D02*
X93828400Y23213889D01*
X107228400Y27513889D02*
X107228400Y24593889D01*
D16*
X93728400Y23083889D02*
G75*
G02*
X93668400Y23083889I-30000J0D01*
G01*
X93668400Y23083889D02*
G75*
G02*
X93728400Y23083889I30000J0D01*
G01*
D14*
%TO.C,D510*%
X123500000Y100079999D02*
X123500000Y97395000D01*
X123500000Y97395000D02*
X125420000Y97395000D01*
X125420000Y97395000D02*
X125420000Y100079999D01*
%TO.C,R407*%
X110406843Y73489701D02*
X110881359Y73489701D01*
X110406843Y72444701D02*
X110881359Y72444701D01*
%TO.C,D608*%
X105098923Y118527175D02*
X105098923Y115842176D01*
X107018923Y118527175D02*
X105098923Y118527175D01*
X107018923Y115842176D02*
X107018923Y118527175D01*
%TO.C,D610*%
X96803923Y131630176D02*
X99488922Y131630176D01*
X99488922Y133550176D02*
X96803923Y133550176D01*
X99488922Y131630176D02*
X99488922Y133550176D01*
%TO.C,U503*%
X116113399Y87147400D02*
X116178399Y87147400D01*
X116113399Y83027400D02*
X116113399Y87147400D01*
X116178399Y83027400D02*
X116113399Y83027400D01*
X124918401Y87147400D02*
X124983401Y87147400D01*
X124983401Y87147400D02*
X124983401Y83027400D01*
X124983401Y83027400D02*
X124918401Y83027400D01*
X116178400Y82487400D02*
X115848400Y82247400D01*
X115848400Y82727400D01*
X116178400Y82487400D01*
G36*
X116178400Y82487400D02*
G01*
X115848400Y82247400D01*
X115848400Y82727400D01*
X116178400Y82487400D01*
G37*
%TO.C,R210*%
X32040300Y166976058D02*
X32040300Y166501542D01*
X33085300Y166976058D02*
X33085300Y166501542D01*
%TO.C,R410*%
X126502900Y83138742D02*
X126502900Y83613258D01*
X127547900Y83138742D02*
X127547900Y83613258D01*
%TO.C,R105*%
X21651702Y141943857D02*
X21651702Y141469341D01*
X22696702Y141943857D02*
X22696702Y141469341D01*
%TO.C,R505*%
X96803332Y93742742D02*
X96803332Y94217258D01*
X97848332Y93742742D02*
X97848332Y94217258D01*
%TO.C,R611*%
X98041181Y147870076D02*
X97566665Y147870076D01*
X98041181Y146825076D02*
X97566665Y146825076D01*
%TO.C,R102*%
X28223600Y153741659D02*
X28223600Y153267143D01*
X29268600Y153741659D02*
X29268600Y153267143D01*
%TO.C,R512*%
X83041258Y91708500D02*
X82566742Y91708500D01*
X83041258Y90663500D02*
X82566742Y90663500D01*
%TO.C,U102*%
X29818302Y156515399D02*
X29913301Y156515399D01*
X29818302Y152395399D02*
X29818302Y156515399D01*
X29913301Y152395399D02*
X29818302Y152395399D01*
X34843301Y156515399D02*
X34938300Y156515399D01*
X34938300Y156515399D02*
X34938300Y152395399D01*
X34938300Y152395399D02*
X34843301Y152395399D01*
X29908301Y151855399D02*
X29578301Y151615399D01*
X29578301Y152095399D01*
X29908301Y151855399D01*
G36*
X29908301Y151855399D02*
G01*
X29578301Y151615399D01*
X29578301Y152095399D01*
X29908301Y151855399D01*
G37*
%TO.C,U103*%
X31926403Y146443699D02*
X32206403Y146443699D01*
X31926403Y141823699D02*
X31926403Y146443699D01*
X32206403Y141823699D02*
X31926403Y141823699D01*
X42266403Y146443699D02*
X42546403Y146443699D01*
X42546403Y146443699D02*
X42546403Y141823699D01*
X42546403Y141823699D02*
X42266403Y141823699D01*
X42736403Y146883699D02*
X42266403Y147223699D01*
X42736403Y147563699D01*
X42736403Y146883699D01*
G36*
X42736403Y146883699D02*
G01*
X42266403Y147223699D01*
X42736403Y147563699D01*
X42736403Y146883699D01*
G37*
%TO.C,U402*%
X128176801Y82540199D02*
X128176801Y87160199D01*
X133646801Y87160199D02*
X133646801Y82540199D01*
X133191801Y88710199D02*
X132951801Y89040199D01*
X133431802Y89040199D01*
X133191801Y88710199D01*
G36*
X133191801Y88710199D02*
G01*
X132951801Y89040199D01*
X133431802Y89040199D01*
X133191801Y88710199D01*
G37*
%TO.C,TP201*%
X14233800Y180050800D02*
X18633800Y180050800D01*
X14233800Y175650800D02*
X14233800Y180050800D01*
X18633800Y180050800D02*
X18633800Y175650800D01*
X18633800Y175650800D02*
X14233800Y175650800D01*
%TO.C,R513*%
X88121258Y91708500D02*
X87646742Y91708500D01*
X88121258Y90663500D02*
X87646742Y90663500D01*
%TO.C,C106*%
X37280964Y149686600D02*
X37496636Y149686600D01*
X37280964Y148966600D02*
X37496636Y148966600D01*
%TO.C,C601*%
X134166481Y143457756D02*
X134013978Y143610259D01*
X134675598Y143966873D02*
X134523095Y144119376D01*
%TO.C,C107*%
X98469564Y30484400D02*
X98685236Y30484400D01*
X98469564Y29764400D02*
X98685236Y29764400D01*
%TO.C,R416*%
X130844433Y118908518D02*
X130508900Y118572985D01*
X131583360Y118169591D02*
X131247827Y117834058D01*
%TO.C,R206*%
X16069895Y173242499D02*
X15595379Y173242499D01*
X16069895Y172197499D02*
X15595379Y172197499D01*
%TO.C,D611*%
X96803923Y148165576D02*
X99488922Y148165576D01*
X99488922Y150085576D02*
X96803923Y150085576D01*
X99488922Y148165576D02*
X99488922Y150085576D01*
D15*
%TO.C,SW301*%
X53149168Y68457400D02*
X65949168Y68457400D01*
X53149168Y62657400D02*
X53149168Y68457400D01*
X54089168Y67717400D02*
X54849168Y67717400D01*
X54089168Y66727400D02*
X54089168Y67717400D01*
X54089168Y63397400D02*
X54089168Y64387400D01*
X54849168Y67717400D02*
X54849168Y66727400D01*
X54849168Y64387400D02*
X54849168Y63397400D01*
X54849168Y64037400D02*
X66549168Y64037400D01*
X54849168Y63397400D02*
X54089168Y63397400D01*
X54849169Y66957400D02*
X66549168Y66957400D01*
X65949168Y68457400D02*
X65949168Y62657400D01*
X65949168Y62657400D02*
X53149168Y62657400D01*
X66549168Y66957400D02*
X66549168Y64037400D01*
D16*
X53049167Y62527400D02*
G75*
G02*
X52989169Y62527400I-29999J0D01*
G01*
X52989169Y62527400D02*
G75*
G02*
X53049167Y62527400I29999J0D01*
G01*
D14*
%TO.C,R111*%
X101354658Y30646900D02*
X100880142Y30646900D01*
X101354658Y29601900D02*
X100880142Y29601900D01*
%TO.C,R502*%
X81454258Y93742742D02*
X81454258Y94217258D01*
X82499258Y93742742D02*
X82499258Y94217258D01*
%TO.C,U204*%
X14287636Y171638398D02*
X16107636Y171638398D01*
X14287636Y171588398D02*
X14287636Y171638398D01*
X14287636Y169688398D02*
X14287636Y170468398D01*
X14287636Y168518398D02*
X14287636Y168568398D01*
X16107636Y171638398D02*
X16107636Y171588398D01*
X16107636Y168568398D02*
X16107636Y168518398D01*
X16107636Y168518398D02*
X14287636Y168518398D01*
X16887636Y168238398D02*
X16407636Y168238398D01*
X16647636Y168568398D01*
X16887636Y168238398D01*
G36*
X16887636Y168238398D02*
G01*
X16407636Y168238398D01*
X16647636Y168568398D01*
X16887636Y168238398D01*
G37*
%TO.C,Q603*%
X111864923Y125981877D02*
X111914923Y125981877D01*
X111864923Y124461877D02*
X111864923Y125981877D01*
X112864923Y124461877D02*
X111864923Y124461877D01*
X113034923Y125981877D02*
X113814923Y125981877D01*
X114934923Y125981877D02*
X114984923Y125981877D01*
X114984923Y125981877D02*
X114984923Y124461877D01*
X114984923Y124461877D02*
X113984923Y124461877D01*
X113804923Y126521877D02*
X113474923Y126281877D01*
X113474923Y126761877D01*
X113804923Y126521877D01*
G36*
X113804923Y126521877D02*
G01*
X113474923Y126281877D01*
X113474923Y126761877D01*
X113804923Y126521877D01*
G37*
D15*
%TO.C,SW302*%
X31135834Y68457400D02*
X43935834Y68457400D01*
X31135834Y62657400D02*
X31135834Y68457400D01*
X32075834Y67717400D02*
X32835834Y67717400D01*
X32075834Y66727400D02*
X32075834Y67717400D01*
X32075834Y63397400D02*
X32075834Y64387400D01*
X32835834Y67717400D02*
X32835834Y66727400D01*
X32835834Y64387400D02*
X32835834Y63397400D01*
X32835834Y64037400D02*
X44535834Y64037400D01*
X32835834Y63397400D02*
X32075834Y63397400D01*
X32835835Y66957400D02*
X44535834Y66957400D01*
X43935834Y68457400D02*
X43935834Y62657400D01*
X43935834Y62657400D02*
X31135834Y62657400D01*
X44535834Y66957400D02*
X44535834Y64037400D01*
D16*
X31035833Y62527400D02*
G75*
G02*
X30975835Y62527400I-29999J0D01*
G01*
X30975835Y62527400D02*
G75*
G02*
X31035833Y62527400I29999J0D01*
G01*
D14*
%TO.C,R604*%
X121684334Y147920876D02*
X122158850Y147920876D01*
X121684334Y146875876D02*
X122158850Y146875876D01*
%TO.C,D306*%
X14305400Y123457211D02*
X14305400Y120772212D01*
X14305400Y120772212D02*
X16225400Y120772212D01*
X16225400Y120772212D02*
X16225400Y123457211D01*
%TO.C,D509*%
X118420000Y100079999D02*
X118420000Y97395000D01*
X118420000Y97395000D02*
X120340000Y97395000D01*
X120340000Y97395000D02*
X120340000Y100079999D01*
%TO.C,Q508*%
X113673084Y94740000D02*
X114673084Y94740000D01*
X113673084Y93220000D02*
X113673084Y94740000D01*
X113723084Y93220000D02*
X113673084Y93220000D01*
X115623084Y93220000D02*
X114843084Y93220000D01*
X115793084Y94740000D02*
X116793084Y94740000D01*
X116793084Y94740000D02*
X116793084Y93220000D01*
X116793084Y93220000D02*
X116743084Y93220000D01*
X115183084Y92440000D02*
X114853084Y92680000D01*
X115183084Y92920000D01*
X115183084Y92440000D01*
G36*
X115183084Y92440000D02*
G01*
X114853084Y92680000D01*
X115183084Y92920000D01*
X115183084Y92440000D01*
G37*
%TO.C,R421*%
X126203837Y118593855D02*
X125868304Y118258322D01*
X126942764Y117854928D02*
X126607231Y117519395D01*
%TO.C,R307*%
X56966167Y78595871D02*
X56966167Y79070387D01*
X58011167Y78595871D02*
X58011167Y79070387D01*
%TO.C,R415*%
X129760017Y119994775D02*
X129424484Y119659242D01*
X130498944Y119255848D02*
X130163411Y118920315D01*
%TO.C,R104*%
X18601458Y141467100D02*
X18126942Y141467100D01*
X18601458Y140422100D02*
X18126942Y140422100D01*
%TO.C,R107*%
X31150444Y159614899D02*
X31624960Y159614899D01*
X31150444Y158569899D02*
X31624960Y158569899D01*
%TO.C,R405*%
X110406842Y79585699D02*
X110881358Y79585699D01*
X110406842Y78540699D02*
X110881358Y78540699D01*
%TO.C,R402*%
X123288758Y76664701D02*
X122814242Y76664701D01*
X123288758Y75619701D02*
X122814242Y75619701D01*
%TO.C,R620*%
X104774423Y153401434D02*
X104774423Y152926918D01*
X105819423Y153401434D02*
X105819423Y152926918D01*
%TO.C,TP102*%
X16317001Y140157200D02*
G75*
G02*
X14417003Y140157200I-949999J0D01*
G01*
X14417003Y140157200D02*
G75*
G02*
X16317001Y140157200I949999J0D01*
G01*
%TO.C,R517*%
X108695258Y91708500D02*
X108220742Y91708500D01*
X108695258Y90663500D02*
X108220742Y90663500D01*
%TO.C,Q505*%
X98324011Y94740000D02*
X99324011Y94740000D01*
X98324011Y93220000D02*
X98324011Y94740000D01*
X98374011Y93220000D02*
X98324011Y93220000D01*
X100274011Y93220000D02*
X99494011Y93220000D01*
X100444011Y94740000D02*
X101444011Y94740000D01*
X101444011Y94740000D02*
X101444011Y93220000D01*
X101444011Y93220000D02*
X101394011Y93220000D01*
X99834011Y92440000D02*
X99504011Y92680000D01*
X99834011Y92920000D01*
X99834011Y92440000D01*
G36*
X99834011Y92440000D02*
G01*
X99504011Y92680000D01*
X99834011Y92920000D01*
X99834011Y92440000D01*
G37*
%TO.C,R103*%
X20127703Y141469341D02*
X20127703Y141943857D01*
X21172703Y141469341D02*
X21172703Y141943857D01*
%TO.C,Q506*%
X103440368Y94740000D02*
X104440368Y94740000D01*
X103440368Y93220000D02*
X103440368Y94740000D01*
X103490368Y93220000D02*
X103440368Y93220000D01*
X105390368Y93220000D02*
X104610368Y93220000D01*
X105560368Y94740000D02*
X106560368Y94740000D01*
X106560368Y94740000D02*
X106560368Y93220000D01*
X106560368Y93220000D02*
X106510368Y93220000D01*
X104950368Y92440000D02*
X104620368Y92680000D01*
X104950368Y92920000D01*
X104950368Y92440000D01*
G36*
X104950368Y92440000D02*
G01*
X104620368Y92680000D01*
X104950368Y92920000D01*
X104950368Y92440000D01*
G37*
D15*
%TO.C,RV104*%
X10257599Y22605950D02*
X10257600Y25655950D01*
X10257600Y29725950D02*
X10767600Y29725950D01*
X10257600Y29215950D02*
X10257600Y29725950D01*
X10257600Y25145950D02*
X10257600Y29215950D01*
X10767600Y29725950D02*
X10767600Y29215950D01*
X10767600Y29215950D02*
X11787600Y29215950D01*
X11787600Y29725950D02*
X13307600Y29725950D01*
X11787600Y29215950D02*
X11787600Y29725950D01*
X12797600Y26165951D02*
X14837600Y26165951D01*
X13307600Y29725950D02*
X13307600Y29215950D01*
X13307600Y29215950D02*
X14327600Y29215950D01*
X13817600Y27185951D02*
X13817600Y25145950D01*
X14327600Y29725950D02*
X15847600Y29725950D01*
X14327600Y29215950D02*
X14327600Y29725950D01*
X15847600Y29725950D02*
X15847600Y29215950D01*
X15847600Y29215950D02*
X16867600Y29215950D01*
X16867600Y29725950D02*
X17377600Y29725950D01*
X16867600Y29215950D02*
X16867600Y29725950D01*
X17377600Y29725950D02*
X17377600Y29215950D01*
X17377600Y29215950D02*
X17377600Y25655950D01*
X17377600Y25655950D02*
X17377601Y22605950D01*
X17377601Y22605950D02*
X10257599Y22605950D01*
X13797600Y25025950D02*
G75*
G02*
X13817896Y25025953I10000J1140000D01*
G01*
X16357600Y23245950D02*
G75*
G02*
X16360265Y23245994I12J80000D01*
G01*
D16*
X17527600Y29845951D02*
G75*
G02*
X17467600Y29845951I-30000J0D01*
G01*
X17467600Y29845951D02*
G75*
G02*
X17527600Y29845951I30000J0D01*
G01*
D14*
%TO.C,D604*%
X120236593Y150136376D02*
X120236593Y148216376D01*
X120236593Y148216376D02*
X122921592Y148216376D01*
X122921592Y150136376D02*
X120236593Y150136376D01*
%TO.C,R614*%
X114934423Y141209434D02*
X114934423Y140734918D01*
X115979423Y141209434D02*
X115979423Y140734918D01*
%TO.C,R606*%
X121696665Y123714676D02*
X122171181Y123714676D01*
X121696665Y122669676D02*
X122171181Y122669676D01*
%TO.C,D203*%
X20058834Y168134401D02*
X17398834Y168134401D01*
X20058834Y166434401D02*
X17398834Y166434401D01*
X20058834Y166434401D02*
X20058834Y168134401D01*
%TO.C,R518*%
X113775258Y91708500D02*
X113300742Y91708500D01*
X113775258Y90663500D02*
X113300742Y90663500D01*
D15*
%TO.C,SW304*%
X31161234Y112124200D02*
X43961234Y112124200D01*
X31161234Y106324200D02*
X31161234Y112124200D01*
X32101234Y111384200D02*
X32861234Y111384200D01*
X32101234Y110394200D02*
X32101234Y111384200D01*
X32101234Y107064200D02*
X32101234Y108054200D01*
X32861234Y111384200D02*
X32861234Y110394200D01*
X32861234Y108054200D02*
X32861234Y107064200D01*
X32861234Y107704200D02*
X44561234Y107704200D01*
X32861234Y107064200D02*
X32101234Y107064200D01*
X32861235Y110624200D02*
X44561234Y110624200D01*
X43961234Y112124200D02*
X43961234Y106324200D01*
X43961234Y106324200D02*
X31161234Y106324200D01*
X44561234Y110624200D02*
X44561234Y107704200D01*
D16*
X31061233Y106194200D02*
G75*
G02*
X31001235Y106194200I-29999J0D01*
G01*
X31001235Y106194200D02*
G75*
G02*
X31061233Y106194200I29999J0D01*
G01*
D14*
%TO.C,R211*%
X32040300Y169498744D02*
X32040300Y169973260D01*
X33085300Y169498744D02*
X33085300Y169973260D01*
%TO.C,D301*%
X47740181Y26983398D02*
X47740181Y24298399D01*
X49660181Y26983398D02*
X47740181Y26983398D01*
X49660181Y24298399D02*
X49660181Y26983398D01*
%TO.C,U101*%
X10978000Y147143198D02*
X15098000Y147143198D01*
X10978000Y147048199D02*
X10978000Y147143198D01*
X10978000Y142023200D02*
X10978000Y142118199D01*
X15098000Y147143198D02*
X15098000Y147048199D01*
X15098000Y142118199D02*
X15098000Y142023200D01*
X15098000Y142023200D02*
X10978000Y142023200D01*
X15878000Y141783199D02*
X15398000Y141783199D01*
X15638000Y142113199D01*
X15878000Y141783199D01*
G36*
X15878000Y141783199D02*
G01*
X15398000Y141783199D01*
X15638000Y142113199D01*
X15878000Y141783199D01*
G37*
%TO.C,D401*%
X80278411Y123447999D02*
X80278411Y120763000D01*
X80278411Y120763000D02*
X82198411Y120763000D01*
X82198411Y120763000D02*
X82198411Y123447999D01*
%TO.C,R607*%
X114934423Y117079434D02*
X114934423Y116604918D01*
X115979423Y117079434D02*
X115979423Y116604918D01*
%TO.C,R310*%
X34978233Y122219953D02*
X34978233Y122694469D01*
X36023233Y122219953D02*
X36023233Y122694469D01*
%TD*%
%LPC*%
D20*
%TO.C,R208*%
X9036849Y162556201D03*
X9036849Y163576199D03*
%TD*%
D21*
%TO.C,C201*%
X21850300Y159969200D03*
X19145300Y159969200D03*
%TD*%
D22*
%TO.C,D307*%
X37278733Y121519710D03*
X37278733Y123394712D03*
%TD*%
D23*
%TO.C,C502*%
X101346000Y88121200D03*
X101346000Y87161200D03*
%TD*%
D22*
%TO.C,D502*%
X83820000Y98142498D03*
X83820000Y100017500D03*
%TD*%
D24*
%TO.C,SW102*%
X119402700Y64516000D03*
X120123949Y66312051D03*
X121920000Y67033300D03*
X123716051Y66312051D03*
X124437300Y64516000D03*
X123716051Y62719949D03*
X121920000Y61998700D03*
X120123949Y62719949D03*
%TD*%
D25*
%TO.C,R203*%
X10371637Y168745399D03*
X10371637Y170395399D03*
%TD*%
D26*
%TO.C,R311*%
X55202667Y72038129D03*
X55202667Y70388129D03*
%TD*%
D27*
%TO.C,Q401*%
X80288411Y113890499D03*
X82188411Y113890499D03*
X81238411Y115765500D03*
%TD*%
%TO.C,Q305*%
X36303333Y70275629D03*
X38203333Y70275629D03*
X37253333Y72150630D03*
%TD*%
%TO.C,Q201*%
X5588000Y168275000D03*
X7488000Y168275000D03*
X6538000Y170150001D03*
%TD*%
D28*
%TO.C,D607*%
X113678923Y117779677D03*
X113678923Y115904675D03*
%TD*%
D29*
%TO.C,J202*%
X6724912Y155088400D03*
D30*
X6724912Y153068400D03*
D31*
X6724912Y151838400D03*
D29*
X6724912Y154088400D03*
D30*
X6724912Y156108400D03*
D31*
X6724912Y157338400D03*
D32*
X6544912Y158908400D03*
X2744912Y158908400D03*
X6544912Y150268400D03*
X2744912Y150268400D03*
%TD*%
D33*
%TO.C,R406*%
X109819100Y74491201D03*
X111469100Y74491201D03*
%TD*%
D34*
%TO.C,U203*%
X9905511Y152658000D03*
X9905511Y151958002D03*
%TD*%
D26*
%TO.C,R324*%
X12700000Y72038129D03*
X12700000Y70388129D03*
%TD*%
D35*
%TO.C,R418*%
X121699879Y106293196D03*
X120533153Y107459922D03*
%TD*%
D26*
%TO.C,R304*%
X51984971Y37477199D03*
X51984971Y35827199D03*
%TD*%
%TO.C,R422*%
X78698411Y115652999D03*
X78698411Y114002999D03*
%TD*%
D28*
%TO.C,D613*%
X106033523Y141909677D03*
X106033523Y140034675D03*
%TD*%
D36*
%TO.C,U205*%
X15871050Y161290000D03*
X15871050Y162560000D03*
X15871050Y163830000D03*
X15871050Y165100000D03*
X10921050Y165100000D03*
X10921050Y163830000D03*
X10921050Y162560000D03*
X10921050Y161290000D03*
D37*
X13396050Y163195000D03*
%TD*%
D33*
%TO.C,R603*%
X121108923Y158523576D03*
X122758923Y158523576D03*
%TD*%
D25*
%TO.C,R503*%
X87093116Y93155000D03*
X87093116Y94805000D03*
%TD*%
%TO.C,R212*%
X32562800Y171908200D03*
X32562800Y173558200D03*
%TD*%
D28*
%TO.C,D303*%
X46414180Y26233602D03*
X46414180Y24358600D03*
%TD*%
D38*
%TO.C,C208*%
X19136450Y165106300D03*
X19136450Y162401300D03*
%TD*%
D22*
%TO.C,D501*%
X78740000Y98142498D03*
X78740000Y100017500D03*
%TD*%
D26*
%TO.C,R318*%
X34738733Y115662211D03*
X34738733Y114012211D03*
%TD*%
D27*
%TO.C,Q309*%
X14290000Y70275629D03*
X16190000Y70275629D03*
X15240000Y72150630D03*
%TD*%
D39*
%TO.C,SW305*%
X54494569Y109224200D03*
X59574568Y109224200D03*
X64654567Y109224200D03*
%TD*%
D40*
%TO.C,H107*%
X134442200Y50800000D03*
%TD*%
D25*
%TO.C,R308*%
X35475333Y78008129D03*
X35475333Y79658129D03*
%TD*%
D24*
%TO.C,SW401*%
X80030000Y60896999D03*
X82530000Y60896999D03*
X80030000Y66897000D03*
X82530000Y66897000D03*
X80030001Y64897000D03*
X82529999Y64897000D03*
X80030000Y68897001D03*
X82530000Y68897001D03*
D41*
X81280000Y58547000D03*
X81280000Y71247000D03*
%TD*%
D26*
%TO.C,R314*%
X33214733Y115662211D03*
X33214733Y114012211D03*
%TD*%
D23*
%TO.C,C501*%
X81026000Y88095800D03*
X81026000Y87135800D03*
%TD*%
D42*
%TO.C,D603*%
X120996422Y156745576D03*
X122871424Y156745576D03*
%TD*%
D43*
%TO.C,C204*%
X24434800Y156959000D03*
X24434800Y158509000D03*
%TD*%
D22*
%TO.C,D304*%
X59266667Y77895628D03*
X59266667Y79770630D03*
%TD*%
%TO.C,D308*%
X59292067Y121519710D03*
X59292067Y123394712D03*
%TD*%
D44*
%TO.C,R110*%
X35750000Y149326600D03*
X34100000Y149326600D03*
%TD*%
D45*
%TO.C,Q604*%
X110818923Y126159377D03*
X108918923Y126159377D03*
X109868923Y124284376D03*
%TD*%
D46*
%TO.C,R204*%
X10870711Y154707498D03*
X10870711Y153687500D03*
%TD*%
D27*
%TO.C,Q501*%
X78468579Y93042500D03*
X80368579Y93042500D03*
X79418579Y94917501D03*
%TD*%
D44*
%TO.C,R520*%
X124523000Y91186000D03*
X122873000Y91186000D03*
%TD*%
D27*
%TO.C,Q606*%
X105362923Y155784975D03*
X107262923Y155784975D03*
X106312923Y157659976D03*
%TD*%
D44*
%TO.C,R207*%
X7589048Y161186599D03*
X5939048Y161186599D03*
%TD*%
D26*
%TO.C,R322*%
X11176000Y72038129D03*
X11176000Y70388129D03*
%TD*%
D25*
%TO.C,R507*%
X107558547Y93155000D03*
X107558547Y94805000D03*
%TD*%
%TO.C,R319*%
X57497877Y121637612D03*
X57497877Y123287612D03*
%TD*%
D47*
%TO.C,D204*%
X7726949Y162939199D03*
X5851947Y162939199D03*
%TD*%
D26*
%TO.C,R313*%
X11201400Y115656103D03*
X11201400Y114006103D03*
%TD*%
D48*
%TO.C,L202*%
X14283133Y167030400D03*
X15858135Y167030400D03*
%TD*%
D22*
%TO.C,D601*%
X106058923Y164164675D03*
X106058923Y166039677D03*
%TD*%
D44*
%TO.C,R404*%
X123876500Y77666200D03*
X122226500Y77666200D03*
%TD*%
D49*
%TO.C,U502*%
X102870000Y82626200D03*
X104140000Y82626200D03*
X105410000Y82626200D03*
X106680000Y82626200D03*
X107950000Y82626200D03*
X109220000Y82626200D03*
X110490000Y82626200D03*
X110490000Y87576200D03*
X109220000Y87576200D03*
X107950000Y87576200D03*
X106680000Y87576200D03*
X105410000Y87576200D03*
X104140000Y87576200D03*
X102870000Y87576200D03*
%TD*%
D50*
%TO.C,R419*%
X130221787Y115407098D03*
X129055061Y114240372D03*
%TD*%
D25*
%TO.C,R602*%
X115456923Y164277176D03*
X115456923Y165927176D03*
%TD*%
D51*
%TO.C,C102*%
X41678800Y139256900D03*
X40718800Y139256900D03*
%TD*%
D44*
%TO.C,R101*%
X19189201Y142468600D03*
X17539201Y142468600D03*
%TD*%
D25*
%TO.C,R508*%
X112674905Y93155000D03*
X112674905Y94805000D03*
%TD*%
D50*
%TO.C,R423*%
X128066527Y117562358D03*
X126899801Y116395632D03*
%TD*%
D26*
%TO.C,R312*%
X33189333Y72038129D03*
X33189333Y70388129D03*
%TD*%
D45*
%TO.C,Q605*%
X107262923Y126159377D03*
X105362923Y126159377D03*
X106312923Y124284376D03*
%TD*%
D25*
%TO.C,R309*%
X13487400Y121628402D03*
X13487400Y123278402D03*
%TD*%
D40*
%TO.C,H104*%
X71120000Y88874600D03*
%TD*%
D33*
%TO.C,R403*%
X109819099Y77539199D03*
X111469099Y77539199D03*
%TD*%
D52*
%TO.C,TP101*%
X30473302Y149107199D03*
%TD*%
D53*
%TO.C,D201*%
X7495999Y165912800D03*
X4696001Y165912800D03*
%TD*%
D27*
%TO.C,Q503*%
X88701295Y93042500D03*
X90601295Y93042500D03*
X89651295Y94917501D03*
%TD*%
D33*
%TO.C,R109*%
X37852501Y159013201D03*
X39502501Y159013201D03*
%TD*%
D54*
%TO.C,C206*%
X19655637Y170230800D03*
X18105637Y170230800D03*
%TD*%
D44*
%TO.C,R609*%
X98628923Y123192176D03*
X96978923Y123192176D03*
%TD*%
D27*
%TO.C,Q504*%
X93817653Y93042500D03*
X95717653Y93042500D03*
X94767653Y94917501D03*
%TD*%
D25*
%TO.C,R504*%
X92209474Y93155000D03*
X92209474Y94805000D03*
%TD*%
%TO.C,R408*%
X127025400Y85573600D03*
X127025400Y87223600D03*
%TD*%
D39*
%TO.C,SW303*%
X10467902Y109220000D03*
X15547901Y109220000D03*
X20627900Y109220000D03*
%TD*%
D43*
%TO.C,C207*%
X11921036Y168795399D03*
X11921036Y170345399D03*
%TD*%
D24*
%TO.C,RV101*%
X24579300Y143654500D03*
X27119300Y146194501D03*
X29659300Y143654500D03*
%TD*%
D44*
%TO.C,R411*%
X123876500Y74618201D03*
X122226500Y74618201D03*
%TD*%
D26*
%TO.C,R317*%
X12725400Y115656103D03*
X12725400Y114006103D03*
%TD*%
D44*
%TO.C,R511*%
X78549000Y91186000D03*
X76899000Y91186000D03*
%TD*%
D25*
%TO.C,R601*%
X104280923Y164277176D03*
X104280923Y165927176D03*
%TD*%
D20*
%TO.C,R205*%
X10870711Y151747202D03*
X10870711Y152767200D03*
%TD*%
D27*
%TO.C,Q509*%
X119399442Y93042500D03*
X121299442Y93042500D03*
X120349442Y94917501D03*
%TD*%
D55*
%TO.C,U202*%
X9905511Y153796700D03*
X9905511Y154496698D03*
%TD*%
D26*
%TO.C,R108*%
X36035902Y154275601D03*
X36035902Y152625601D03*
%TD*%
%TO.C,R615*%
X108852923Y153989176D03*
X108852923Y152339176D03*
%TD*%
D44*
%TO.C,R612*%
X98628923Y158523576D03*
X96978923Y158523576D03*
%TD*%
D22*
%TO.C,D305*%
X37253333Y77895628D03*
X37253333Y79770630D03*
%TD*%
D44*
%TO.C,R515*%
X98869000Y91186000D03*
X97219000Y91186000D03*
%TD*%
D56*
%TO.C,U401*%
X113961800Y77967000D03*
X113961800Y77317000D03*
X113961800Y76667000D03*
X113961800Y76017000D03*
X113961800Y75367000D03*
X113961800Y74717000D03*
X113961800Y74067000D03*
X113961800Y73417000D03*
X119686800Y73417000D03*
X119686800Y74067000D03*
X119686800Y74717000D03*
X119686800Y75367000D03*
X119686800Y76017000D03*
X119686800Y76667000D03*
X119686800Y77317000D03*
X119686800Y77967000D03*
%TD*%
D47*
%TO.C,D612*%
X98741424Y156745576D03*
X96866422Y156745576D03*
%TD*%
D57*
%TO.C,C403*%
X123614863Y116163983D03*
X124293685Y116842805D03*
%TD*%
D33*
%TO.C,R412*%
X106440900Y74491199D03*
X108090900Y74491199D03*
%TD*%
D25*
%TO.C,R506*%
X102442189Y93155000D03*
X102442189Y94805000D03*
%TD*%
D44*
%TO.C,R514*%
X93789000Y91186000D03*
X92139000Y91186000D03*
%TD*%
%TO.C,R519*%
X119443000Y91186000D03*
X117793000Y91186000D03*
%TD*%
D33*
%TO.C,R409*%
X106440900Y76015198D03*
X108090900Y76015198D03*
%TD*%
D22*
%TO.C,D309*%
X15240000Y77895628D03*
X15240000Y79770630D03*
%TD*%
D26*
%TO.C,R616*%
X112408923Y153989176D03*
X112408923Y152339176D03*
%TD*%
D58*
%TO.C,C602*%
X88910045Y147536599D03*
X88231223Y146857777D03*
%TD*%
D22*
%TO.C,D507*%
X109220000Y98142498D03*
X109220000Y100017500D03*
%TD*%
D27*
%TO.C,Q304*%
X58316667Y70275629D03*
X60216667Y70275629D03*
X59266667Y72150630D03*
%TD*%
D22*
%TO.C,D602*%
X113678923Y164164675D03*
X113678923Y166039677D03*
%TD*%
D59*
%TO.C,U601*%
X129980176Y145946732D03*
X129082150Y145048707D03*
X128184124Y144150681D03*
X127286099Y143252655D03*
X126388073Y142354630D03*
X125490047Y141456604D03*
X124592022Y140558578D03*
X128092200Y137058400D03*
X128990226Y137956425D03*
X129888252Y138854451D03*
X130786277Y139752477D03*
X131684303Y140650502D03*
X132582329Y141548528D03*
X133480354Y142446554D03*
%TD*%
D44*
%TO.C,R202*%
X19655636Y171754799D03*
X18005636Y171754799D03*
%TD*%
D25*
%TO.C,R303*%
X46007781Y18898601D03*
X46007781Y20548601D03*
%TD*%
%TO.C,R201*%
X3098800Y165926000D03*
X3098800Y167576000D03*
%TD*%
%TO.C,R302*%
X47557180Y18898600D03*
X47557180Y20548600D03*
%TD*%
D60*
%TO.C,SW202*%
X1783800Y174357600D03*
X1783800Y171357600D03*
D61*
X3733800Y175107600D03*
X3733800Y172107600D03*
X3733800Y170607600D03*
D62*
X2883800Y176532600D03*
X683800Y176532600D03*
X2883800Y169182600D03*
X683800Y169182600D03*
%TD*%
D63*
%TO.C,U201*%
X21844400Y152919400D03*
X21844399Y155219400D03*
D64*
X15544401Y155219400D03*
D63*
X21844400Y157519400D03*
%TD*%
D50*
%TO.C,R417*%
X132707126Y117877018D03*
X131540400Y116710292D03*
%TD*%
D33*
%TO.C,R605*%
X121108923Y134368176D03*
X122758923Y134368176D03*
%TD*%
D65*
%TO.C,Q607*%
X109187722Y149796176D03*
X109187722Y147896176D03*
X111062723Y148846176D03*
%TD*%
D22*
%TO.C,D508*%
X114300000Y98142498D03*
X114300000Y100017500D03*
%TD*%
D27*
%TO.C,Q307*%
X36328733Y113902010D03*
X38228733Y113902010D03*
X37278733Y115777011D03*
%TD*%
D25*
%TO.C,R510*%
X122907621Y93155000D03*
X122907621Y94805000D03*
%TD*%
D26*
%TO.C,R209*%
X32562801Y164566601D03*
X32562801Y162916601D03*
%TD*%
D40*
%TO.C,H101*%
X2590800Y162534600D03*
%TD*%
D25*
%TO.C,R617*%
X114440923Y127955176D03*
X114440923Y129605176D03*
%TD*%
D22*
%TO.C,D504*%
X93980000Y98142498D03*
X93980000Y100017500D03*
%TD*%
D27*
%TO.C,Q507*%
X109166726Y93042500D03*
X111066726Y93042500D03*
X110116726Y94917501D03*
%TD*%
D24*
%TO.C,RV103*%
X16357600Y38514299D03*
X13817600Y35974298D03*
X11277600Y38514299D03*
%TD*%
D66*
%TO.C,D202*%
X10258911Y156417200D03*
X13158911Y156417200D03*
%TD*%
D39*
%TO.C,SW306*%
X10442502Y65557400D03*
X15522501Y65557400D03*
X20602500Y65557400D03*
%TD*%
D48*
%TO.C,L201*%
X10108610Y158423800D03*
X11683612Y158423800D03*
%TD*%
D24*
%TO.C,RV102*%
X2259393Y143611170D03*
X4799393Y146151171D03*
X7339393Y143611170D03*
%TD*%
D26*
%TO.C,R321*%
X55211877Y115667612D03*
X55211877Y114017612D03*
%TD*%
D67*
%TO.C,C402*%
X119689101Y79164800D03*
X120649101Y79164800D03*
%TD*%
D42*
%TO.C,D606*%
X120996422Y124970176D03*
X122871424Y124970176D03*
%TD*%
D47*
%TO.C,D302*%
X48418482Y28244800D03*
X46543480Y28244800D03*
%TD*%
D49*
%TO.C,U501*%
X82550000Y82615000D03*
X83820000Y82615000D03*
X85090000Y82615000D03*
X86360000Y82615000D03*
X87630000Y82615000D03*
X88900000Y82615000D03*
X90170000Y82615000D03*
X90170000Y87565000D03*
X88900000Y87565000D03*
X87630000Y87565000D03*
X86360000Y87565000D03*
X85090000Y87565000D03*
X83820000Y87565000D03*
X82550000Y87565000D03*
%TD*%
D23*
%TO.C,C503*%
X115214400Y88107400D03*
X115214400Y87147400D03*
%TD*%
D25*
%TO.C,R413*%
X79460411Y121622999D03*
X79460411Y123272999D03*
%TD*%
D27*
%TO.C,Q510*%
X124515800Y93042500D03*
X126415800Y93042500D03*
X125465800Y94917501D03*
%TD*%
D25*
%TO.C,R619*%
X107303523Y127955176D03*
X107303523Y129605176D03*
%TD*%
D47*
%TO.C,D609*%
X98741424Y124970176D03*
X96866422Y124970176D03*
%TD*%
D44*
%TO.C,R621*%
X107391923Y149862176D03*
X105741923Y149862176D03*
%TD*%
D33*
%TO.C,R401*%
X106440900Y77539201D03*
X108090900Y77539201D03*
%TD*%
D26*
%TO.C,R316*%
X34713333Y72038129D03*
X34713333Y70388129D03*
%TD*%
D25*
%TO.C,R509*%
X117791263Y93155000D03*
X117791263Y94805000D03*
%TD*%
D24*
%TO.C,RV105*%
X16357600Y13817601D03*
X13817600Y11277600D03*
X11277600Y13817601D03*
%TD*%
D68*
%TO.C,SW201*%
X30149801Y164439601D03*
D69*
X30149801Y166979601D03*
X30149801Y169519600D03*
X30149801Y172059601D03*
X22529801Y172059601D03*
X22529801Y169519601D03*
X22529801Y166979601D03*
X22529801Y164439601D03*
%TD*%
D70*
%TO.C,U403*%
X120344639Y111319175D03*
X120804258Y110859555D03*
X121263878Y110399936D03*
X121723497Y109940317D03*
X122183117Y109480697D03*
X122642736Y109021078D03*
X123102355Y108561458D03*
X123561975Y108101839D03*
X127610161Y112150025D03*
X127150542Y112609645D03*
X126690922Y113069264D03*
X126231303Y113528883D03*
X125771683Y113988503D03*
X125312064Y114448122D03*
X124852445Y114907742D03*
X124392825Y115367361D03*
%TD*%
D26*
%TO.C,R315*%
X56726667Y72038129D03*
X56726667Y70388129D03*
%TD*%
D45*
%TO.C,Q301*%
X51979971Y34033698D03*
X50079971Y34033698D03*
X51029971Y32158697D03*
%TD*%
D25*
%TO.C,R618*%
X110884923Y127955176D03*
X110884923Y129605176D03*
%TD*%
D40*
%TO.C,H103*%
X2743200Y88874600D03*
%TD*%
D25*
%TO.C,R501*%
X76860400Y93155000D03*
X76860400Y94805000D03*
%TD*%
D71*
%TO.C,U602*%
X86158468Y142553176D03*
X87056493Y141655150D03*
X87954519Y140757124D03*
X88852545Y139859099D03*
X89750570Y138961073D03*
X90648596Y138063047D03*
X91546622Y137165022D03*
X95046800Y140665200D03*
X94148775Y141563226D03*
X93250749Y142461252D03*
X92352723Y143359277D03*
X91454698Y144257303D03*
X90556672Y145155329D03*
X89658646Y146053354D03*
%TD*%
D27*
%TO.C,Q306*%
X14315400Y113895902D03*
X16215400Y113895902D03*
X15265400Y115770903D03*
%TD*%
D23*
%TO.C,C401*%
X134289801Y81988600D03*
X134289801Y81028600D03*
%TD*%
D72*
%TO.C,C104*%
X29286200Y157292401D03*
X29286200Y158252401D03*
%TD*%
D73*
%TO.C,C202*%
X23659800Y160172400D03*
X25209800Y160172400D03*
%TD*%
D27*
%TO.C,Q601*%
X108918923Y155784975D03*
X110818923Y155784975D03*
X109868923Y157659976D03*
%TD*%
D35*
%TO.C,R414*%
X119562578Y108430497D03*
X118395852Y109597223D03*
%TD*%
D27*
%TO.C,Q308*%
X58325877Y113905112D03*
X60225877Y113905112D03*
X59275877Y115780113D03*
%TD*%
D44*
%TO.C,R516*%
X104203000Y91186000D03*
X102553000Y91186000D03*
%TD*%
D74*
%TO.C,J201*%
X10169400Y173521200D03*
D75*
X8169399Y173521200D03*
%TD*%
D25*
%TO.C,R106*%
X17627601Y143929599D03*
X17627601Y145579599D03*
%TD*%
D26*
%TO.C,R323*%
X56735877Y115667612D03*
X56735877Y114017612D03*
%TD*%
D43*
%TO.C,C101*%
X19151600Y143979600D03*
X19151600Y145529600D03*
%TD*%
D72*
%TO.C,C105*%
X36560600Y157226599D03*
X36560600Y158186599D03*
%TD*%
D26*
%TO.C,R613*%
X104280923Y141797176D03*
X104280923Y140147176D03*
%TD*%
D25*
%TO.C,R320*%
X13462000Y78008129D03*
X13462000Y79658129D03*
%TD*%
D51*
%TO.C,C103*%
X10182804Y141503399D03*
X9222804Y141503399D03*
%TD*%
D22*
%TO.C,D505*%
X99060000Y98142498D03*
X99060000Y100017500D03*
%TD*%
D28*
%TO.C,D614*%
X113678923Y141909677D03*
X113678923Y140034675D03*
%TD*%
D22*
%TO.C,D506*%
X104140000Y98142498D03*
X104140000Y100017500D03*
%TD*%
D38*
%TO.C,C203*%
X24434800Y155194903D03*
X24434800Y152489903D03*
%TD*%
D27*
%TO.C,Q602*%
X112474923Y155782676D03*
X114374923Y155782676D03*
X113424923Y157657677D03*
%TD*%
%TO.C,Q502*%
X83584937Y93042500D03*
X85484937Y93042500D03*
X84534937Y94917501D03*
%TD*%
D26*
%TO.C,R608*%
X104280923Y117667176D03*
X104280923Y116017176D03*
%TD*%
D49*
%TO.C,U104*%
X37754400Y151915399D03*
X39024400Y151915399D03*
X40294400Y151915399D03*
X41564400Y151915399D03*
X41564400Y156865399D03*
X40294400Y156865399D03*
X39024400Y156865399D03*
X37754400Y156865399D03*
%TD*%
D40*
%TO.C,H109*%
X29159200Y177749200D03*
%TD*%
D45*
%TO.C,Q302*%
X48430980Y34031401D03*
X46530980Y34031401D03*
X47480980Y32156400D03*
%TD*%
D26*
%TO.C,R306*%
X44864189Y37472603D03*
X44864189Y35822603D03*
%TD*%
D45*
%TO.C,Q303*%
X44866789Y34029102D03*
X42966789Y34029102D03*
X43916789Y32154101D03*
%TD*%
D54*
%TO.C,C205*%
X19655636Y173278800D03*
X18105636Y173278800D03*
%TD*%
D42*
%TO.C,D605*%
X120996422Y132590176D03*
X122871424Y132590176D03*
%TD*%
D25*
%TO.C,R301*%
X49109672Y18898599D03*
X49109672Y20548599D03*
%TD*%
D26*
%TO.C,R305*%
X48420780Y37474900D03*
X48420780Y35824900D03*
%TD*%
D50*
%TO.C,R420*%
X131299420Y114329471D03*
X130132694Y113162745D03*
%TD*%
D22*
%TO.C,D503*%
X88900000Y98142498D03*
X88900000Y100017500D03*
%TD*%
D44*
%TO.C,R610*%
X98628923Y134368176D03*
X96978923Y134368176D03*
%TD*%
D39*
%TO.C,SW101*%
X95148400Y26113889D03*
X100228400Y26113889D03*
X105308400Y26113889D03*
%TD*%
D22*
%TO.C,D510*%
X124460000Y98142498D03*
X124460000Y100017500D03*
%TD*%
D33*
%TO.C,R407*%
X109819101Y72967201D03*
X111469101Y72967201D03*
%TD*%
D28*
%TO.C,D608*%
X106058923Y117779677D03*
X106058923Y115904675D03*
%TD*%
D47*
%TO.C,D610*%
X98741424Y132590176D03*
X96866422Y132590176D03*
%TD*%
D49*
%TO.C,U503*%
X116738400Y82612400D03*
X118008400Y82612400D03*
X119278400Y82612400D03*
X120548400Y82612400D03*
X121818400Y82612400D03*
X123088400Y82612400D03*
X124358400Y82612400D03*
X124358400Y87562400D03*
X123088400Y87562400D03*
X121818400Y87562400D03*
X120548400Y87562400D03*
X119278400Y87562400D03*
X118008400Y87562400D03*
X116738400Y87562400D03*
%TD*%
D26*
%TO.C,R210*%
X32562800Y167563800D03*
X32562800Y165913800D03*
%TD*%
D25*
%TO.C,R410*%
X127025400Y82551000D03*
X127025400Y84201000D03*
%TD*%
D26*
%TO.C,R105*%
X22174202Y142531599D03*
X22174202Y140881599D03*
%TD*%
D25*
%TO.C,R505*%
X97325832Y93155000D03*
X97325832Y94805000D03*
%TD*%
D44*
%TO.C,R611*%
X98628923Y147347576D03*
X96978923Y147347576D03*
%TD*%
D26*
%TO.C,R102*%
X28746100Y154329401D03*
X28746100Y152679401D03*
%TD*%
D44*
%TO.C,R512*%
X83629000Y91186000D03*
X81979000Y91186000D03*
%TD*%
D49*
%TO.C,U102*%
X30473301Y151980399D03*
X31743301Y151980399D03*
X33013301Y151980399D03*
X34283301Y151980399D03*
X34283301Y156930399D03*
X33013301Y156930399D03*
X31743301Y156930399D03*
X30473301Y156930399D03*
%TD*%
D76*
%TO.C,U103*%
X41681403Y147221199D03*
X40411403Y147221199D03*
X39141403Y147221199D03*
X37871403Y147221199D03*
X36601403Y147221199D03*
X35331403Y147221199D03*
X34061403Y147221199D03*
X32791403Y147221199D03*
X32791403Y141046199D03*
X34061403Y141046199D03*
X35331403Y141046199D03*
X36601403Y141046199D03*
X37871403Y141046199D03*
X39141403Y141046199D03*
X40411403Y141046199D03*
X41681403Y141046199D03*
%TD*%
D77*
%TO.C,U402*%
X133186801Y87712699D03*
X132536801Y87712699D03*
X131886801Y87712699D03*
X131236801Y87712699D03*
X130586801Y87712699D03*
X129936801Y87712699D03*
X129286801Y87712699D03*
X128636801Y87712699D03*
X128636801Y81987699D03*
X129286801Y81987699D03*
X129936801Y81987699D03*
X130586801Y81987699D03*
X131236801Y81987699D03*
X131886801Y81987699D03*
X132536801Y81987699D03*
X133186801Y81987699D03*
%TD*%
D78*
%TO.C,TP201*%
X16433800Y177850800D03*
%TD*%
D44*
%TO.C,R513*%
X88709000Y91186000D03*
X87059000Y91186000D03*
%TD*%
D67*
%TO.C,C106*%
X36908800Y149326600D03*
X37868800Y149326600D03*
%TD*%
D79*
%TO.C,C601*%
X134684199Y143449155D03*
X134005377Y144127977D03*
%TD*%
D67*
%TO.C,C107*%
X98097400Y30124400D03*
X99057400Y30124400D03*
%TD*%
D50*
%TO.C,R416*%
X131629493Y118954651D03*
X130462767Y117787925D03*
%TD*%
D44*
%TO.C,R206*%
X16657637Y172719999D03*
X15007637Y172719999D03*
%TD*%
D40*
%TO.C,H106*%
X134391400Y2743200D03*
%TD*%
D47*
%TO.C,D611*%
X98741424Y149125576D03*
X96866422Y149125576D03*
%TD*%
D39*
%TO.C,SW301*%
X54469169Y65557400D03*
X59549168Y65557400D03*
X64629167Y65557400D03*
%TD*%
D44*
%TO.C,R111*%
X101942400Y30124400D03*
X100292400Y30124400D03*
%TD*%
D25*
%TO.C,R502*%
X81976758Y93155000D03*
X81976758Y94805000D03*
%TD*%
D80*
%TO.C,U204*%
X16335136Y169128399D03*
X16335136Y170078398D03*
X16335136Y171028397D03*
X14060136Y171028397D03*
X14060136Y169128399D03*
%TD*%
D45*
%TO.C,Q603*%
X114374923Y126159377D03*
X112474923Y126159377D03*
X113424923Y124284376D03*
%TD*%
D39*
%TO.C,SW302*%
X32455835Y65557400D03*
X37535834Y65557400D03*
X42615833Y65557400D03*
%TD*%
D33*
%TO.C,R604*%
X121096592Y147398376D03*
X122746592Y147398376D03*
%TD*%
D40*
%TO.C,H105*%
X2768600Y2768600D03*
%TD*%
D22*
%TO.C,D306*%
X15265400Y121519710D03*
X15265400Y123394712D03*
%TD*%
%TO.C,D509*%
X119380000Y98142498D03*
X119380000Y100017500D03*
%TD*%
D27*
%TO.C,Q508*%
X114283084Y93042500D03*
X116183084Y93042500D03*
X115233084Y94917501D03*
%TD*%
D50*
%TO.C,R421*%
X126988897Y118639988D03*
X125822171Y117473262D03*
%TD*%
D25*
%TO.C,R307*%
X57488667Y78008129D03*
X57488667Y79658129D03*
%TD*%
D50*
%TO.C,R415*%
X130545077Y120040908D03*
X129378351Y118874182D03*
%TD*%
D40*
%TO.C,H102*%
X134391400Y177571400D03*
%TD*%
D44*
%TO.C,R104*%
X19189200Y140944600D03*
X17539200Y140944600D03*
%TD*%
D33*
%TO.C,R107*%
X30562702Y159092399D03*
X32212702Y159092399D03*
%TD*%
%TO.C,R405*%
X109819100Y79063199D03*
X111469100Y79063199D03*
%TD*%
D44*
%TO.C,R402*%
X123876500Y76142201D03*
X122226500Y76142201D03*
%TD*%
D26*
%TO.C,R620*%
X105296923Y153989176D03*
X105296923Y152339176D03*
%TD*%
D52*
%TO.C,TP102*%
X15367002Y140157200D03*
%TD*%
D44*
%TO.C,R517*%
X109283000Y91186000D03*
X107633000Y91186000D03*
%TD*%
D27*
%TO.C,Q505*%
X98934011Y93042500D03*
X100834011Y93042500D03*
X99884011Y94917501D03*
%TD*%
D40*
%TO.C,H108*%
X71120000Y50774600D03*
%TD*%
D25*
%TO.C,R103*%
X20650203Y140881599D03*
X20650203Y142531599D03*
%TD*%
D27*
%TO.C,Q506*%
X104050368Y93042500D03*
X105950368Y93042500D03*
X105000368Y94917501D03*
%TD*%
D24*
%TO.C,RV104*%
X16357600Y26165950D03*
X13817600Y23625949D03*
X11277600Y26165950D03*
%TD*%
D42*
%TO.C,D604*%
X120984091Y149176376D03*
X122859093Y149176376D03*
%TD*%
D26*
%TO.C,R614*%
X115456923Y141797176D03*
X115456923Y140147176D03*
%TD*%
D33*
%TO.C,R606*%
X121108923Y123192176D03*
X122758923Y123192176D03*
%TD*%
D81*
%TO.C,D203*%
X19498834Y167284401D03*
X17398834Y167284401D03*
%TD*%
D44*
%TO.C,R518*%
X114363000Y91186000D03*
X112713000Y91186000D03*
%TD*%
D39*
%TO.C,SW304*%
X32481235Y109224200D03*
X37561234Y109224200D03*
X42641233Y109224200D03*
%TD*%
D25*
%TO.C,R211*%
X32562800Y168911002D03*
X32562800Y170561002D03*
%TD*%
D28*
%TO.C,D301*%
X48700181Y26235900D03*
X48700181Y24360898D03*
%TD*%
D82*
%TO.C,U101*%
X15513000Y142678199D03*
X15513000Y143948199D03*
X15513000Y145218199D03*
X15513000Y146488199D03*
X10563000Y146488199D03*
X10563000Y145218199D03*
X10563000Y143948199D03*
X10563000Y142678199D03*
%TD*%
D22*
%TO.C,D401*%
X81238411Y121510498D03*
X81238411Y123385500D03*
%TD*%
D26*
%TO.C,R607*%
X115456923Y117667176D03*
X115456923Y116017176D03*
%TD*%
D25*
%TO.C,R310*%
X35500733Y121632211D03*
X35500733Y123282211D03*
%TD*%
%LPD*%
M02*
