%TF.GenerationSoftware,KiCad,Pcbnew,9.0.9*%
%TF.CreationDate,2026-09-27T14:47:07+02:00*%
%TF.ProjectId,busy-board,62757379-2d62-46f6-9172-642e6b696361,1.1.0*%
%TF.SameCoordinates,PXe88b40PYba85060*%
%TF.FileFunction,Soldermask,Top*%
%TF.FilePolarity,Negative*%
%FSLAX46Y46*%
G04 Gerber Fmt 4.6, Leading zero omitted, Abs format (unit mm)*
G04 Created by KiCad (PCBNEW 9.0.9) date 2026-09-27 14:47:07*
%MOMM*%
%LPD*%
G01*
G04 APERTURE LIST*
G04 Aperture macros list*
%AMRoundRect*
0 Rectangle with rounded corners*
0 $1 Rounding radius*
0 $2 $3 $4 $5 $6 $7 $8 $9 X,Y pos of 4 corners*
0 Add a 4 corners polygon primitive as box body*
4,1,4,$2,$3,$4,$5,$6,$7,$8,$9,$2,$3,0*
0 Add four circle primitives for the rounded corners*
1,1,$1+$1,$2,$3*
1,1,$1+$1,$4,$5*
1,1,$1+$1,$6,$7*
1,1,$1+$1,$8,$9*
0 Add four rect primitives between the rounded corners*
20,1,$1+$1,$2,$3,$4,$5,0*
20,1,$1+$1,$4,$5,$6,$7,0*
20,1,$1+$1,$6,$7,$8,$9,0*
20,1,$1+$1,$8,$9,$2,$3,0*%
G04 Aperture macros list end*
%ADD10RoundRect,0.160000X0.210000X-0.160000X0.210000X0.160000X-0.210000X0.160000X-0.210000X-0.160000X0*%
%ADD11RoundRect,0.267985X0.489515X0.477015X-0.489515X0.477015X-0.489515X-0.477015X0.489515X-0.477015X0*%
%ADD12RoundRect,0.268750X0.481250X-0.268750X0.481250X0.268750X-0.481250X0.268750X-0.481250X-0.268750X0*%
%ADD13RoundRect,0.165000X-0.195000X0.165000X-0.195000X-0.165000X0.195000X-0.165000X0.195000X0.165000X0*%
%ADD14C,1.624000*%
%ADD15RoundRect,0.225000X0.300000X-0.225000X0.300000X0.225000X-0.300000X0.225000X-0.300000X-0.225000X0*%
%ADD16RoundRect,0.225000X-0.300000X0.225000X-0.300000X-0.225000X0.300000X-0.225000X0.300000X0.225000X0*%
%ADD17RoundRect,0.175000X0.175000X-0.612500X0.175000X0.612500X-0.175000X0.612500X-0.175000X-0.612500X0*%
%ADD18RoundRect,0.268750X-0.481250X0.268750X-0.481250X-0.268750X0.481250X-0.268750X0.481250X0.268750X0*%
%ADD19RoundRect,0.200000X-0.650000X0.200000X-0.650000X-0.200000X0.650000X-0.200000X0.650000X0.200000X0*%
%ADD20RoundRect,0.225000X-0.625000X0.225000X-0.625000X-0.225000X0.625000X-0.225000X0.625000X0.225000X0*%
%ADD21RoundRect,0.250000X-0.600000X0.250000X-0.600000X-0.250000X0.600000X-0.250000X0.600000X0.250000X0*%
%ADD22O,1.800000X1.100000*%
%ADD23RoundRect,0.225000X-0.225000X-0.300000X0.225000X-0.300000X0.225000X0.300000X-0.225000X0.300000X0*%
%ADD24RoundRect,0.100000X-0.200000X0.100000X-0.200000X-0.100000X0.200000X-0.100000X0.200000X0.100000X0*%
%ADD25RoundRect,0.225000X0.371231X0.053033X0.053033X0.371231X-0.371231X-0.053033X-0.053033X-0.371231X0*%
%ADD26RoundRect,0.102000X0.985000X0.300000X-0.985000X0.300000X-0.985000X-0.300000X0.985000X-0.300000X0*%
%ADD27RoundRect,0.102000X1.206500X1.651000X-1.206500X1.651000X-1.206500X-1.651000X1.206500X-1.651000X0*%
%ADD28RoundRect,0.267985X-0.477015X0.489515X-0.477015X-0.489515X0.477015X-0.489515X0.477015X0.489515X0*%
%ADD29C,2.100000*%
%ADD30C,2.800000*%
%ADD31O,1.624000X1.100000*%
%ADD32RoundRect,0.268750X-0.268750X-0.481250X0.268750X-0.481250X0.268750X0.481250X-0.268750X0.481250X0*%
%ADD33RoundRect,0.250000X0.275000X-0.250000X0.275000X0.250000X-0.275000X0.250000X-0.275000X-0.250000X0*%
%ADD34RoundRect,0.225000X0.225000X0.300000X-0.225000X0.300000X-0.225000X-0.300000X0.225000X-0.300000X0*%
%ADD35RoundRect,0.175000X-0.175000X0.612500X-0.175000X-0.612500X0.175000X-0.612500X0.175000X0.612500X0*%
%ADD36RoundRect,0.160000X-0.210000X0.160000X-0.210000X-0.160000X0.210000X-0.160000X0.210000X0.160000X0*%
%ADD37RoundRect,0.268750X0.268750X0.481250X-0.268750X0.481250X-0.268750X-0.481250X0.268750X-0.481250X0*%
%ADD38RoundRect,0.243750X-0.243750X-0.281250X0.243750X-0.281250X0.243750X0.281250X-0.243750X0.281250X0*%
%ADD39RoundRect,0.175000X0.175000X-0.850000X0.175000X0.850000X-0.175000X0.850000X-0.175000X-0.850000X0*%
%ADD40RoundRect,0.225000X-0.053033X0.371231X-0.371231X0.053033X0.053033X-0.371231X0.371231X-0.053033X0*%
%ADD41RoundRect,0.165000X0.165000X0.195000X-0.165000X0.195000X-0.165000X-0.195000X0.165000X-0.195000X0*%
%ADD42C,1.600000*%
%ADD43RoundRect,0.272727X0.327273X0.327273X-0.327273X0.327273X-0.327273X-0.327273X0.327273X-0.327273X0*%
%ADD44RoundRect,0.250000X0.250000X0.275000X-0.250000X0.275000X-0.250000X-0.275000X0.250000X-0.275000X0*%
%ADD45RoundRect,0.100000X0.200000X-0.100000X0.200000X0.100000X-0.200000X0.100000X-0.200000X-0.100000X0*%
%ADD46RoundRect,0.125000X-0.662500X-0.125000X0.662500X-0.125000X0.662500X0.125000X-0.662500X0.125000X0*%
%ADD47RoundRect,0.165000X0.021213X-0.254558X0.254558X-0.021213X-0.021213X0.254558X-0.254558X0.021213X0*%
%ADD48RoundRect,0.165000X-0.021213X0.254558X-0.254558X0.021213X0.021213X-0.254558X0.254558X-0.021213X0*%
%ADD49RoundRect,0.175000X-0.724784X0.477297X0.477297X-0.724784X0.724784X-0.477297X-0.477297X0.724784X0*%
%ADD50RoundRect,0.175000X-0.525000X0.175000X-0.525000X-0.175000X0.525000X-0.175000X0.525000X0.175000X0*%
%ADD51RoundRect,0.200000X-0.200000X0.375000X-0.200000X-0.375000X0.200000X-0.375000X0.200000X0.375000X0*%
%ADD52RoundRect,0.175000X0.175000X-0.537500X0.175000X0.537500X-0.175000X0.537500X-0.175000X-0.537500X0*%
%ADD53RoundRect,0.175000X-0.612500X-0.175000X0.612500X-0.175000X0.612500X0.175000X-0.612500X0.175000X0*%
%ADD54RoundRect,0.269231X-0.430769X-0.480769X0.430769X-0.480769X0.430769X0.480769X-0.430769X0.480769X0*%
%ADD55RoundRect,0.165000X-0.165000X-0.195000X0.165000X-0.195000X0.165000X0.195000X-0.165000X0.195000X0*%
%ADD56RoundRect,0.265625X0.584375X0.584375X-0.584375X0.584375X-0.584375X-0.584375X0.584375X-0.584375X0*%
%ADD57C,1.700000*%
%ADD58RoundRect,0.125000X-0.380070X-0.556847X0.556847X0.380070X0.380070X0.556847X-0.556847X-0.380070X0*%
%ADD59RoundRect,0.175000X-0.477297X-0.724784X0.724784X0.477297X0.477297X0.724784X-0.724784X-0.477297X0*%
%ADD60RoundRect,0.165000X0.195000X-0.165000X0.195000X0.165000X-0.195000X0.165000X-0.195000X-0.165000X0*%
%ADD61RoundRect,0.250000X-0.250000X-0.275000X0.250000X-0.275000X0.250000X0.275000X-0.250000X0.275000X0*%
%ADD62RoundRect,0.270833X0.654167X-0.379167X0.654167X0.379167X-0.654167X0.379167X-0.654167X-0.379167X0*%
%ADD63O,1.850000X1.300000*%
%ADD64RoundRect,0.187500X-0.187500X0.775000X-0.187500X-0.775000X0.187500X-0.775000X0.187500X0.775000X0*%
%ADD65RoundRect,0.125000X-0.125000X0.662500X-0.125000X-0.662500X0.125000X-0.662500X0.125000X0.662500X0*%
%ADD66RoundRect,0.050000X-2.000000X-2.000000X2.000000X-2.000000X2.000000X2.000000X-2.000000X2.000000X0*%
%ADD67RoundRect,0.165000X0.254558X0.021213X0.021213X0.254558X-0.254558X-0.021213X-0.021213X-0.254558X0*%
%ADD68RoundRect,0.175000X0.537500X0.175000X-0.537500X0.175000X-0.537500X-0.175000X0.537500X-0.175000X0*%
%ADD69RoundRect,0.137500X0.212500X0.137500X-0.212500X0.137500X-0.212500X-0.137500X0.212500X-0.137500X0*%
%ADD70RoundRect,0.175000X0.850000X0.175000X-0.850000X0.175000X-0.850000X-0.175000X0.850000X-0.175000X0*%
G04 APERTURE END LIST*
D10*
%TO.C,R208*%
X9036849Y162556201D03*
X9036849Y163576199D03*
%TD*%
D11*
%TO.C,C201*%
X21850300Y159969200D03*
X19145300Y159969200D03*
%TD*%
D12*
%TO.C,D307*%
X37278733Y121519710D03*
X37278733Y123394712D03*
%TD*%
D13*
%TO.C,C502*%
X101346000Y88121200D03*
X101346000Y87161200D03*
%TD*%
D12*
%TO.C,D502*%
X83820000Y98142498D03*
X83820000Y100017500D03*
%TD*%
D14*
%TO.C,SW102*%
X119402700Y64516000D03*
X120123949Y66312051D03*
X121920000Y67033300D03*
X123716051Y66312051D03*
X124437300Y64516000D03*
X123716051Y62719949D03*
X121920000Y61998700D03*
X120123949Y62719949D03*
%TD*%
D15*
%TO.C,R203*%
X10371637Y168745399D03*
X10371637Y170395399D03*
%TD*%
D16*
%TO.C,R311*%
X55202667Y72038129D03*
X55202667Y70388129D03*
%TD*%
D17*
%TO.C,Q401*%
X80288411Y113890499D03*
X82188411Y113890499D03*
X81238411Y115765500D03*
%TD*%
%TO.C,Q305*%
X36303333Y70275629D03*
X38203333Y70275629D03*
X37253333Y72150630D03*
%TD*%
%TO.C,Q201*%
X5588000Y168275000D03*
X7488000Y168275000D03*
X6538000Y170150001D03*
%TD*%
D18*
%TO.C,D607*%
X113678923Y117779677D03*
X113678923Y115904675D03*
%TD*%
D19*
%TO.C,J202*%
X6724912Y155088400D03*
D20*
X6724912Y153068400D03*
D21*
X6724912Y151838400D03*
D19*
X6724912Y154088400D03*
D20*
X6724912Y156108400D03*
D21*
X6724912Y157338400D03*
D22*
X6544912Y158908400D03*
X2744912Y158908400D03*
X6544912Y150268400D03*
X2744912Y150268400D03*
%TD*%
D23*
%TO.C,R406*%
X109819100Y74491201D03*
X111469100Y74491201D03*
%TD*%
D24*
%TO.C,U203*%
X9905511Y152658000D03*
X9905511Y151958002D03*
%TD*%
D16*
%TO.C,R324*%
X12700000Y72038129D03*
X12700000Y70388129D03*
%TD*%
D25*
%TO.C,R418*%
X121699879Y106293196D03*
X120533153Y107459922D03*
%TD*%
D16*
%TO.C,R304*%
X51984971Y37477199D03*
X51984971Y35827199D03*
%TD*%
%TO.C,R422*%
X78698411Y115652999D03*
X78698411Y114002999D03*
%TD*%
D18*
%TO.C,D613*%
X106033523Y141909677D03*
X106033523Y140034675D03*
%TD*%
D26*
%TO.C,U205*%
X15871050Y161290000D03*
X15871050Y162560000D03*
X15871050Y163830000D03*
X15871050Y165100000D03*
X10921050Y165100000D03*
X10921050Y163830000D03*
X10921050Y162560000D03*
X10921050Y161290000D03*
D27*
X13396050Y163195000D03*
%TD*%
D23*
%TO.C,R603*%
X121108923Y158523576D03*
X122758923Y158523576D03*
%TD*%
D15*
%TO.C,R503*%
X87093116Y93155000D03*
X87093116Y94805000D03*
%TD*%
%TO.C,R212*%
X33908999Y171400199D03*
X33908999Y173050199D03*
%TD*%
D18*
%TO.C,D303*%
X46414180Y26233602D03*
X46414180Y24358600D03*
%TD*%
D28*
%TO.C,C208*%
X19136450Y165106300D03*
X19136450Y162401300D03*
%TD*%
D12*
%TO.C,D501*%
X78740000Y98142498D03*
X78740000Y100017500D03*
%TD*%
D16*
%TO.C,R318*%
X34738733Y115662211D03*
X34738733Y114012211D03*
%TD*%
D17*
%TO.C,Q309*%
X14290000Y70275629D03*
X16190000Y70275629D03*
X15240000Y72150630D03*
%TD*%
D29*
%TO.C,SW305*%
X54494569Y109224200D03*
X59574568Y109224200D03*
X64654567Y109224200D03*
%TD*%
D30*
%TO.C,H107*%
X134442200Y50800000D03*
%TD*%
D15*
%TO.C,R308*%
X35475333Y78008129D03*
X35475333Y79658129D03*
%TD*%
D14*
%TO.C,SW401*%
X80030000Y60896999D03*
X82530000Y60896999D03*
X80030000Y66897000D03*
X82530000Y66897000D03*
X80030001Y64897000D03*
X82529999Y64897000D03*
X80030000Y68897001D03*
X82530000Y68897001D03*
D31*
X81280000Y58547000D03*
X81280000Y71247000D03*
%TD*%
D16*
%TO.C,R314*%
X33214733Y115662211D03*
X33214733Y114012211D03*
%TD*%
D13*
%TO.C,C501*%
X81026000Y88095800D03*
X81026000Y87135800D03*
%TD*%
D32*
%TO.C,D603*%
X120996422Y156745576D03*
X122871424Y156745576D03*
%TD*%
D33*
%TO.C,C204*%
X24434800Y156959000D03*
X24434800Y158509000D03*
%TD*%
D12*
%TO.C,D304*%
X59266667Y77895628D03*
X59266667Y79770630D03*
%TD*%
%TO.C,D308*%
X59292067Y121519710D03*
X59292067Y123394712D03*
%TD*%
D34*
%TO.C,R110*%
X35750000Y149326600D03*
X34100000Y149326600D03*
%TD*%
D35*
%TO.C,Q604*%
X110818923Y126159377D03*
X108918923Y126159377D03*
X109868923Y124284376D03*
%TD*%
D36*
%TO.C,R204*%
X10870711Y154707498D03*
X10870711Y153687500D03*
%TD*%
D17*
%TO.C,Q501*%
X78468579Y93042500D03*
X80368579Y93042500D03*
X79418579Y94917501D03*
%TD*%
D34*
%TO.C,R520*%
X124523000Y91186000D03*
X122873000Y91186000D03*
%TD*%
D17*
%TO.C,Q606*%
X105362923Y155784975D03*
X107262923Y155784975D03*
X106312923Y157659976D03*
%TD*%
D34*
%TO.C,R207*%
X7589048Y161186599D03*
X5939048Y161186599D03*
%TD*%
D16*
%TO.C,R322*%
X11176000Y72038129D03*
X11176000Y70388129D03*
%TD*%
D15*
%TO.C,R507*%
X107558547Y93155000D03*
X107558547Y94805000D03*
%TD*%
%TO.C,R319*%
X57497877Y121637612D03*
X57497877Y123287612D03*
%TD*%
D37*
%TO.C,D204*%
X7726949Y162939199D03*
X5851947Y162939199D03*
%TD*%
D16*
%TO.C,R313*%
X11201400Y115656103D03*
X11201400Y114006103D03*
%TD*%
D38*
%TO.C,L202*%
X14283133Y167030400D03*
X15858135Y167030400D03*
%TD*%
D12*
%TO.C,D601*%
X106058923Y164164675D03*
X106058923Y166039677D03*
%TD*%
D34*
%TO.C,R404*%
X123876500Y77666200D03*
X122226500Y77666200D03*
%TD*%
D39*
%TO.C,U502*%
X102870000Y82626200D03*
X104140000Y82626200D03*
X105410000Y82626200D03*
X106680000Y82626200D03*
X107950000Y82626200D03*
X109220000Y82626200D03*
X110490000Y82626200D03*
X110490000Y87576200D03*
X109220000Y87576200D03*
X107950000Y87576200D03*
X106680000Y87576200D03*
X105410000Y87576200D03*
X104140000Y87576200D03*
X102870000Y87576200D03*
%TD*%
D40*
%TO.C,R419*%
X130221787Y115407098D03*
X129055061Y114240372D03*
%TD*%
D15*
%TO.C,R602*%
X115456923Y164277176D03*
X115456923Y165927176D03*
%TD*%
D41*
%TO.C,C102*%
X41678800Y139256900D03*
X40718800Y139256900D03*
%TD*%
D34*
%TO.C,R101*%
X19189201Y142468600D03*
X17539201Y142468600D03*
%TD*%
D15*
%TO.C,R508*%
X112674905Y93155000D03*
X112674905Y94805000D03*
%TD*%
D40*
%TO.C,R423*%
X128066527Y117562358D03*
X126899801Y116395632D03*
%TD*%
D16*
%TO.C,R312*%
X33189333Y72038129D03*
X33189333Y70388129D03*
%TD*%
D35*
%TO.C,Q605*%
X107262923Y126159377D03*
X105362923Y126159377D03*
X106312923Y124284376D03*
%TD*%
D15*
%TO.C,R309*%
X13487400Y121628402D03*
X13487400Y123278402D03*
%TD*%
D30*
%TO.C,H104*%
X71120000Y88874600D03*
%TD*%
D23*
%TO.C,R403*%
X109819099Y77539199D03*
X111469099Y77539199D03*
%TD*%
D42*
%TO.C,TP101*%
X30473302Y149107199D03*
%TD*%
D43*
%TO.C,D201*%
X7495999Y165912800D03*
X4696001Y165912800D03*
%TD*%
D17*
%TO.C,Q503*%
X88701295Y93042500D03*
X90601295Y93042500D03*
X89651295Y94917501D03*
%TD*%
D23*
%TO.C,R109*%
X37852501Y159013201D03*
X39502501Y159013201D03*
%TD*%
D44*
%TO.C,C206*%
X19655636Y169951400D03*
X18105636Y169951400D03*
%TD*%
D34*
%TO.C,R609*%
X98628923Y123192176D03*
X96978923Y123192176D03*
%TD*%
D17*
%TO.C,Q504*%
X93817653Y93042500D03*
X95717653Y93042500D03*
X94767653Y94917501D03*
%TD*%
D15*
%TO.C,R504*%
X92209474Y93155000D03*
X92209474Y94805000D03*
%TD*%
%TO.C,R408*%
X127025400Y85573600D03*
X127025400Y87223600D03*
%TD*%
D29*
%TO.C,SW303*%
X10467902Y109220000D03*
X15547901Y109220000D03*
X20627900Y109220000D03*
%TD*%
D33*
%TO.C,C207*%
X11921036Y168795399D03*
X11921036Y170345399D03*
%TD*%
D14*
%TO.C,RV101*%
X24579300Y143654500D03*
X27119300Y146194501D03*
X29659300Y143654500D03*
%TD*%
D34*
%TO.C,R411*%
X123876500Y74618201D03*
X122226500Y74618201D03*
%TD*%
D16*
%TO.C,R317*%
X12725400Y115656103D03*
X12725400Y114006103D03*
%TD*%
D34*
%TO.C,R511*%
X78549000Y91186000D03*
X76899000Y91186000D03*
%TD*%
D15*
%TO.C,R601*%
X104280923Y164277176D03*
X104280923Y165927176D03*
%TD*%
D10*
%TO.C,R205*%
X10870711Y151747202D03*
X10870711Y152767200D03*
%TD*%
D17*
%TO.C,Q509*%
X119399442Y93042500D03*
X121299442Y93042500D03*
X120349442Y94917501D03*
%TD*%
D45*
%TO.C,U202*%
X9905511Y153796700D03*
X9905511Y154496698D03*
%TD*%
D16*
%TO.C,R108*%
X36035902Y154275601D03*
X36035902Y152625601D03*
%TD*%
%TO.C,R615*%
X108852923Y153989176D03*
X108852923Y152339176D03*
%TD*%
D34*
%TO.C,R612*%
X98628923Y158523576D03*
X96978923Y158523576D03*
%TD*%
D12*
%TO.C,D305*%
X37253333Y77895628D03*
X37253333Y79770630D03*
%TD*%
D34*
%TO.C,R515*%
X98869000Y91186000D03*
X97219000Y91186000D03*
%TD*%
D46*
%TO.C,U401*%
X113961800Y77967000D03*
X113961800Y77317000D03*
X113961800Y76667000D03*
X113961800Y76017000D03*
X113961800Y75367000D03*
X113961800Y74717000D03*
X113961800Y74067000D03*
X113961800Y73417000D03*
X119686800Y73417000D03*
X119686800Y74067000D03*
X119686800Y74717000D03*
X119686800Y75367000D03*
X119686800Y76017000D03*
X119686800Y76667000D03*
X119686800Y77317000D03*
X119686800Y77967000D03*
%TD*%
D37*
%TO.C,D612*%
X98741424Y156745576D03*
X96866422Y156745576D03*
%TD*%
D47*
%TO.C,C403*%
X123614863Y116163983D03*
X124293685Y116842805D03*
%TD*%
D23*
%TO.C,R412*%
X106440900Y74491199D03*
X108090900Y74491199D03*
%TD*%
D15*
%TO.C,R506*%
X102442189Y93155000D03*
X102442189Y94805000D03*
%TD*%
D34*
%TO.C,R514*%
X93789000Y91186000D03*
X92139000Y91186000D03*
%TD*%
%TO.C,R519*%
X119443000Y91186000D03*
X117793000Y91186000D03*
%TD*%
D23*
%TO.C,R409*%
X106440900Y76015198D03*
X108090900Y76015198D03*
%TD*%
D12*
%TO.C,D309*%
X15240000Y77895628D03*
X15240000Y79770630D03*
%TD*%
D16*
%TO.C,R616*%
X112408923Y153989176D03*
X112408923Y152339176D03*
%TD*%
D48*
%TO.C,C602*%
X88910045Y147536599D03*
X88231223Y146857777D03*
%TD*%
D12*
%TO.C,D507*%
X109220000Y98142498D03*
X109220000Y100017500D03*
%TD*%
D17*
%TO.C,Q304*%
X58316667Y70275629D03*
X60216667Y70275629D03*
X59266667Y72150630D03*
%TD*%
D12*
%TO.C,D602*%
X113678923Y164164675D03*
X113678923Y166039677D03*
%TD*%
D49*
%TO.C,U601*%
X129980176Y145946732D03*
X129082150Y145048707D03*
X128184124Y144150681D03*
X127286099Y143252655D03*
X126388073Y142354630D03*
X125490047Y141456604D03*
X124592022Y140558578D03*
X128092200Y137058400D03*
X128990226Y137956425D03*
X129888252Y138854451D03*
X130786277Y139752477D03*
X131684303Y140650502D03*
X132582329Y141548528D03*
X133480354Y142446554D03*
%TD*%
D34*
%TO.C,R202*%
X19705636Y171475399D03*
X18055636Y171475399D03*
%TD*%
D15*
%TO.C,R303*%
X46007781Y18898601D03*
X46007781Y20548601D03*
%TD*%
%TO.C,R201*%
X3098800Y165926000D03*
X3098800Y167576000D03*
%TD*%
%TO.C,R302*%
X47557180Y18898600D03*
X47557180Y20548600D03*
%TD*%
D50*
%TO.C,SW202*%
X3733800Y175107600D03*
X3733800Y172107600D03*
X3733800Y170607600D03*
D51*
X2883800Y176532600D03*
X683800Y176532600D03*
X2883800Y169182600D03*
X683800Y169182600D03*
%TD*%
D52*
%TO.C,U201*%
X20487601Y155321000D03*
X22387599Y155321000D03*
X21437600Y157596000D03*
%TD*%
D40*
%TO.C,R417*%
X132707126Y117877018D03*
X131540400Y116710292D03*
%TD*%
D23*
%TO.C,R605*%
X121108923Y134368176D03*
X122758923Y134368176D03*
%TD*%
D53*
%TO.C,Q607*%
X109187722Y149796176D03*
X109187722Y147896176D03*
X111062723Y148846176D03*
%TD*%
D12*
%TO.C,D508*%
X114300000Y98142498D03*
X114300000Y100017500D03*
%TD*%
D17*
%TO.C,Q307*%
X36328733Y113902010D03*
X38228733Y113902010D03*
X37278733Y115777011D03*
%TD*%
D15*
%TO.C,R510*%
X122907621Y93155000D03*
X122907621Y94805000D03*
%TD*%
D16*
%TO.C,R209*%
X33909000Y164058600D03*
X33909000Y162408600D03*
%TD*%
D30*
%TO.C,H101*%
X2590800Y162534600D03*
%TD*%
D15*
%TO.C,R617*%
X114440923Y127955176D03*
X114440923Y129605176D03*
%TD*%
D12*
%TO.C,D504*%
X93980000Y98142498D03*
X93980000Y100017500D03*
%TD*%
D17*
%TO.C,Q507*%
X109166726Y93042500D03*
X111066726Y93042500D03*
X110116726Y94917501D03*
%TD*%
D14*
%TO.C,RV103*%
X16357600Y38514299D03*
X13817600Y35974298D03*
X11277600Y38514299D03*
%TD*%
D54*
%TO.C,D202*%
X10258911Y156417200D03*
X13158911Y156417200D03*
%TD*%
D29*
%TO.C,SW306*%
X10442502Y65557400D03*
X15522501Y65557400D03*
X20602500Y65557400D03*
%TD*%
D38*
%TO.C,L201*%
X10108610Y158423800D03*
X11683612Y158423800D03*
%TD*%
D14*
%TO.C,RV102*%
X2259393Y143611170D03*
X4799393Y146151171D03*
X7339393Y143611170D03*
%TD*%
D16*
%TO.C,R321*%
X55211877Y115667612D03*
X55211877Y114017612D03*
%TD*%
D55*
%TO.C,C402*%
X119689101Y79164800D03*
X120649101Y79164800D03*
%TD*%
D32*
%TO.C,D606*%
X120996422Y124970176D03*
X122871424Y124970176D03*
%TD*%
D37*
%TO.C,D302*%
X48418482Y28244800D03*
X46543480Y28244800D03*
%TD*%
D39*
%TO.C,U501*%
X82550000Y82615000D03*
X83820000Y82615000D03*
X85090000Y82615000D03*
X86360000Y82615000D03*
X87630000Y82615000D03*
X88900000Y82615000D03*
X90170000Y82615000D03*
X90170000Y87565000D03*
X88900000Y87565000D03*
X87630000Y87565000D03*
X86360000Y87565000D03*
X85090000Y87565000D03*
X83820000Y87565000D03*
X82550000Y87565000D03*
%TD*%
D13*
%TO.C,C503*%
X115214400Y88107400D03*
X115214400Y87147400D03*
%TD*%
D15*
%TO.C,R413*%
X79460411Y121622999D03*
X79460411Y123272999D03*
%TD*%
D17*
%TO.C,Q510*%
X124515800Y93042500D03*
X126415800Y93042500D03*
X125465800Y94917501D03*
%TD*%
D15*
%TO.C,R619*%
X107303523Y127955176D03*
X107303523Y129605176D03*
%TD*%
D37*
%TO.C,D609*%
X98741424Y124970176D03*
X96866422Y124970176D03*
%TD*%
D34*
%TO.C,R621*%
X107391923Y149862176D03*
X105741923Y149862176D03*
%TD*%
D23*
%TO.C,R401*%
X106440900Y77539201D03*
X108090900Y77539201D03*
%TD*%
D16*
%TO.C,R316*%
X34713333Y72038129D03*
X34713333Y70388129D03*
%TD*%
D15*
%TO.C,R509*%
X117791263Y93155000D03*
X117791263Y94805000D03*
%TD*%
D14*
%TO.C,RV105*%
X16357600Y13817601D03*
X13817600Y11277600D03*
X11277600Y13817601D03*
%TD*%
D56*
%TO.C,SW201*%
X31496000Y163931600D03*
D57*
X31496000Y166471600D03*
X31496000Y169011599D03*
X31496000Y171551600D03*
X23876000Y171551600D03*
X23876000Y169011600D03*
X23876000Y166471600D03*
X23876000Y163931600D03*
%TD*%
D58*
%TO.C,U403*%
X120344639Y111319175D03*
X120804258Y110859555D03*
X121263878Y110399936D03*
X121723497Y109940317D03*
X122183117Y109480697D03*
X122642736Y109021078D03*
X123102355Y108561458D03*
X123561975Y108101839D03*
X127610161Y112150025D03*
X127150542Y112609645D03*
X126690922Y113069264D03*
X126231303Y113528883D03*
X125771683Y113988503D03*
X125312064Y114448122D03*
X124852445Y114907742D03*
X124392825Y115367361D03*
%TD*%
D16*
%TO.C,R315*%
X56726667Y72038129D03*
X56726667Y70388129D03*
%TD*%
D35*
%TO.C,Q301*%
X51979971Y34033698D03*
X50079971Y34033698D03*
X51029971Y32158697D03*
%TD*%
D15*
%TO.C,R618*%
X110884923Y127955176D03*
X110884923Y129605176D03*
%TD*%
D30*
%TO.C,H103*%
X2743200Y88874600D03*
%TD*%
D15*
%TO.C,R501*%
X76860400Y93155000D03*
X76860400Y94805000D03*
%TD*%
D59*
%TO.C,U602*%
X86158468Y142553176D03*
X87056493Y141655150D03*
X87954519Y140757124D03*
X88852545Y139859099D03*
X89750570Y138961073D03*
X90648596Y138063047D03*
X91546622Y137165022D03*
X95046800Y140665200D03*
X94148775Y141563226D03*
X93250749Y142461252D03*
X92352723Y143359277D03*
X91454698Y144257303D03*
X90556672Y145155329D03*
X89658646Y146053354D03*
%TD*%
D17*
%TO.C,Q306*%
X14315400Y113895902D03*
X16215400Y113895902D03*
X15265400Y115770903D03*
%TD*%
D13*
%TO.C,C401*%
X134289801Y81988600D03*
X134289801Y81028600D03*
%TD*%
D60*
%TO.C,C104*%
X29286200Y157292401D03*
X29286200Y158252401D03*
%TD*%
D61*
%TO.C,C202*%
X23659800Y160172400D03*
X25209800Y160172400D03*
%TD*%
D17*
%TO.C,Q601*%
X108918923Y155784975D03*
X110818923Y155784975D03*
X109868923Y157659976D03*
%TD*%
D25*
%TO.C,R414*%
X119562578Y108430497D03*
X118395852Y109597223D03*
%TD*%
D17*
%TO.C,Q308*%
X58325877Y113905112D03*
X60225877Y113905112D03*
X59275877Y115780113D03*
%TD*%
D34*
%TO.C,R516*%
X104203000Y91186000D03*
X102553000Y91186000D03*
%TD*%
D62*
%TO.C,J201*%
X15787200Y176190400D03*
D63*
X15787200Y178190401D03*
%TD*%
D15*
%TO.C,R106*%
X17627601Y143929599D03*
X17627601Y145579599D03*
%TD*%
D16*
%TO.C,R323*%
X56735877Y115667612D03*
X56735877Y114017612D03*
%TD*%
D33*
%TO.C,C101*%
X19151600Y143979600D03*
X19151600Y145529600D03*
%TD*%
D60*
%TO.C,C105*%
X36560600Y157226599D03*
X36560600Y158186599D03*
%TD*%
D16*
%TO.C,R613*%
X104280923Y141797176D03*
X104280923Y140147176D03*
%TD*%
D15*
%TO.C,R320*%
X13462000Y78008129D03*
X13462000Y79658129D03*
%TD*%
D41*
%TO.C,C103*%
X10182804Y141503399D03*
X9222804Y141503399D03*
%TD*%
D12*
%TO.C,D505*%
X99060000Y98142498D03*
X99060000Y100017500D03*
%TD*%
D18*
%TO.C,D614*%
X113678923Y141909677D03*
X113678923Y140034675D03*
%TD*%
D12*
%TO.C,D506*%
X104140000Y98142498D03*
X104140000Y100017500D03*
%TD*%
D28*
%TO.C,C203*%
X24434800Y155194903D03*
X24434800Y152489903D03*
%TD*%
D17*
%TO.C,Q602*%
X112474923Y155782676D03*
X114374923Y155782676D03*
X113424923Y157657677D03*
%TD*%
%TO.C,Q502*%
X83584937Y93042500D03*
X85484937Y93042500D03*
X84534937Y94917501D03*
%TD*%
D16*
%TO.C,R608*%
X104280923Y117667176D03*
X104280923Y116017176D03*
%TD*%
D39*
%TO.C,U104*%
X37754400Y151915399D03*
X39024400Y151915399D03*
X40294400Y151915399D03*
X41564400Y151915399D03*
X41564400Y156865399D03*
X40294400Y156865399D03*
X39024400Y156865399D03*
X37754400Y156865399D03*
%TD*%
D30*
%TO.C,H109*%
X29159200Y177749200D03*
%TD*%
D35*
%TO.C,Q302*%
X48430980Y34031401D03*
X46530980Y34031401D03*
X47480980Y32156400D03*
%TD*%
D16*
%TO.C,R306*%
X44864189Y37472603D03*
X44864189Y35822603D03*
%TD*%
D35*
%TO.C,Q303*%
X44866789Y34029102D03*
X42966789Y34029102D03*
X43916789Y32154101D03*
%TD*%
D44*
%TO.C,C205*%
X19655636Y172999400D03*
X18105636Y172999400D03*
%TD*%
D32*
%TO.C,D605*%
X120996422Y132590176D03*
X122871424Y132590176D03*
%TD*%
D15*
%TO.C,R301*%
X49109672Y18898599D03*
X49109672Y20548599D03*
%TD*%
D16*
%TO.C,R305*%
X48420780Y37474900D03*
X48420780Y35824900D03*
%TD*%
D40*
%TO.C,R420*%
X131299420Y114329471D03*
X130132694Y113162745D03*
%TD*%
D12*
%TO.C,D503*%
X88900000Y98142498D03*
X88900000Y100017500D03*
%TD*%
D34*
%TO.C,R610*%
X98628923Y134368176D03*
X96978923Y134368176D03*
%TD*%
D29*
%TO.C,SW101*%
X95148400Y26113889D03*
X100228400Y26113889D03*
X105308400Y26113889D03*
%TD*%
D12*
%TO.C,D510*%
X124460000Y98142498D03*
X124460000Y100017500D03*
%TD*%
D23*
%TO.C,R407*%
X109819101Y72967201D03*
X111469101Y72967201D03*
%TD*%
D18*
%TO.C,D608*%
X106058923Y117779677D03*
X106058923Y115904675D03*
%TD*%
D37*
%TO.C,D610*%
X98741424Y132590176D03*
X96866422Y132590176D03*
%TD*%
D39*
%TO.C,U503*%
X116738400Y82612400D03*
X118008400Y82612400D03*
X119278400Y82612400D03*
X120548400Y82612400D03*
X121818400Y82612400D03*
X123088400Y82612400D03*
X124358400Y82612400D03*
X124358400Y87562400D03*
X123088400Y87562400D03*
X121818400Y87562400D03*
X120548400Y87562400D03*
X119278400Y87562400D03*
X118008400Y87562400D03*
X116738400Y87562400D03*
%TD*%
D16*
%TO.C,R210*%
X33908999Y167055799D03*
X33908999Y165405799D03*
%TD*%
D15*
%TO.C,R410*%
X127025400Y82551000D03*
X127025400Y84201000D03*
%TD*%
D16*
%TO.C,R105*%
X22174202Y142531599D03*
X22174202Y140881599D03*
%TD*%
D15*
%TO.C,R505*%
X97325832Y93155000D03*
X97325832Y94805000D03*
%TD*%
D34*
%TO.C,R611*%
X98628923Y147347576D03*
X96978923Y147347576D03*
%TD*%
D16*
%TO.C,R102*%
X28746100Y154329401D03*
X28746100Y152679401D03*
%TD*%
D34*
%TO.C,R512*%
X83629000Y91186000D03*
X81979000Y91186000D03*
%TD*%
D39*
%TO.C,U102*%
X30473301Y151980399D03*
X31743301Y151980399D03*
X33013301Y151980399D03*
X34283301Y151980399D03*
X34283301Y156930399D03*
X33013301Y156930399D03*
X31743301Y156930399D03*
X30473301Y156930399D03*
%TD*%
D64*
%TO.C,U103*%
X41681403Y147221199D03*
X40411403Y147221199D03*
X39141403Y147221199D03*
X37871403Y147221199D03*
X36601403Y147221199D03*
X35331403Y147221199D03*
X34061403Y147221199D03*
X32791403Y147221199D03*
X32791403Y141046199D03*
X34061403Y141046199D03*
X35331403Y141046199D03*
X36601403Y141046199D03*
X37871403Y141046199D03*
X39141403Y141046199D03*
X40411403Y141046199D03*
X41681403Y141046199D03*
%TD*%
D65*
%TO.C,U402*%
X133186801Y87712699D03*
X132536801Y87712699D03*
X131886801Y87712699D03*
X131236801Y87712699D03*
X130586801Y87712699D03*
X129936801Y87712699D03*
X129286801Y87712699D03*
X128636801Y87712699D03*
X128636801Y81987699D03*
X129286801Y81987699D03*
X129936801Y81987699D03*
X130586801Y81987699D03*
X131236801Y81987699D03*
X131886801Y81987699D03*
X132536801Y81987699D03*
X133186801Y81987699D03*
%TD*%
D66*
%TO.C,TP201*%
X2565400Y134594600D03*
%TD*%
D34*
%TO.C,R513*%
X88709000Y91186000D03*
X87059000Y91186000D03*
%TD*%
D55*
%TO.C,C106*%
X36908800Y149326600D03*
X37868800Y149326600D03*
%TD*%
D67*
%TO.C,C601*%
X134684199Y143449155D03*
X134005377Y144127977D03*
%TD*%
D55*
%TO.C,C107*%
X98097400Y30124400D03*
X99057400Y30124400D03*
%TD*%
D40*
%TO.C,R416*%
X131629493Y118954651D03*
X130462767Y117787925D03*
%TD*%
D34*
%TO.C,R206*%
X16657637Y172719999D03*
X15007637Y172719999D03*
%TD*%
D30*
%TO.C,H106*%
X134391400Y2743200D03*
%TD*%
D37*
%TO.C,D611*%
X98741424Y149125576D03*
X96866422Y149125576D03*
%TD*%
D29*
%TO.C,SW301*%
X54469169Y65557400D03*
X59549168Y65557400D03*
X64629167Y65557400D03*
%TD*%
D34*
%TO.C,R111*%
X101942400Y30124400D03*
X100292400Y30124400D03*
%TD*%
D15*
%TO.C,R502*%
X81976758Y93155000D03*
X81976758Y94805000D03*
%TD*%
D68*
%TO.C,U204*%
X16335136Y169128399D03*
X16335136Y170078398D03*
X16335136Y171028397D03*
X14060136Y171028397D03*
X14060136Y169128399D03*
%TD*%
D35*
%TO.C,Q603*%
X114374923Y126159377D03*
X112474923Y126159377D03*
X113424923Y124284376D03*
%TD*%
D29*
%TO.C,SW302*%
X32455835Y65557400D03*
X37535834Y65557400D03*
X42615833Y65557400D03*
%TD*%
D23*
%TO.C,R604*%
X121096592Y147398376D03*
X122746592Y147398376D03*
%TD*%
D30*
%TO.C,H105*%
X2768600Y2768600D03*
%TD*%
D12*
%TO.C,D306*%
X15265400Y121519710D03*
X15265400Y123394712D03*
%TD*%
%TO.C,D509*%
X119380000Y98142498D03*
X119380000Y100017500D03*
%TD*%
D17*
%TO.C,Q508*%
X114283084Y93042500D03*
X116183084Y93042500D03*
X115233084Y94917501D03*
%TD*%
D40*
%TO.C,R421*%
X126988897Y118639988D03*
X125822171Y117473262D03*
%TD*%
D15*
%TO.C,R307*%
X57488667Y78008129D03*
X57488667Y79658129D03*
%TD*%
D40*
%TO.C,R415*%
X130545077Y120040908D03*
X129378351Y118874182D03*
%TD*%
D30*
%TO.C,H102*%
X134391400Y177571400D03*
%TD*%
D34*
%TO.C,R104*%
X19189200Y140944600D03*
X17539200Y140944600D03*
%TD*%
D23*
%TO.C,R107*%
X30562702Y159092399D03*
X32212702Y159092399D03*
%TD*%
%TO.C,R405*%
X109819100Y79063199D03*
X111469100Y79063199D03*
%TD*%
D34*
%TO.C,R402*%
X123876500Y76142201D03*
X122226500Y76142201D03*
%TD*%
D16*
%TO.C,R620*%
X105296923Y153989176D03*
X105296923Y152339176D03*
%TD*%
D42*
%TO.C,TP102*%
X15367002Y140157200D03*
%TD*%
D34*
%TO.C,R517*%
X109283000Y91186000D03*
X107633000Y91186000D03*
%TD*%
D17*
%TO.C,Q505*%
X98934011Y93042500D03*
X100834011Y93042500D03*
X99884011Y94917501D03*
%TD*%
D30*
%TO.C,H108*%
X71120000Y50774600D03*
%TD*%
D15*
%TO.C,R103*%
X20650203Y140881599D03*
X20650203Y142531599D03*
%TD*%
D17*
%TO.C,Q506*%
X104050368Y93042500D03*
X105950368Y93042500D03*
X105000368Y94917501D03*
%TD*%
D14*
%TO.C,RV104*%
X16357600Y26165950D03*
X13817600Y23625949D03*
X11277600Y26165950D03*
%TD*%
D32*
%TO.C,D604*%
X120984091Y149176376D03*
X122859093Y149176376D03*
%TD*%
D16*
%TO.C,R614*%
X115456923Y141797176D03*
X115456923Y140147176D03*
%TD*%
D23*
%TO.C,R606*%
X121108923Y123192176D03*
X122758923Y123192176D03*
%TD*%
D69*
%TO.C,D203*%
X19498834Y167284401D03*
X17398834Y167284401D03*
%TD*%
D34*
%TO.C,R518*%
X114363000Y91186000D03*
X112713000Y91186000D03*
%TD*%
D29*
%TO.C,SW304*%
X32481235Y109224200D03*
X37561234Y109224200D03*
X42641233Y109224200D03*
%TD*%
D15*
%TO.C,R211*%
X33908999Y168403001D03*
X33908999Y170053001D03*
%TD*%
D18*
%TO.C,D301*%
X48700181Y26235900D03*
X48700181Y24360898D03*
%TD*%
D70*
%TO.C,U101*%
X15513000Y142678199D03*
X15513000Y143948199D03*
X15513000Y145218199D03*
X15513000Y146488199D03*
X10563000Y146488199D03*
X10563000Y145218199D03*
X10563000Y143948199D03*
X10563000Y142678199D03*
%TD*%
D12*
%TO.C,D401*%
X81238411Y121510498D03*
X81238411Y123385500D03*
%TD*%
D16*
%TO.C,R607*%
X115456923Y117667176D03*
X115456923Y116017176D03*
%TD*%
D15*
%TO.C,R310*%
X35500733Y121632211D03*
X35500733Y123282211D03*
%TD*%
M02*
